<?xml version="1.0" standalone="no"?>
<!DOCTYPE svg PUBLIC "-//W3C//DTD SVG 1.1//EN" "http://www.w3.org/Graphics/SVG/1.1/DTD/svg11.dtd" >
<svg>
<metadata>
Created by FontForge 20120731 at Wed Sep 28 10:20:58 2016
 By ,,,
Copyright 2011 Adobe Systems Incorporated. All rights reserved. Pdf_X
</metadata>
<defs>
<font id="SVN-MergeBold" horiz-adv-x="569" >
  <font-face 
    font-family="SVN-Merge"
    font-weight="700"
    font-stretch="normal"
    units-per-em="1000"
    panose-1="2 0 8 3 0 0 0 0 0 0"
    ascent="800"
    descent="-200"
    x-height="518"
    cap-height="673"
    bbox="-75 -342 1063 1091"
    underline-thickness="50"
    underline-position="-100"
    unicode-range="U+0020-2265"
  />
<missing-glyph horiz-adv-x="354" 
 />
    <glyph glyph-name=".notdef" horiz-adv-x="354" 
 />
    <glyph glyph-name=".null" horiz-adv-x="0" 
 />
    <glyph glyph-name="nonmarkingreturn" horiz-adv-x="333" 
 />
    <glyph glyph-name="space" unicode=" " horiz-adv-x="229" 
 />
    <glyph glyph-name="exclam" unicode="!" horiz-adv-x="302" 
d="M157 239h-13q-30 0 -44.5 19.5t-19.5 64.5q-8 89 -26 265q0 3 -0.5 9t-0.5 8q0 42 21.5 61t66.5 19h19q47 0 67 -19t20 -61v-17l-26 -265q-4 -46 -19.5 -65t-44.5 -19zM150 186q45 0 75 -24t30 -75q0 -52 -30 -75.5t-75 -23.5q-44 0 -74 23.5t-30 75.5q0 51 30.5 75
t73.5 24z" />
    <glyph glyph-name="numbersign" unicode="#" horiz-adv-x="723" 
d="M331 97l20 65h-97q-3 -8 -11.5 -35t-12 -37t-13 -29.5t-18.5 -27.5t-23.5 -15t-32.5 -7q-70 0 -70 52q0 21 25 99q-19 0 -28.5 0.5t-23.5 3.5t-20.5 9.5t-12 19t-5.5 30.5q0 39 20 51t64 12h46q28 86 35 111h-35q-41 0 -59 11.5t-18 51.5q0 36 17 49.5t51 13.5h84
q2 6 11 39.5t14.5 45.5t18 33.5t30 30t41.5 8.5q69 0 69 -55q0 -24 -27 -102h96q4 11 12 39.5t14.5 44t18 35.5t29 29t41.5 9q35 0 51.5 -18.5t16.5 -45.5q0 -13 -26 -93q19 0 28.5 -0.5t23.5 -4t20.5 -9.5t11.5 -18.5t5 -30.5q0 -40 -20.5 -51.5t-64.5 -11.5h-44l-36 -111
h30q20 0 32.5 -1.5t25 -7.5t18.5 -19.5t6 -34.5q0 -36 -17 -49t-51 -14h-85q-3 -8 -12.5 -40.5t-14.5 -44t-17 -31.5t-28 -27.5t-38 -7.5q-73 0 -73 51q0 14 8 35zM330 399q-4 -12 -11 -35t-13 -41.5t-12 -34.5h97q4 15 17.5 55t17.5 56h-96z" />
    <glyph glyph-name="dollar" unicode="$" horiz-adv-x="596" 
d="M42 466q0 76 46 130.5t126 74.5v18q0 45 16.5 66t60.5 21h2q45 0 62 -21t17 -66v-11q77 -9 121.5 -40t44.5 -80q0 -26 -14.5 -49.5t-40.5 -35.5q-77 49 -169 49q-39 0 -59.5 -14.5t-20.5 -37.5q0 -20 18.5 -31.5t56.5 -20.5q144 -34 200 -81.5t56 -129.5
q0 -75 -51.5 -131t-141.5 -76v-10q0 -44 -17 -65t-60 -21h-4q-45 0 -61 20.5t-16 65.5v5q-81 10 -132 41t-51 76q0 66 59 93q20 -21 78 -43t119 -22q38 0 61 15t23 39q0 22 -23 35.5t-79 24.5q-114 23 -170.5 73t-56.5 139z" />
    <glyph glyph-name="percent" unicode="%" horiz-adv-x="743" 
d="M558 310q59 0 107.5 -41t48.5 -118q0 -76 -48 -115t-108 -39t-108.5 39t-48.5 115q0 77 48.5 118t108.5 41zM557 215q-23 0 -39.5 -15t-16.5 -46q0 -32 16.5 -47t39.5 -15t40 15t17 47q0 31 -17 46t-40 15zM186 694q59 0 107.5 -40.5t48.5 -117.5t-48 -116.5t-108 -39.5
t-109 40t-49 116q0 77 49 117.5t109 40.5zM185 599q-23 0 -40 -14.5t-17 -46.5t17 -47t40 -15q22 0 39 15.5t17 46.5t-16.5 46t-39.5 15zM657 687q25 -22 25 -42q0 -18 -38 -65l-463 -555q-25 -30 -47 -30q-18 0 -39 18h-1q-25 22 -25 42q0 18 22 45l15 18l463 556
q25 31 48 31q16 0 40 -18z" />
    <glyph glyph-name="ampersand" unicode="&#x26;" horiz-adv-x="665" 
d="M637 66q14 -14 14 -27q0 -40 -75 -40q-31 0 -49.5 9t-52.5 36q-70 -57 -185 -57q-125 0 -196.5 51t-71.5 137q0 113 122 178q-42 35 -62.5 70t-20.5 83q0 72 59 124.5t154 52.5t153 -55.5t58 -128.5q0 -59 -29 -95.5t-90 -73.5l102 -99q6 7 10 15t6.5 18.5t3.5 16.5
t2.5 20t2.5 20q48 -2 76.5 -29.5t28.5 -62.5q0 -48 -30 -93zM278 119q60 0 92 29l-134 123q-51 -28 -51 -79q0 -30 25.5 -51.5t67.5 -21.5zM215 493q0 -23 12 -40.5t45 -45.5q62 33 62 82q0 25 -17.5 43t-45.5 18q-26 0 -41 -16t-15 -41z" />
    <glyph glyph-name="parenleft" unicode="(" horiz-adv-x="392" 
d="M351 -149q1 -4 1 -13q0 -32 -22.5 -54t-54.5 -22q-43 0 -82 47q-145 174 -145 420v8q0 261 150 434q35 41 72 41q36 0 60.5 -22t24.5 -57q0 -7 -2 -14.5t-4 -12.5t-6.5 -12.5t-7 -11t-9 -11.5t-7.5 -10q-103 -135 -103 -316v-16q0 -180 103 -316q26 -35 32 -62z" />
    <glyph glyph-name="parenright" unicode=")" horiz-adv-x="392" 
d="M40 -149q6 27 33 62q102 129 102 316v16q0 192 -103 317q-36 43 -36 71q0 33 22.5 55.5t56.5 22.5q45 0 83 -45q146 -174 146 -429q0 -252 -146 -428q-39 -47 -81 -47q-34 0 -56 21.5t-22 55.5q0 8 1 12z" />
    <glyph glyph-name="asterisk" unicode="*" horiz-adv-x="470" 
d="M174 587v54q0 25 15.5 43.5t47.5 18.5q61 0 61 -53v-62q6 3 20 10.5t22.5 11.5t18 8t15.5 4q19 0 36.5 -19t17.5 -48q0 -15 -5.5 -27t-17.5 -21t-20.5 -13.5t-26.5 -12t-24 -10.5q5 -6 16 -18t17.5 -19t13.5 -16.5t10.5 -17.5t3.5 -15q0 -21 -20.5 -41t-48.5 -20
q-15 0 -29.5 8.5t-22 16t-22 26t-18.5 22.5q-3 -4 -14 -18t-17 -21t-16.5 -16.5t-21 -13.5t-22.5 -4q-29 0 -49.5 20.5t-20.5 41.5q0 18 62 85q-6 3 -25 10.5t-27 12.5t-20.5 14t-17.5 20.5t-5 26.5q0 29 17.5 48t36.5 19q8 0 80 -35z" />
    <glyph glyph-name="plus" unicode="+" horiz-adv-x="585" 
d="M291 559h1q49 0 64.5 -25.5t15.5 -82.5v-61h71q82 0 82 -77t-82 -77h-71v-67q0 -55 -15 -81t-62 -26h-3q-50 0 -64.5 25t-14.5 82v67h-71q-82 0 -82 77t82 77h71v61q0 55 15 81.5t63 26.5z" />
    <glyph glyph-name="comma" unicode="," horiz-adv-x="295" 
d="M146 187q45 0 77 -34.5t32 -88.5q0 -77 -44.5 -129.5t-102.5 -52.5q-28 0 -41 12.5t-13 30.5q40 13 64 38.5t24 58.5q-33 -5 -56 8q-36 20 -36 62q0 41 26.5 68t69.5 27z" />
    <glyph glyph-name="hyphen" unicode="-" horiz-adv-x="460" 
d="M123 377h214q81 0 81 -77t-81 -77h-214q-81 0 -81 77t81 77z" />
    <glyph glyph-name="period" unicode="." horiz-adv-x="295" 
d="M147 186q42 0 70 -25.5t28 -70.5t-28 -70.5t-70 -25.5q-41 0 -69 25.5t-28 70.5t28 70.5t69 25.5z" />
    <glyph glyph-name="slash" unicode="/" horiz-adv-x="439" 
d="M334 709q51 -1 68.5 -30t1.5 -72l-207 -571q-25 -69 -90 -66q-52 2 -69 29t-1 73l204 571q13 37 33.5 52t59.5 14z" />
    <glyph glyph-name="zero" unicode="0" horiz-adv-x="677" 
d="M339 682q62 0 115 -19.5t95.5 -59.5t67 -108t24.5 -157q0 -88 -24.5 -156.5t-67 -109t-96 -61t-114.5 -20.5q-130 0 -217 87t-87 258q0 88 24.5 156.5t67.5 108.5t96.5 60.5t115.5 20.5zM338 501q-52 0 -82 -44t-30 -120q0 -77 29 -121.5t83 -44.5t82.5 44.5t28.5 121.5
q0 76 -29.5 120t-81.5 44z" />
    <glyph glyph-name="one" unicode="1" horiz-adv-x="415" 
d="M127 673h143q49 0 68.5 -22.5t19.5 -69.5v-485q0 -49 -19.5 -72.5t-68.5 -23.5h-34q-92 0 -92 80v424q-49 0 -77.5 23.5t-28.5 63.5q0 82 89 82z" />
    <glyph glyph-name="two" unicode="2" horiz-adv-x="591" 
d="M281 679q117 0 186 -52.5t69 -141.5q0 -44 -12 -78t-48 -74t-72.5 -71t-114.5 -92h176q93 0 93 -83q0 -87 -93 -87h-316q-117 0 -117 99q0 58 70 113q125 99 172 145t47 75q0 31 -28 47.5t-68 16.5q-42 0 -76.5 -17.5t-53.5 -41.5q-63 19 -63 88t69.5 111.5t179.5 42.5z
" />
    <glyph glyph-name="three" unicode="3" horiz-adv-x="609" 
d="M298 680q119 0 186.5 -52t67.5 -134q0 -51 -27 -90t-72 -56q53 -14 89 -52.5t36 -99.5q0 -93 -82.5 -149t-211.5 -56q-116 0 -185.5 30.5t-69.5 84.5q0 74 66 101q25 -20 71 -35t101 -15q45 0 74 16.5t29 45.5q0 25 -26.5 37.5t-67.5 12.5h-47q-29 0 -45.5 13.5
t-16.5 48.5q0 36 16.5 49.5t45.5 13.5h44q84 0 84 52q0 23 -25 39.5t-68 16.5q-78 0 -135 -53q-70 8 -70 94q0 55 62.5 96t176.5 41z" />
    <glyph glyph-name="four" unicode="4" horiz-adv-x="668" 
d="M423 680q131 0 131 -129v-259h20q31 0 50 -18.5t19 -51.5v-18q0 -27 -18 -46.5t-51 -19.5h-20v-56q0 -82 -103 -82q-97 0 -97 91v47h-215q-53 0 -87 24.5t-34 65.5q0 48 29 88l180 255q40 60 82.5 84.5t113.5 24.5zM361 487q-23 -34 -60.5 -98t-60.5 -97h121v195z" />
    <glyph glyph-name="five" unicode="5" horiz-adv-x="595" 
d="M164 673h289q48 0 74.5 -23.5t26.5 -63.5q0 -47 -23.5 -65t-78.5 -18h-195q-1 -16 -2.5 -48t-2.5 -48q29 9 99 9q99 0 156.5 -50.5t57.5 -138.5q0 -107 -86 -171.5t-221 -64.5q-100 0 -164 30.5t-64 90.5q0 74 51 94q21 -22 72.5 -37t101.5 -15q46 0 74.5 21.5t28.5 50.5
q0 64 -106 64q-14 0 -48 -2.5t-45 -2.5h-3q-42 0 -65 20.5t-23 58.5v1q0 39 3.5 118t3.5 118q0 72 89 72z" />
    <glyph glyph-name="six" unicode="6" horiz-adv-x="632" 
d="M356 682q105 0 156.5 -38t51.5 -88q0 -64 -72 -83q-45 42 -129 42q-58 0 -96.5 -38.5t-38.5 -106.5q57 51 158 51q96 0 153 -51t57 -142q0 -100 -70.5 -168.5t-195.5 -68.5q-137 0 -216 82.5t-79 246.5q0 166 86 264t235 98zM321 322q-38 0 -62 -23t-24 -58
q0 -36 22.5 -65t63.5 -29q43 0 65.5 26t22.5 66q0 39 -22 61t-66 22z" />
    <glyph glyph-name="seven" unicode="7" horiz-adv-x="581" 
d="M108 673h331q59 0 89 -17.5t30 -60.5q0 -59 -58 -178l-132 -292q-25 -57 -57 -91t-85 -34h-30q-36 0 -56.5 19.5t-20.5 50.5q0 24 13 50l189 383h-197q-56 0 -81 19t-25 66q0 37 23 61t67 24z" />
    <glyph glyph-name="eight" unicode="8" horiz-adv-x="635" 
d="M318 681q116 0 191.5 -53t75.5 -139q0 -59 -29 -94.5t-70 -48.5q52 -23 84.5 -58.5t32.5 -101.5q0 -86 -75 -141t-210 -55q-134 0 -210 54.5t-76 141.5q0 46 19.5 80t41.5 49.5t55 30.5q-41 13 -69.5 48t-28.5 95q0 87 75.5 139.5t192.5 52.5zM409 203q0 35 -25 55.5
t-66 20.5t-66.5 -20.5t-25.5 -55.5q0 -33 26 -53.5t66 -20.5t65.5 20.5t25.5 53.5zM399 467q0 32 -22.5 51.5t-58.5 19.5t-58.5 -19.5t-22.5 -51.5q0 -33 21 -51.5t60 -18.5q37 0 59 18.5t22 51.5z" />
    <glyph glyph-name="nine" unicode="9" horiz-adv-x="629" 
d="M299 682q135 0 214.5 -83.5t79.5 -246.5q0 -154 -83.5 -257.5t-228.5 -103.5q-121 0 -179.5 37t-58.5 98q0 27 18 49.5t46 34.5q53 -53 151 -53q57 0 100 39t43 99q-70 -44 -150 -44q-97 0 -156.5 50.5t-59.5 140.5q0 99 71.5 169.5t192.5 70.5zM305 520q-40 0 -62.5 -25
t-22.5 -67q0 -83 85 -83q40 0 64.5 21.5t24.5 59.5q0 39 -23 66.5t-66 27.5z" />
    <glyph glyph-name="colon" unicode=":" horiz-adv-x="295" 
d="M147 186q42 0 70 -25.5t28 -70.5t-28 -70.5t-70 -25.5q-41 0 -69 25.5t-28 70.5t28 70.5t69 25.5zM147 515q42 0 70 -25.5t28 -70.5t-28 -70.5t-70 -25.5q-41 0 -69 25.5t-28 70.5t28 70.5t69 25.5z" />
    <glyph glyph-name="semicolon" unicode=";" horiz-adv-x="295" 
d="M146 187q45 0 77 -34.5t32 -88.5q0 -77 -44.5 -129.5t-102.5 -52.5q-28 0 -41 12.5t-13 30.5q40 13 64 38.5t24 58.5q-33 -5 -56 8q-36 20 -36 62q0 41 26.5 68t69.5 27zM147 515q42 0 70 -25.5t28 -70.5t-28 -70.5t-70 -25.5q-41 0 -69 25.5t-28 70.5t28 70.5t69 25.5z
" />
    <glyph glyph-name="less" unicode="&#x3c;" horiz-adv-x="578" 
d="M118 388l322 137l9 3q9 4 21 4q27 0 42.5 -23.5t15.5 -60.5v-12q0 -57 -63 -78l-202 -70v-13l212 -74q24 -7 38.5 -26.5t14.5 -47.5v-12q0 -38 -16 -61t-42 -23q-11 0 -30 7l-322 137q-68 23 -68 94v24q0 38 16 59t52 36z" />
    <glyph glyph-name="equal" unicode="=" horiz-adv-x="609" 
d="M119 451h367q43 0 62 -18.5t19 -61.5q0 -75 -81 -75h-363q-42 0 -61.5 18t-19.5 61q0 76 77 76zM119 233h367q42 0 61.5 -18.5t19.5 -60.5q0 -76 -81 -76h-363q-42 0 -61.5 18t-19.5 61q0 76 77 76z" />
    <glyph glyph-name="greater" unicode="&#x3e;" horiz-adv-x="577" 
d="M131 528l329 -140q36 -18 51.5 -38t15.5 -57v-24q0 -39 -15.5 -59t-51.5 -35l-323 -137q-23 -9 -29 -9q-25 0 -41.5 25t-16.5 63v10q0 56 62 78l203 70v13q-165 57 -212 74q-24 6 -38.5 26t-14.5 48v10q0 37 16.5 62.5t41.5 25.5q10 0 23 -6z" />
    <glyph glyph-name="question" unicode="?" horiz-adv-x="546" 
d="M261 686q109 0 177 -51t68 -130q0 -26 -9 -51.5t-16 -40t-31.5 -39.5t-28.5 -28.5t-34 -28.5q-6 -6 -9 -8t-15 -12.5t-15.5 -13.5t-14.5 -11t-16 -11t-14.5 -8.5t-16.5 -7.5t-16 -4t-17 -2h-3q-87 0 -87 59q0 37 23 61t62 46q39 23 53 35t14 27q0 23 -24 37.5t-62 14.5
q-83 0 -131 -48q-53 21 -53 79q0 63 67.5 99.5t148.5 36.5zM251 186q44 0 74.5 -24t30.5 -75q0 -52 -30 -75.5t-75 -23.5q-44 0 -74 23.5t-30 75.5q0 51 30.5 75t73.5 24z" />
    <glyph glyph-name="at" unicode="@" horiz-adv-x="727" 
d="M412 216q-10 -24 -33.5 -39t-53.5 -15q-64 0 -104.5 42t-40.5 125t37.5 128.5t94.5 45.5q40 0 70 -35q26 37 64 37q42 0 58.5 -18t16.5 -63v-114q0 -48 35 -48q46 0 46 72q0 67 -20 118t-54.5 80.5t-75.5 43.5t-88 14q-101 0 -169.5 -62.5t-68.5 -193.5q0 -68 20.5 -119
t55.5 -79t74.5 -41.5t83.5 -13.5q56 0 92.5 16t38.5 40q55 -2 55 -50q0 -40 -50.5 -66.5t-136.5 -26.5q-49 0 -94.5 10.5t-88.5 36t-75 63t-51.5 97t-19.5 133.5q0 91 29 160.5t77.5 108.5t106 58t121.5 19t121 -19t106 -58.5t78 -108.5t29 -160q0 -79 -42 -125.5
t-113 -46.5q-50 0 -78 14t-53 40zM402 305v32v10.5v11t-0.5 10t-1.5 10.5t-2.5 9t-4.5 8.5t-7 6.5t-9 5.5t-12 3t-15 1.5q-25 0 -41 -19.5t-16 -61.5q0 -79 58 -79q21 0 36 17.5t15 34.5z" />
    <glyph glyph-name="A" unicode="A" horiz-adv-x="692" 
d="M335 674h22q58 0 95.5 -29t54.5 -78q94 -277 139 -454q9 -39 9 -50q0 -63 -84 -63h-26q-25 0 -42.5 7.5t-28 16.5t-19 31.5t-12 38t-10.5 50.5l-3 15h-168q-11 -52 -16.5 -74t-18.5 -46t-31.5 -31.5t-48.5 -7.5h-26q-84 0 -84 57q0 22 9 56q58 229 139 454
q39 107 150 107zM346 508q-31 -67 -62 -211h124q-26 124 -62 211z" />
    <glyph glyph-name="B" unicode="B" horiz-adv-x="646" 
d="M149 673h189q120 0 184.5 -46t64.5 -129q0 -47 -26 -85.5t-64 -54.5q47 -10 84 -49t37 -107q0 -96 -74.5 -149t-193.5 -53h-201q-46 0 -65 18t-19 61v513q0 43 19.5 62t64.5 19zM250 526v-128h81q81 0 81 65q0 63 -84 63h-78zM250 284v-136h89q91 0 91 70q0 66 -89 66
h-91z" />
    <glyph glyph-name="C" unicode="C" horiz-adv-x="638" 
d="M370 682q108 0 172.5 -45t64.5 -110q0 -41 -29.5 -64t-73.5 -26q-27 70 -129 70q-69 0 -108.5 -46.5t-39.5 -126.5t41 -125t107 -45q92 0 133 70q42 -4 73 -29.5t31 -65.5q0 -63 -67 -105.5t-170 -42.5q-68 0 -127.5 20.5t-107.5 61t-76 107.5t-28 154t27 154.5t73.5 109
t105.5 63t128 21.5z" />
    <glyph glyph-name="D" unicode="D" horiz-adv-x="694" 
d="M149 673h163q169 0 258 -84.5t89 -250.5t-89 -252t-258 -86h-163q-46 0 -65 18.5t-19 60.5v514q0 43 19.5 61.5t64.5 18.5zM250 504v-335h84q66 0 106 44.5t40 122.5q0 79 -40 123.5t-106 44.5h-84z" />
    <glyph glyph-name="E" unicode="E" horiz-adv-x="578" 
d="M150 673h314q77 0 77 -83t-77 -83h-213v-99h165q38 0 57.5 -14.5t19.5 -52.5t-19.5 -52.5t-57.5 -14.5h-165v-109h220q77 0 77 -82q0 -83 -77 -83h-321q-47 0 -66 18t-19 61v513q0 43 19.5 62t65.5 19z" />
    <glyph glyph-name="F" unicode="F" horiz-adv-x="566" 
d="M150 673h320q36 0 56.5 -21.5t20.5 -63.5q0 -80 -77 -80h-219v-108h182q82 0 82 -77q0 -78 -82 -78h-182v-166q0 -42 -19.5 -60.5t-65.5 -18.5h-16q-47 0 -66 18t-19 61v513q0 43 19.5 62t65.5 19z" />
    <glyph glyph-name="G" unicode="G" horiz-adv-x="683" 
d="M359 682q109 0 175.5 -40.5t66.5 -107.5q0 -32 -23 -56t-63 -29q-24 28 -55 42.5t-91 14.5q-67 0 -108.5 -45.5t-41.5 -126.5q0 -84 41.5 -127t110.5 -43q54 0 84.5 27t30.5 61q0 10 -12 10h-57q-28 0 -44.5 17t-16.5 46t16 45t45 16h163q30 0 52.5 -20.5t22.5 -51.5v-45
q0 -50 -18 -97.5t-52 -88.5t-92.5 -66.5t-132.5 -25.5q-63 0 -120 19.5t-105.5 58.5t-77.5 108t-29 159q0 91 29.5 160t78.5 108.5t105.5 58.5t117.5 19z" />
    <glyph glyph-name="H" unicode="H" horiz-adv-x="730" 
d="M150 673h16q46 0 65.5 -19t19.5 -62v-173h228v173q0 43 19.5 62t64.5 19h17q45 0 64.5 -19t19.5 -62v-513q0 -42 -19.5 -60.5t-64.5 -18.5h-17q-46 0 -65 18.5t-19 60.5v184h-228v-184q0 -42 -19.5 -60.5t-65.5 -18.5h-16q-47 0 -66 18t-19 61v513q0 43 19.5 62t65.5 19z
" />
    <glyph glyph-name="I" unicode="I" horiz-adv-x="316" 
d="M150 673h16q46 0 65.5 -19t19.5 -62v-513q0 -42 -19.5 -60.5t-65.5 -18.5h-16q-47 0 -66 18t-19 61v513q0 43 19.5 62t65.5 19z" />
    <glyph glyph-name="J" unicode="J" horiz-adv-x="371" 
d="M208 673h17q45 0 64.5 -19t19.5 -62v-518q0 -149 -55 -223t-171 -74q-74 0 -115 34t-41 82t30 72q24 -30 85 -30q81 0 81 94v563q0 43 19.5 62t65.5 19z" />
    <glyph glyph-name="K" unicode="K" horiz-adv-x="672" 
d="M149 673h17q49 0 66.5 -22t17.5 -74v-184q24 26 42.5 49t36.5 48.5t25.5 37t26 42t22.5 36.5q21 34 49 50.5t79 16.5h32q25 0 39.5 -13t14.5 -33q0 -10 -5 -22q-54 -110 -197 -244q47 -47 71 -71.5t66 -77t73 -105.5q18 -32 18 -62q0 -20 -15 -32.5t-42 -12.5h-75
q-46 0 -72 46q-15 27 -38 62t-67 90t-84 89v-179q0 -54 -17 -81t-67 -27h-17q-52 0 -68 21t-16 73v483q0 52 17.5 74t66.5 22z" />
    <glyph glyph-name="L" unicode="L" horiz-adv-x="561" 
d="M150 673h16q46 0 65.5 -19t19.5 -62v-422h216q36 0 56.5 -21.5t20.5 -63.5t-20.5 -63.5t-56.5 -21.5h-317q-47 0 -66 18t-19 61v513q0 43 19.5 62t65.5 19z" />
    <glyph glyph-name="M" unicode="M" horiz-adv-x="859" 
d="M154 673h44q33 0 56.5 -11t39 -35.5t23 -42.5t19.5 -54q72 -220 93 -277q9 24 92 277q12 37 19.5 54.5t23.5 42.5t39.5 35.5t56.5 10.5h45q50 0 69 -24t19 -76q0 -83 0.5 -247t0.5 -247q0 -43 -19 -61t-66 -18h-6q-44 0 -64 19t-20 60q0 179 1 295q-9 -29 -71 -214
q-16 -45 -45.5 -70.5t-65.5 -25.5h-20q-37 0 -67.5 26t-44.5 71q-9 30 -32 100.5t-35 112.5q0 -58 0.5 -147.5t0.5 -147.5q0 -42 -19.5 -60.5t-64.5 -18.5h-7q-46 0 -65 18.5t-19 60.5q0 85 1 255t1 255q0 44 20.5 64t66.5 20z" />
    <glyph glyph-name="N" unicode="N" horiz-adv-x="735" 
d="M150 673h35q55 0 94 -58l215 -310v287q0 44 18.5 62.5t63.5 18.5h11q45 0 64 -18.5t19 -62.5v-510q0 -43 -20 -62.5t-65 -19.5h-19q-66 0 -107 57l-223 306v-284q0 -43 -18 -61t-63 -18h-7q-46 0 -64.5 18t-18.5 61v510q0 44 20 64t65 20z" />
    <glyph glyph-name="O" unicode="O" horiz-adv-x="733" 
d="M366 682q61 0 117 -18.5t105.5 -57.5t79.5 -109t30 -162t-30 -161t-79.5 -107.5t-105.5 -57t-116 -18.5q-61 0 -117 18.5t-106 57t-80 107.5t-30 161t30 162t79.5 109t105.5 57.5t117 18.5zM366 508q-59 0 -100.5 -42.5t-41.5 -129.5q0 -88 41.5 -130.5t100.5 -42.5
t100.5 42.5t41.5 130.5t-41.5 130t-100.5 42z" />
    <glyph glyph-name="P" unicode="P" horiz-adv-x="619" 
d="M150 673h182q122 0 187.5 -59t65.5 -167q0 -107 -65.5 -166t-187.5 -59h-81v-143q0 -42 -19.5 -60.5t-65.5 -18.5h-16q-47 0 -66 18t-19 61v513q0 43 19.5 62t65.5 19zM251 514v-148h71q38 0 61 18.5t23 55.5t-23 55.5t-61 18.5h-71z" />
    <glyph glyph-name="Q" unicode="Q" horiz-adv-x="758" 
d="M366 682q61 0 117 -18.5t105.5 -57.5t79.5 -109t30 -162q0 -197 -139 -290q42 -30 133 -30q16 0 22 1q0 -56 -31 -99t-87 -43q-99 0 -183 121q-30 -4 -47 -4q-61 0 -117 18.5t-105.5 57t-79.5 107.5t-30 161t30 162t79.5 109t105.5 57.5t117 18.5zM366 508
q-59 0 -100.5 -42.5t-41.5 -130.5q0 -87 42 -129.5t100 -42.5q59 0 100.5 42.5t41.5 129.5q0 88 -41.5 130.5t-100.5 42.5z" />
    <glyph glyph-name="R" unicode="R" horiz-adv-x="667" 
d="M250 516v-144h88q38 0 63 19t25 53q0 36 -24 54t-64 18h-88zM149 673h202q118 0 187.5 -57.5t69.5 -161.5q0 -78 -40.5 -122t-94.5 -59q30 -52 77 -101.5t93 -69.5q-4 -41 -32 -75t-78 -34q-26 0 -49.5 9t-43.5 27t-35.5 36t-32 46.5t-25.5 46.5t-23 48t-19 40h-55v-167
q0 -43 -19.5 -61t-65.5 -18h-14q-55 0 -70.5 16t-15.5 61v515q0 43 19.5 62t64.5 19z" />
    <glyph glyph-name="S" unicode="S" horiz-adv-x="596" 
d="M303 682q106 0 170.5 -32t64.5 -92q0 -26 -14.5 -49.5t-40.5 -35.5q-77 49 -169 49q-39 0 -59.5 -14.5t-20.5 -37.5q0 -20 18.5 -31.5t56.5 -20.5q144 -34 200 -81.5t56 -129.5q0 -93 -77.5 -154.5t-204.5 -61.5q-106 0 -179 33.5t-73 87.5q0 66 59 93q20 -21 78 -43
t119 -22q38 0 61 15t23 39q0 22 -23 35.5t-79 24.5q-114 23 -170.5 73t-56.5 139q0 97 72.5 156.5t188.5 59.5z" />
    <glyph glyph-name="T" unicode="T" horiz-adv-x="620" 
d="M101 673h418q77 0 77 -83q0 -42 -20.5 -63t-56.5 -21h-116v-427q0 -42 -19.5 -60.5t-65.5 -18.5h-17q-46 0 -65 18.5t-19 60.5v427h-116q-36 0 -56.5 21t-20.5 63q0 83 77 83z" />
    <glyph glyph-name="U" unicode="U" horiz-adv-x="699" 
d="M140 673h14q46 0 66 -19t20 -63v-318q0 -122 110 -122t110 122v318q0 44 19.5 63t65.5 19h14q87 0 87 -82v-277q0 -48 -5 -86.5t-23 -84.5t-48.5 -76.5t-86.5 -51.5t-133 -21t-133 21t-86.5 51.5t-48.5 76.5t-23 84.5t-5 86.5v277q0 82 86 82z" />
    <glyph glyph-name="V" unicode="V" horiz-adv-x="694" 
d="M26 616q0 57 85 57h40q44 0 65 -18t30 -58q3 -15 14.5 -72t17.5 -84.5t17 -76t24 -91t28 -85.5q12 36 23 75.5t18.5 68t17.5 72.5t14 64t14 68.5t12 60.5q8 40 31 58t64 18h40q86 0 86 -57q0 -21 -11 -57q-11 -35 -40 -137t-53 -172.5t-56 -135.5q-26 -53 -60 -84.5
t-88 -31.5h-26q-55 0 -88.5 31.5t-59.5 84.5q-94 195 -154 461q-5 25 -5 41z" />
    <glyph glyph-name="W" unicode="W" horiz-adv-x="888" 
d="M444 307q-3 -12 -9.5 -42t-8 -38t-6.5 -30t-7.5 -30t-7 -24.5t-8 -26.5t-8.5 -23t-11 -27q-28 -66 -99 -66h-11q-24 0 -41.5 3t-38.5 12.5t-38 32.5t-28 58q-57 176 -100 452q-3 19 -3 46q0 30 23 49.5t61 19.5h16q41 0 67.5 -18.5t31.5 -55.5q1 -9 10 -87t20.5 -162.5
t25.5 -160.5q40 186 68 331q18 94 96 94h12q78 0 96 -94q28 -145 68 -331q14 76 25.5 160.5t20.5 162.5t10 87q5 37 31.5 55.5t67.5 18.5h16q38 0 61 -19.5t23 -49.5q0 -27 -3 -46q-43 -276 -100 -452q-11 -35 -28 -58t-38 -32.5t-38.5 -12.5t-41.5 -3h-11q-71 0 -99 66
q-6 14 -11 27t-8.5 23t-8 26.5t-7 24.5t-7.5 30t-6.5 30t-8 38t-9.5 42z" />
    <glyph glyph-name="X" unicode="X" horiz-adv-x="665" 
d="M97 673h43q48 0 74 -15t51 -58q10 -17 37 -76.5t42 -84.5q48 77 77 160q14 39 32 56.5t47 17.5h61q68 0 68 -48q0 -39 -47 -125.5t-112 -158.5l160 -257q11 -18 11 -36q0 -22 -17.5 -35t-49.5 -13h-50q-39 0 -61.5 13t-41.5 42q-17 25 -51.5 90t-47.5 86
q-44 -59 -90 -163q-16 -38 -42 -53t-72 -15h-42q-21 0 -38 11.5t-17 33.5q0 74 168 295l-151 249q-11 18 -11 35q0 21 18.5 35t51.5 14z" />
    <glyph glyph-name="Y" unicode="Y" horiz-adv-x="639" 
d="M100 673h39q64 0 81 -57q53 -170 97 -253h4q39 65 92 243q12 38 33 52.5t60 14.5h42q64 0 64 -54q0 -20 -13 -56q-69 -184 -184 -347v-111q0 -53 -17.5 -79t-67.5 -26h-24q-51 0 -67.5 26t-16.5 79v114q-126 177 -188 357q-8 21 -8 43q0 25 20 39.5t54 14.5z" />
    <glyph glyph-name="Z" unicode="Z" horiz-adv-x="678" 
d="M132 673h364q117 0 117 -108q0 -7 -1.5 -15.5t-4 -15t-7 -15.5t-7.5 -14t-9.5 -14.5t-9.5 -13t-10.5 -14t-9.5 -12.5q-15 -17 -71.5 -83t-95.5 -110t-73 -80v-11h221q47 0 70.5 -19t23.5 -65q0 -42 -21 -62.5t-56 -20.5h-382q-64 0 -90.5 21.5t-26.5 70.5q0 44 60 115
l248 286l1 12h-230q-77 0 -77 84q0 42 20.5 63t56.5 21z" />
    <glyph glyph-name="bracketleft" unicode="[" horiz-adv-x="373" 
d="M139 711h116q80 0 80 -78q0 -81 -80 -81h-30v-624h30q42 0 61 -18.5t19 -59.5q0 -81 -80 -81h-116q-47 0 -67.5 19.5t-20.5 60.5v784q0 39 20.5 58.5t67.5 19.5z" />
    <glyph glyph-name="backslash" unicode="\" horiz-adv-x="439" 
d="M105 709q39 1 59.5 -14t33.5 -52l204 -571q34 -98 -70 -102q-65 -3 -90 66l-206 571q-16 43 1 71.5t68 30.5z" />
    <glyph glyph-name="bracketright" unicode="]" horiz-adv-x="373" 
d="M118 711h116q47 0 67.5 -19.5t20.5 -60.5v-784q0 -39 -20.5 -58.5t-67.5 -19.5h-116q-80 0 -80 78q0 42 19.5 61.5t60.5 19.5h30v624h-30q-41 0 -60.5 19t-19.5 59q0 81 80 81z" />
    <glyph glyph-name="asciicircum" unicode="^" horiz-adv-x="457" 
d="M231 567q-2 -2 -13 -19.5t-15.5 -23.5t-15.5 -21t-19.5 -22t-20 -16t-24 -12.5t-25.5 -3.5h-11q-40 0 -56.5 17t-1.5 37q23 30 58 69t50 58q33 42 82 42h23q49 0 82 -42q15 -19 50 -58t58 -69q15 -20 -1.5 -37t-56.5 -17h-11q-13 0 -25.5 4t-24 12.5t-20 15.5t-19 21.5
t-15.5 21.5t-15 23t-13 20z" />
    <glyph glyph-name="underscore" unicode="_" horiz-adv-x="546" 
d="M97 -13h353q81 0 81 -77q0 -78 -81 -78h-353q-81 0 -81 78q0 77 81 77z" />
    <glyph glyph-name="a" unicode="a" horiz-adv-x="543" 
d="M257 528q123 0 177 -58t54 -164v-122q0 -94 41 -111q-5 -30 -29 -53.5t-70 -23.5q-72 0 -94 75l-2 1q-13 -29 -48 -53t-91 -24q-74 0 -123.5 42t-49.5 117q0 77 57.5 120.5t142.5 43.5q36 0 109 -15v12q0 63 -104 63q-78 0 -128 -36q-47 20 -47 76q0 47 55.5 78.5
t149.5 31.5zM256 224q-32 0 -53.5 -13.5t-21.5 -40.5q0 -24 19 -37.5t49 -13.5q36 0 59 24.5t23 56.5v9q-30 15 -75 15z" />
    <glyph glyph-name="b" unicode="b" horiz-adv-x="579" 
d="M125 714h5q45 0 64.5 -18.5t19.5 -61.5v-175q16 26 52 44.5t82 18.5q93 0 145.5 -60t52.5 -183q0 -134 -78 -211.5t-186 -77.5q-96 0 -165 38q-38 21 -57 46t-19 75v485q0 43 19.5 61.5t64.5 18.5zM290 376q-34 0 -55 -25t-21 -70v-125q29 -17 67 -17q39 0 65.5 28.5
t26.5 91.5q0 117 -83 117z" />
    <glyph glyph-name="c" unicode="c" horiz-adv-x="503" 
d="M289 532q90 0 138.5 -37.5t48.5 -88.5q0 -32 -25 -53.5t-66 -21.5q-27 41 -86 41q-49 0 -77.5 -29.5t-28.5 -84.5t28.5 -84.5t77.5 -29.5q66 0 97 38q36 -1 60.5 -23t24.5 -52q0 -49 -53 -82.5t-134 -33.5q-112 0 -192 67.5t-80 199.5q0 134 78 204t189 70z" />
    <glyph glyph-name="d" unicode="d" horiz-adv-x="593" 
d="M462 720h4q44 0 64 -19.5t20 -60.5v-562q0 -42 -19 -60t-65 -18h-6q-41 0 -61.5 16t-20.5 42v18q-17 -33 -53 -56.5t-85 -23.5q-95 0 -152.5 64.5t-57.5 200.5q0 135 57.5 200t152.5 65q44 0 82 -19t55 -46v179q0 43 19.5 61.5t65.5 18.5zM295 378q-86 0 -86 -118
q0 -114 85 -114q38 0 59.5 32t21.5 85v16q0 50 -23 74.5t-57 24.5z" />
    <glyph glyph-name="e" unicode="e" horiz-adv-x="516" 
d="M284 528q97 0 153 -51t56 -126t-52.5 -113.5t-132.5 -38.5t-129 23q0 -41 40 -65t99 -24q77 0 120 41q19 -7 32.5 -28t13.5 -44q0 -35 -30.5 -61t-73 -37.5t-87.5 -11.5q-123 0 -197 66.5t-74 195.5q0 130 73.5 202t188.5 72zM276 393q-32 0 -57 -22t-28 -59
q27 -20 99 -20q62 0 62 49q0 22 -21.5 37t-54.5 15z" />
    <glyph glyph-name="f" unicode="f" horiz-adv-x="434" 
d="M304 722q63 0 105 -24.5t42 -69.5q0 -25 -12.5 -47.5t-30.5 -30.5q-22 19 -64 19q-31 0 -50.5 -18t-19.5 -55v-8h74q39 0 57 -17.5t18 -57.5t-17.5 -53.5t-57.5 -13.5h-71v-268q0 -43 -19 -61t-65 -18h-4q-47 0 -65.5 18t-18.5 61v268h-29q-30 0 -46.5 17.5t-16.5 49.5
q0 75 63 75h28v45q0 95 56 142t144 47z" />
    <glyph glyph-name="g" unicode="g" horiz-adv-x="543" 
d="M426 593q49 0 76 -22t27 -60q0 -28 -20.5 -50.5t-47.5 -34.5q27 -27 27 -84q0 -94 -66.5 -137.5t-159.5 -43.5q-2 0 -6.5 0.5t-6.5 0.5q-19 0 -33.5 -5.5t-14.5 -13.5q0 -18 34 -18h83q103 0 156.5 -32t53.5 -109q0 -83 -75.5 -135t-188.5 -52h-19q-99 0 -165.5 32.5
t-66.5 90.5q0 43 31.5 62t96.5 19q-1 -4 -1 -12q0 -66 121 -66h3q114 0 114 40q0 34 -68 34q-70 0 -115 3.5t-83.5 14t-56.5 31.5t-18 54q0 65 90 90q-92 44 -92 154q0 87 66.5 135.5t162.5 48.5q65 0 123 -35q31 35 39 100zM262 411q-30 0 -49.5 -17.5t-19.5 -54.5
q0 -36 20 -54t49 -18t49 18t20 54q0 37 -19.5 54.5t-49.5 17.5z" />
    <glyph glyph-name="h" unicode="h" horiz-adv-x="565" 
d="M126 714h2q46 0 66 -18.5t20 -61.5v-220q16 47 52.5 80.5t98.5 33.5q71 0 117 -47.5t46 -148.5v-252q0 -43 -19.5 -61.5t-65.5 -18.5h-8q-81 0 -81 80v203q0 77 -65 77q-35 0 -55 -31.5t-20 -84.5v-165q0 -42 -19.5 -60.5t-64.5 -18.5h-4q-47 0 -66 18t-19 61v555
q0 43 20 61.5t65 18.5z" />
    <glyph glyph-name="i" unicode="i" horiz-adv-x="275" 
d="M135 522h2q46 0 66 -18.5t20 -61.5v-363q0 -42 -19.5 -60.5t-64.5 -18.5h-4q-46 0 -65 18.5t-19 60.5v363q0 43 19.5 61.5t64.5 18.5zM137 753q41 0 67 -22.5t26 -65.5t-26 -65t-67 -22t-67 22t-26 65t26 65.5t67 22.5z" />
    <glyph glyph-name="j" unicode="j" horiz-adv-x="288" 
d="M144 522h10q83 0 83 -81v-408q0 -120 -41 -180.5t-130 -60.5q-69 0 -104.5 29.5t-35.5 81.5q0 32 14 49q27 -9 49 -9q75 0 75 89v392q0 53 18 75.5t62 22.5zM151 766q40 0 67 -25.5t27 -68.5t-27 -68.5t-67 -25.5q-41 0 -68 25.5t-27 68.5t27 68.5t68 25.5z" />
    <glyph glyph-name="k" unicode="k" horiz-adv-x="541" 
d="M126 714q52 0 70 -21.5t18 -73.5v-293q33 35 62.5 77.5t43.5 64.5t39 38t59 16h43q27 0 43.5 -11t16.5 -30q0 -27 -46.5 -82.5t-116.5 -111.5q63 -63 115.5 -135.5t52.5 -106.5q0 -20 -16.5 -32.5t-43.5 -12.5h-33q-74 0 -105 51q-8 14 -28 48.5t-30 51.5t-26 39t-30 35
v-120q0 -53 -17.5 -79t-66.5 -26h-4q-52 0 -68 20t-16 73v526q0 52 17.5 73.5t66.5 21.5z" />
    <glyph glyph-name="l" unicode="l" horiz-adv-x="263" 
d="M130 714h2q46 0 66 -18.5t20 -61.5v-555q0 -42 -19.5 -60.5t-64.5 -18.5h-4q-47 0 -66 18t-19 61v555q0 43 19.5 61.5t65.5 18.5z" />
    <glyph glyph-name="m" unicode="m" horiz-adv-x="848" 
d="M123 522q53 0 72 -20t19 -79q16 40 56.5 72.5t89.5 32.5q102 0 134 -106q43 106 149 106q73 0 121.5 -49t48.5 -150v-237q0 -51 -17.5 -71.5t-65.5 -20.5h-9q-45 0 -62.5 20.5t-17.5 71.5v201q0 73 -55 73q-65 0 -65 -108v-167q0 -50 -18 -70.5t-65 -20.5h-10
q-46 0 -64 20.5t-18 71.5v201q0 73 -63 73q-41 0 -54.5 -27t-13.5 -81v-155q0 -50 -18.5 -76.5t-65.5 -26.5h-9q-50 0 -65.5 20t-15.5 73v348q0 45 18.5 63t63.5 18z" />
    <glyph glyph-name="n" unicode="n" horiz-adv-x="563" 
d="M126 522h2q46 0 66 -18.5t20 -61.5v-24q16 45 53 78t98 33q70 0 116.5 -48t46.5 -149v-252q0 -43 -19.5 -61.5t-65.5 -18.5h-8q-81 0 -81 80v209q0 75 -65 75q-34 0 -54.5 -30t-20.5 -83v-172q0 -42 -19.5 -60.5t-64.5 -18.5h-4q-47 0 -66 18t-19 61v363q0 43 20 61.5
t65 18.5z" />
    <glyph glyph-name="o" unicode="o" 
d="M285 529q48 0 93 -16t83.5 -48t62 -85t23.5 -121q0 -67 -23.5 -120t-62 -83.5t-83.5 -46t-93 -15.5t-93 15.5t-84 46t-62.5 83.5t-23.5 120t23.5 121t62.5 85t84 47.5t93 16.5zM284 379q-41 0 -65.5 -29t-24.5 -88t24.5 -88.5t65.5 -29.5t65.5 29t24.5 89q0 59 -24.5 88
t-65.5 29z" />
    <glyph glyph-name="p" unicode="p" horiz-adv-x="593" 
d="M125 522h6q40 0 61 -16.5t21 -42.5v-15q16 32 52.5 55.5t84.5 23.5q96 0 153.5 -65.5t57.5 -202.5q0 -135 -58.5 -198.5t-153.5 -63.5q-41 0 -79.5 17t-56.5 43v-173q0 -44 -19 -62.5t-65 -18.5h-4q-45 0 -64.5 19.5t-19.5 61.5v559q0 42 19 60.5t65 18.5zM296 376
q-39 0 -60 -34t-21 -92q0 -27 1.5 -41.5t8.5 -32.5t24 -25.5t45 -7.5q88 0 88 117q0 116 -86 116z" />
    <glyph glyph-name="q" unicode="q" horiz-adv-x="593" 
d="M311 531q93 0 165 -31q38 -17 56.5 -41.5t18.5 -73.5v-503q0 -43 -19.5 -62t-64.5 -19h-4q-46 0 -65.5 19t-19.5 62v181q-16 -27 -52 -45t-82 -18q-91 0 -144 61t-53 182q0 96 38.5 163t96.5 96t129 29zM312 383q-39 0 -66 -29.5t-27 -93.5q0 -115 86 -115q37 0 55 26
t18 69v126q-26 17 -66 17z" />
    <glyph glyph-name="r" unicode="r" horiz-adv-x="433" 
d="M125 522q46 0 66 -22.5t20 -71.5q24 48 50 73t69 25q40 0 65 -20t25 -63q0 -58 -28 -96q-36 15 -76 15q-102 0 -102 -151v-111q0 -51 -18 -75.5t-66 -24.5h-5q-51 0 -67.5 19.5t-16.5 70.5v340q0 49 18.5 70.5t65.5 21.5z" />
    <glyph glyph-name="s" unicode="s" horiz-adv-x="476" 
d="M257 528q84 0 133 -28t49 -75t-45 -68q-38 29 -102 29q-81 0 -81 -35q0 -4 1.5 -7t5.5 -6t8 -5t11 -4.5t13 -4.5t15.5 -4.5t17 -4t19 -4.5t19.5 -5q75 -19 105.5 -54.5t30.5 -94.5q0 -77 -66 -120.5t-161 -43.5t-152.5 25t-57.5 71q0 62 43 76q17 -16 54.5 -29t80.5 -13
q84 0 84 39q0 7 -5 12t-18 9.5t-24.5 7.5t-36 9t-41.5 10q-66 17 -93.5 52t-27.5 98q0 77 63.5 122.5t157.5 45.5z" />
    <glyph glyph-name="t" unicode="t" horiz-adv-x="443" 
d="M182 625h11q81 0 81 -82v-49h63q42 0 62.5 -19.5t20.5 -51.5q0 -42 -22 -56.5t-72 -14.5h-52v-136q0 -42 15.5 -57.5t47.5 -15.5q36 0 65 16q18 -24 18 -71q0 -45 -41 -68.5t-110 -23.5q-79 0 -123 46.5t-44 139.5v170h-26q-28 0 -47 17.5t-19 53.5q0 71 73 71h19v39
q0 46 18.5 69t61.5 23z" />
    <glyph glyph-name="u" unicode="u" horiz-adv-x="567" 
d="M122 522h8q45 0 63 -26.5t18 -79.5v-164q0 -104 66 -104q41 0 57.5 36.5t16.5 104.5v127q0 53 17.5 79.5t67.5 26.5h4q50 0 67 -20.5t17 -72.5v-335q0 -53 -17.5 -73.5t-67.5 -20.5t-69 20t-19 67v11q-15 -45 -56 -74t-109 -29q-65 0 -107 48.5t-42 146.5v239
q0 50 18.5 71.5t66.5 21.5z" />
    <glyph glyph-name="v" unicode="v" horiz-adv-x="558" 
d="M86 522h34q67 0 79 -56q3 -12 10 -45.5t9.5 -45.5t9 -39t10.5 -41.5t11 -38t14 -44.5t16 -44q21 53 36 104.5t22.5 86.5t20.5 107q10 56 78 56h35q32 0 52 -12t20 -36q0 -6 -6 -36q-35 -165 -125 -354q-40 -84 -126 -84h-15q-85 0 -126 84q-86 173 -127 366q-4 16 -4 24
q0 48 72 48z" />
    <glyph glyph-name="w" unicode="w" horiz-adv-x="726" 
d="M81 522h29q35 0 53.5 -18t26.5 -53q3 -21 8 -61t12 -86.5t18 -105.5h4q10 43 24 115.5t22 105.5q14 60 79 60h8q67 0 80 -60l51 -221h4q13 77 24 160.5t12 92.5q8 35 26.5 53t53.5 18h28q30 0 48 -13t18 -38q0 -18 -2 -36q0 -3 -5 -36t-10.5 -64.5t-13.5 -74.5t-19 -86.5
t-24 -78.5q-35 -95 -118 -95h-17q-40 0 -61 19.5t-37 57.5q-29 67 -42 123q-14 -69 -39 -123q-17 -38 -38.5 -57.5t-58.5 -19.5h-17q-69 0 -96 47q-58 103 -94 388q0 3 -1 9t-1.5 10.5t-0.5 6.5q0 61 66 61z" />
    <glyph glyph-name="x" unicode="x" horiz-adv-x="550" 
d="M75 522h71q72 0 93 -51q9 -22 23 -61t26 -71q32 54 62 135q9 26 23.5 37t45.5 11h53q59 0 59 -42q0 -17 -7 -37q-9 -23 -45.5 -80.5t-77.5 -109.5q18 -32 56.5 -84t55.5 -82q19 -33 19 -46q0 -17 -12 -29t-37 -12h-71q-74 0 -101 57q-16 35 -42 123q-15 -28 -38 -76.5
t-26 -54.5q-26 -49 -79 -49h-46q-60 0 -60 42q0 14 12 42q31 79 115 176q-17 29 -57.5 90t-59.5 94q-13 23 -13 42q0 36 58 36z" />
    <glyph glyph-name="y" unicode="y" horiz-adv-x="563" 
d="M87 522h33q64 0 78 -56l3 -12q4 -17 20.5 -86t30 -119.5t29.5 -99.5q53 170 81 317q11 56 78 56h32q72 0 72 -48q0 -2 -8 -37q-66 -280 -190 -555q-17 -38 -37 -60.5t-52 -22.5h-46q-29 0 -46 14.5t-17 40.5q0 18 13 46t32.5 62t25.5 46h-1q-44 12 -77 74q-30 57 -54 124
t-36 112.5t-32 131.5q-4 16 -4 24q0 48 72 48z" />
    <glyph glyph-name="z" unicode="z" horiz-adv-x="496" 
d="M98 518h256q62 0 88 -23t26 -72q0 -50 -44 -91l-187 -172v-2l151 -1q46 0 68.5 -16t22.5 -61q0 -47 -19.5 -63.5t-63.5 -16.5h-278q-51 0 -73 21t-22 67q0 36 30 71q34 40 104 106t90 87v7h-149q-35 0 -51.5 19.5t-16.5 67.5q0 31 18 51.5t50 20.5z" />
    <glyph glyph-name="braceleft" unicode="{" horiz-adv-x="465" 
d="M46 227v24q0 70 72 70q38 0 38 78v171q0 78 42.5 110t135.5 32h13q76 0 76 -74q0 -31 -15 -44.5t-32.5 -13t-32.5 -10t-15 -35.5v-178q0 -35 -13.5 -59.5t-30 -35t-45.5 -23.5q43 -18 66 -43.5t23 -77.5v-173q0 -38 14 -38q81 0 81 -65q0 -40 -19 -56.5t-57 -16.5h-13
q-94 0 -136 34t-42 115v177q0 63 -38 63q-72 0 -72 69z" />
    <glyph glyph-name="bar" unicode="|" horiz-adv-x="278" 
d="M137 716h2q45 0 62 -21t17 -66v-670q0 -44 -17 -65t-60 -21h-4q-45 0 -61 20.5t-16 65.5v670q0 45 16.5 66t60.5 21z" />
    <glyph glyph-name="braceright" unicode="}" horiz-adv-x="465" 
d="M423 251v-24q0 -69 -72 -69q-38 0 -38 -63v-177q0 -81 -42 -115t-136 -34h-13q-38 0 -57 16.5t-19 56.5q0 65 81 65q14 0 14 38v173q0 52 23 77.5t66 43.5q-29 13 -45.5 23.5t-30 35t-13.5 59.5v178q0 25 -15 35.5t-32.5 10t-32.5 13t-15 44.5q0 74 76 74h13
q93 0 135.5 -32t42.5 -110v-171q0 -78 38 -78q72 0 72 -70z" />
    <glyph glyph-name="asciitilde" unicode="~" horiz-adv-x="509" 
d="M151 492q46 0 119 -27q52 -19 99 -19q23 0 46 18q15 11 35 -8.5t20 -46.5q0 -41 -22 -65q-32 -36 -89 -36q-45 0 -119 27q-54 19 -98 19q-22 0 -47 -17q-15 -11 -35 8t-20 46q0 41 22 66q30 35 89 35z" />
    <glyph glyph-name="exclamdown" unicode="&#xa1;" horiz-adv-x="302" 
d="M143 431h14q30 0 44 -19.5t19 -65.5q3 -28 11.5 -116t14.5 -136q1 -7 1 -18q0 -42 -21 -60t-66 -18h-20q-48 0 -67.5 18.5t-19.5 60.5q0 11 1 17q6 49 15 140t11 112q8 85 63 85zM151 483q-44 0 -74.5 24.5t-30.5 75.5q0 52 30 76t75 24q43 0 73.5 -24t30.5 -76
q0 -51 -30.5 -75.5t-73.5 -24.5z" />
    <glyph glyph-name="cent" unicode="&#xa2;" horiz-adv-x="523" 
d="M166 -107q-36 10 -46 29.5t2 50.5l18 57q-118 68 -118 228q0 132 76 202t185 72l15 48q10 34 31.5 44t58.5 0t47 -30t-1 -54l-14 -41q56 -35 56 -93q0 -32 -25 -53.5t-66 -21.5q-27 41 -86 41q-49 0 -77.5 -29.5t-28.5 -84.5t28.5 -84.5t77.5 -29.5q66 0 97 38
q36 -1 60.5 -23t24.5 -52q0 -49 -53 -82.5t-134 -33.5q-13 0 -20 1l-16 -59q-17 -61 -92 -40z" />
    <glyph glyph-name="sterling" unicode="&#xa3;" horiz-adv-x="628" 
d="M509 0h-380q-20 1 -31.5 3t-25 9t-20 24t-6.5 43q0 49 19.5 69.5t39.5 20.5q35 0 35 41v75h-49q-21 0 -34 12t-13 34q0 46 44 46h51v59q0 113 65.5 175.5t183.5 62.5q79 0 138 -32.5t59 -91.5q0 -30 -16 -54t-43 -34q-8 21 -40.5 32.5t-69.5 11.5q-93 0 -93 -79v-50
q37 1 111 1q50 0 50 -47t-58 -47h-103v-58q0 -36 -16 -57h202q80 0 80 -85q0 -84 -80 -84z" />
    <glyph glyph-name="currency" unicode="&#xa4;" horiz-adv-x="618" 
d="M536 335q0 -54 -22 -98q68 -62 68 -88q0 -21 -28 -47t-52 -26q-28 0 -58 32l-29 29q-50 -22 -100 -22q-51 0 -100 22q-8 -7 -24.5 -23t-23.5 -21.5t-18 -11t-22 -5.5q-24 0 -51.5 26t-27.5 47q0 8 3 16t12 18.5t14 16t19.5 19.5t18.5 18q-22 44 -22 98t22 98
q-4 4 -18 17.5t-19.5 19.5t-14 16.5t-12 18.5t-3.5 15q0 22 27.5 47.5t51.5 25.5q9 0 17 -2.5t17 -9.5t15.5 -12.5t18.5 -17t20 -18.5q49 22 100 22q50 0 100 -22l29 29q31 31 58 31q24 0 52 -25.5t28 -47.5q0 -25 -68 -87q22 -44 22 -98zM211 335q0 -55 31 -84.5t73 -29.5
t73 29.5t31 84.5t-31 84.5t-73 29.5t-73 -29.5t-31 -84.5z" />
    <glyph glyph-name="yen" unicode="&#xa5;" horiz-adv-x="650" 
d="M107 222h118q-14 18 -28 40h-88q-22 0 -31.5 8.5t-9.5 30.5q0 38 39 38h42q-68 113 -110 237q-8 21 -8 43q0 25 20 39.5t54 14.5h39q64 0 81 -57q53 -170 97 -253h4q39 65 92 243q12 38 33 52.5t60 14.5h42q64 0 64 -54q0 -20 -13 -56q-48 -126 -105 -224h42q41 0 41 -39
q-1 -36 -41 -38h-90l-27 -40h117q41 0 41 -39q-1 -36 -41 -38h-121v-40q0 -53 -17.5 -79t-67.5 -26h-24q-51 0 -67.5 26t-16.5 79v40h-118q-22 0 -31.5 9t-9.5 31q0 35 39 37z" />
    <glyph glyph-name="brokenbar" unicode="&#xa6;" horiz-adv-x="250" 
d="M123 713h2q45 0 62 -21t17 -66v-167q0 -44 -17 -65t-60 -21h-4q-45 0 -61 20.5t-16 65.5v167q0 45 16.5 66t60.5 21zM123 306h2q45 0 62 -21t17 -66v-167q0 -44 -17 -65t-60 -21h-4q-45 0 -61 20.5t-16 65.5v167q0 45 16.5 66t60.5 21z" />
    <glyph glyph-name="section" unicode="&#xa7;" horiz-adv-x="583" 
d="M527 -48q0 -88 -73.5 -145t-189.5 -57q-105 0 -174 34.5t-69 87.5q0 71 61 94q12 -21 70.5 -43.5t117.5 -22.5q25 0 44.5 12t19.5 30q0 17 -18 27.5t-64 21.5q-109 23 -165.5 70t-56.5 136q0 94 75 147q-37 42 -37 102q0 90 66.5 147.5t175.5 57.5q102 0 163 -33t61 -96
q0 -29 -15 -52.5t-41 -30.5q-66 52 -158 52q-31 0 -47 -12.5t-16 -29.5q0 -9 7 -16.5t24.5 -15t33.5 -13.5t48 -17t54 -19q71 -26 102.5 -64.5t31.5 -101.5q0 -91 -76 -143q45 -47 45 -107zM380 186q0 25 -28.5 41.5t-73.5 22.5q-73 -2 -73 -45q0 -24 29 -41t72 -23
q74 2 74 45z" />
    <glyph glyph-name="copyright" unicode="&#xa9;" horiz-adv-x="800" 
d="M400 700q149 0 252.5 -101.5t103.5 -255.5t-103.5 -255t-252.5 -101q-150 0 -253 101t-103 255t103 255.5t253 101.5zM400 621q-116 0 -196 -79t-80 -199t80 -198t196 -78t196 78t80 198t-80 199t-196 79zM408 559q72 0 112.5 -32t40.5 -75q0 -27 -20 -43.5t-55 -16.5
q-13 43 -70 43q-41 0 -64.5 -24t-23.5 -70q0 -45 23.5 -69t63.5 -24q63 0 79 41q30 -2 50.5 -19t20.5 -42q0 -42 -44.5 -70.5t-109.5 -28.5q-89 0 -153 53.5t-64 158.5q0 108 62.5 163t151.5 55z" />
    <glyph glyph-name="guillemotleft" unicode="&#xab;" horiz-adv-x="662" 
d="M38 251q0 22 8 36t36 42q7 8 27.5 30t30 32t27.5 28.5t28.5 27.5t23 20t21.5 15.5t15 4.5q28 0 54.5 -24.5t26.5 -58.5q0 -17 -20 -43t-59 -64.5t-45 -45.5q9 -10 29 -31t34 -36t29.5 -32.5t23.5 -31.5t8 -23q0 -29 -27 -56t-54 -27q-8 0 -18.5 5.5t-24.5 17t-26.5 23
t-30.5 31l-30 32.5t-32 35.5t-29 32.5q-26 29 -26 60zM331 251q0 22 8 36t36 42q7 8 27.5 30t30 32t27.5 28.5t28.5 27.5t23 20t21.5 15.5t15 4.5q28 0 54.5 -24.5t26.5 -58.5q0 -17 -20 -43t-59 -64.5t-45 -45.5q9 -10 29 -31t34 -36t29.5 -32.5t23.5 -31.5t8 -23
q0 -29 -27 -56t-54 -27q-8 0 -18.5 5.5t-24.5 17t-26.5 23t-30.5 31l-30 32.5t-32 35.5t-29 32.5q-26 29 -26 60z" />
    <glyph glyph-name="registered" unicode="&#xae;" horiz-adv-x="800" 
d="M292 547h131q72 0 112.5 -37t40.5 -98q0 -81 -68 -105q10 -30 37.5 -61.5t51.5 -40.5q-3 -26 -24.5 -46t-53.5 -20q-23 0 -40.5 8t-32.5 29.5t-23.5 37.5t-24.5 53q-5 12 -8 18h-35v-94q0 -25 -12.5 -36.5t-41.5 -11.5h-8q-29 0 -41.5 11.5t-12.5 36.5v305q0 27 12.5 39
t40.5 12zM408 448h-53v-84h53q52 0 52 43q0 41 -52 41zM43 342q0 154 103.5 255.5t252.5 101.5t253 -101.5t104 -255.5q0 -153 -104 -253.5t-253 -100.5t-252.5 100.5t-103.5 253.5zM123 342q0 -119 80 -197.5t196 -78.5t196.5 78.5t80.5 197.5q0 120 -80.5 199t-196.5 79
t-196 -79t-80 -199z" />
    <glyph glyph-name="degree" unicode="&#xb0;" horiz-adv-x="280" 
d="M138 742q47 0 77.5 -28.5t30.5 -77.5q0 -48 -30 -76t-78 -28q-47 0 -77 28t-30 76q0 49 30 77.5t77 28.5zM138 681q-20 0 -32 -12t-12 -33q0 -20 12 -32t32 -12t32.5 12.5t12.5 31.5q0 21 -12.5 33t-32.5 12z" />
    <glyph glyph-name="plusminus" unicode="&#xb1;" horiz-adv-x="585" 
d="M137 154h303q43 0 64 -18.5t21 -60.5q0 -41 -21 -58t-64 -17h-303q-42 0 -59.5 18t-17.5 61q0 75 77 75zM291 619h1q49 0 64.5 -25.5t15.5 -82.5v-31h71q82 0 82 -77t-82 -77h-71v-37q0 -55 -15 -81t-62 -26h-3q-50 0 -64.5 25t-14.5 82v37h-71q-82 0 -82 77t82 77h71v31
q0 55 15 81.5t63 26.5z" />
    <glyph glyph-name="twosuperior" unicode="&#xb2;" horiz-adv-x="357" 
d="M171 673q60 0 96.5 -28t36.5 -78q0 -40 -26 -74.5t-90 -86.5h79q50 0 50 -48q0 -50 -50 -50h-163q-64 0 -64 57q0 31 41 63q52 42 75.5 67t23.5 41q0 29 -42 29q-44 0 -64 -22q-33 9 -33 47q0 35 36.5 59t93.5 24z" />
    <glyph glyph-name="threesuperior" unicode="&#xb3;" horiz-adv-x="358" 
d="M177 673q59 0 93.5 -28.5t34.5 -70.5q0 -51 -61 -80q15 -5 25 -9.5t22.5 -14t19 -24.5t6.5 -34q0 -47 -41 -78.5t-104 -31.5q-60 0 -96 18t-36 48q0 40 40 53q7 -8 32 -15.5t51 -7.5q43 0 43 28q0 23 -39 23h-24q-34 0 -34 35q0 37 34 37h22q35 0 35 24q0 10 -11 17.5
t-29 7.5q-42 0 -65 -25q-18 4 -29 17.5t-11 33.5q0 26 29.5 51.5t92.5 25.5z" />
    <glyph glyph-name="mu" unicode="&#xb5;" horiz-adv-x="567" 
d="M37 -124v553q0 50 18.5 71.5t66.5 21.5h7q45 0 63 -27t18 -79v-164q0 -104 67 -104q35 0 54.5 28.5t19.5 75.5v166q0 52 18 78t67 26h4q50 0 67 -20.5t17 -71.5v-337q0 -52 -17.5 -72.5t-67.5 -20.5t-69 20t-19 67v11q-11 -34 -40 -65t-77 -31q-9 0 -25 4q0 -20 1 -61
t1 -62q0 -86 -85 -86h-4q-46 0 -65.5 18.5t-19.5 60.5z" />
    <glyph glyph-name="paragraph" unicode="&#xb6;" horiz-adv-x="538" 
d="M406 700q52 0 68 -22.5t16 -76.5v-504q0 -55 -16.5 -76t-67.5 -21h-16q-48 0 -66 21t-18 73v152h-13q-121 0 -187 60.5t-66 166.5t66 166.5t187 60.5h113z" />
    <glyph glyph-name="periodcentered" unicode="&#xb7;" horiz-adv-x="319" 
d="M160 399q44 0 74.5 -24t30.5 -75t-30.5 -75t-74.5 -24t-75 24t-31 75t31 75t75 24z" />
    <glyph glyph-name="onesuperior" unicode="&#xb9;" horiz-adv-x="270" 
d="M97 671h67q60 0 60 -54v-247q0 -67 -63 -67q-57 0 -57 67v192h-7q-31 0 -43.5 12.5t-12.5 42.5q0 54 56 54z" />
    <glyph glyph-name="guillemotright" unicode="&#xbb;" horiz-adv-x="661" 
d="M629 251q0 -31 -26 -60q-9 -10 -29 -32.5t-32 -35.5l-30 -32.5t-30.5 -31t-26.5 -23t-24.5 -17t-18.5 -5.5q-27 0 -54 27t-27 56q0 9 8 23t23.5 31.5t29.5 32.5t34 36t29 31q-6 7 -45 45.5t-59 64.5t-20 43q0 34 26.5 58.5t54.5 24.5q6 0 15 -4.5t21.5 -15.5t23 -20
t28.5 -27.5t27.5 -28.5t30 -32t27.5 -30q28 -28 36 -42t8 -36zM336 251q0 -31 -26 -60q-9 -10 -29 -32.5t-32 -35.5l-30 -32.5t-30.5 -31t-26.5 -23t-24.5 -17t-18.5 -5.5q-27 0 -54 27t-27 56q0 9 8 23t23.5 31.5t29.5 32.5t34 36t29 31q-6 7 -45 45.5t-59 64.5t-20 43
q0 34 26.5 58.5t54.5 24.5q6 0 15 -4.5t21.5 -15.5t23 -20t28.5 -27.5t27.5 -28.5t30 -32t27.5 -30q28 -28 36 -42t8 -36z" />
    <glyph glyph-name="questiondown" unicode="&#xbf;" horiz-adv-x="546" 
d="M177 369q30 26 66.5 45t63.5 19h2q33 0 53.5 -15.5t20.5 -43.5q0 -7 -1.5 -14t-5.5 -14t-7 -12t-10.5 -12.5t-10.5 -11t-12.5 -11t-12 -9.5t-13.5 -10t-12 -9q-38 -28 -52.5 -42.5t-14.5 -30.5q0 -21 23.5 -32.5t61.5 -11.5q91 0 131 51q60 -23 60 -83q0 -62 -70 -98
t-153 -36q-112 0 -179 51t-67 133q0 23 8 46.5t18.5 40t29 36.5t29.5 29.5t30.5 25.5t23.5 19zM294 487q-44 0 -74.5 24t-30.5 75q0 52 30.5 76t74.5 24t74.5 -24t30.5 -76q0 -51 -31 -75t-74 -24z" />
    <glyph glyph-name="Agrave" unicode="&#xc0;" horiz-adv-x="692" 
d="M335 674h22q58 0 95.5 -29t54.5 -78q94 -277 139 -454q9 -39 9 -50q0 -63 -84 -63h-26q-25 0 -42.5 7.5t-28 16.5t-19 31.5t-12 38t-10.5 50.5l-3 15h-168q-11 -52 -16.5 -74t-18.5 -46t-31.5 -31.5t-48.5 -7.5h-26q-84 0 -84 57q0 22 9 56q58 229 139 454
q39 107 150 107zM346 508q-31 -67 -62 -211h124q-26 124 -62 211zM406 724l-157 43q-43 15 -38 82v3q4 44 39 44q17 0 39 -11l151 -74q37 -18 34 -54q-3 -37 -44 -37q-13 0 -24 4z" />
    <glyph glyph-name="Aacute" unicode="&#xc1;" horiz-adv-x="692" 
d="M335 674h22q58 0 95.5 -29t54.5 -78q94 -277 139 -454q9 -39 9 -50q0 -63 -84 -63h-26q-25 0 -42.5 7.5t-28 16.5t-19 31.5t-12 38t-10.5 50.5l-3 15h-168q-11 -52 -16.5 -74t-18.5 -46t-31.5 -31.5t-48.5 -7.5h-26q-84 0 -84 57q0 22 9 56q58 229 139 454
q39 107 150 107zM346 508q-31 -67 -62 -211h124q-26 124 -62 211zM468 768l-157 -43q-11 -4 -24 -4q-41 0 -44 37q-3 36 34 54l151 74q22 11 39 11q35 0 39 -44v-3q5 -67 -38 -82z" />
    <glyph glyph-name="Acircumflex" unicode="&#xc2;" horiz-adv-x="692" 
d="M335 674h22q58 0 95.5 -29t54.5 -78q94 -277 139 -454q9 -39 9 -50q0 -63 -84 -63h-26q-25 0 -42.5 7.5t-28 16.5t-19 31.5t-12 38t-10.5 50.5l-3 15h-168q-11 -52 -16.5 -74t-18.5 -46t-31.5 -31.5t-48.5 -7.5h-26q-84 0 -84 57q0 22 9 56q58 229 139 454
q39 107 150 107zM346 508q-31 -67 -62 -211h124q-26 124 -62 211zM344 891q28 0 51 -17l75 -55q15 -11 21 -16.5t12.5 -15t7.5 -21.5q3 -25 -11.5 -41.5t-32.5 -16.5q-25 0 -38 10l-85 59l-84 -59q-13 -10 -32 -10q-20 0 -35.5 18.5t-14.5 39.5q1 17 10 27.5t30 25.5l76 55
q23 17 50 17z" />
    <glyph glyph-name="Atilde" unicode="&#xc3;" horiz-adv-x="692" 
d="M335 674h22q58 0 95.5 -29t54.5 -78q94 -277 139 -454q9 -39 9 -50q0 -63 -84 -63h-26q-25 0 -42.5 7.5t-28 16.5t-19 31.5t-12 38t-10.5 50.5l-3 15h-168q-11 -52 -16.5 -74t-18.5 -46t-31.5 -31.5t-48.5 -7.5h-26q-84 0 -84 57q0 22 9 56q58 229 139 454
q39 107 150 107zM346 508q-31 -67 -62 -211h124q-26 124 -62 211zM273 869q34 0 85 -21q39 -16 68 -16q17 0 36 15q12 10 29 -6t17 -39q0 -36 -18 -58q-25 -30 -72 -30q-31 0 -84 21q-39 16 -69 16q-19 0 -36 -14q-12 -10 -28.5 5.5t-16.5 38.5q0 36 18 58q24 30 71 30z" />
    <glyph glyph-name="Adieresis" unicode="&#xc4;" horiz-adv-x="692" 
d="M335 674h22q58 0 95.5 -29t54.5 -78q94 -277 139 -454q9 -39 9 -50q0 -63 -84 -63h-26q-25 0 -42.5 7.5t-28 16.5t-19 31.5t-12 38t-10.5 50.5l-3 15h-168q-11 -52 -16.5 -74t-18.5 -46t-31.5 -31.5t-48.5 -7.5h-26q-84 0 -84 57q0 22 9 56q58 229 139 454
q39 107 150 107zM346 508q-31 -67 -62 -211h124q-26 124 -62 211zM239 861q30 0 51 -16.5t21 -52.5t-20.5 -52.5t-51.5 -16.5t-52.5 16.5t-21.5 52.5q0 35 21.5 52t52.5 17zM454 861q30 0 51 -16.5t21 -52.5t-20.5 -52.5t-51.5 -16.5t-52 16.5t-21 52.5q0 35 21 52t52 17z
" />
    <glyph glyph-name="Aring" unicode="&#xc5;" horiz-adv-x="692" 
d="M335 674h22q58 0 95.5 -29t54.5 -78q94 -277 139 -454q9 -39 9 -50q0 -63 -84 -63h-26q-25 0 -42.5 7.5t-28 16.5t-19 31.5t-12 38t-10.5 50.5l-3 15h-168q-11 -52 -16.5 -74t-18.5 -46t-31.5 -31.5t-48.5 -7.5h-26q-84 0 -84 57q0 22 9 56q58 229 139 454
q39 107 150 107zM346 508q-31 -67 -62 -211h124q-26 124 -62 211zM345 910q47 0 77.5 -28.5t30.5 -77.5q0 -48 -30.5 -76t-77.5 -28t-77.5 28t-30.5 76t30.5 77t77.5 29zM345 841q-15 0 -24 -10t-9 -27q0 -16 9 -26t24 -10t24.5 10t9.5 26q0 17 -9.5 27t-24.5 10z" />
    <glyph glyph-name="Ccedilla" unicode="&#xc7;" horiz-adv-x="665" 
d="M370 682q108 0 172.5 -45t64.5 -110q0 -41 -29.5 -64t-73.5 -26q-27 70 -129 70q-69 0 -108.5 -46.5t-39.5 -126.5t41 -125t107 -45q92 0 133 70q42 -4 73 -29.5t31 -65.5q0 -60 -60.5 -101.5t-156.5 -45.5l-5 -15h8q32 0 50 -19.5t18 -50.5q0 -49 -37 -75t-92 -26
q-49 0 -80 21t-31 57q0 24 14 37t28 13q12 -25 59 -25q42 0 42 22q0 19 -34 19h-9q-17 0 -17 12q0 10 10 33q-124 15 -203.5 101t-79.5 238q0 87 27 154.5t73.5 109t105.5 63t128 21.5z" />
    <glyph glyph-name="Egrave" unicode="&#xc8;" horiz-adv-x="575" 
d="M150 673h314q77 0 77 -83t-77 -83h-213v-99h165q38 0 57.5 -14.5t19.5 -52.5t-19.5 -52.5t-57.5 -14.5h-165v-109h220q77 0 77 -82q0 -83 -77 -83h-321q-47 0 -66 18t-19 61v513q0 43 19.5 62t65.5 19zM355 724l-157 43q-43 15 -38 82v3q4 44 39 44q17 0 39 -11l151 -74
q37 -18 34 -54q-3 -37 -44 -37q-13 0 -24 4z" />
    <glyph glyph-name="Eacute" unicode="&#xc9;" horiz-adv-x="575" 
d="M150 673h314q77 0 77 -83t-77 -83h-213v-99h165q38 0 57.5 -14.5t19.5 -52.5t-19.5 -52.5t-57.5 -14.5h-165v-109h220q77 0 77 -82q0 -83 -77 -83h-321q-47 0 -66 18t-19 61v513q0 43 19.5 62t65.5 19zM396 768l-157 -43q-11 -4 -24 -4q-41 0 -44 37q-3 36 34 54l151 74
q22 11 39 11q35 0 39 -44v-3q5 -67 -38 -82z" />
    <glyph glyph-name="Ecircumflex" unicode="&#xca;" horiz-adv-x="575" 
d="M150 673h314q77 0 77 -83t-77 -83h-213v-99h165q38 0 57.5 -14.5t19.5 -52.5t-19.5 -52.5t-57.5 -14.5h-165v-109h220q77 0 77 -82q0 -83 -77 -83h-321q-47 0 -66 18t-19 61v513q0 43 19.5 62t65.5 19zM292 891q28 0 51 -17l75 -55q15 -11 21 -16.5t12.5 -15t7.5 -21.5
q3 -25 -11.5 -41.5t-32.5 -16.5q-25 0 -38 10l-85 59l-84 -59q-13 -10 -32 -10q-20 0 -35.5 18.5t-14.5 39.5q1 17 10 27.5t30 25.5l76 55q23 17 50 17z" />
    <glyph glyph-name="Edieresis" unicode="&#xcb;" horiz-adv-x="575" 
d="M150 673h314q77 0 77 -83t-77 -83h-213v-99h165q38 0 57.5 -14.5t19.5 -52.5t-19.5 -52.5t-57.5 -14.5h-165v-109h220q77 0 77 -82q0 -83 -77 -83h-321q-47 0 -66 18t-19 61v513q0 43 19.5 62t65.5 19zM184 861q30 0 51 -16.5t21 -52.5t-20.5 -52.5t-51.5 -16.5
t-52.5 16.5t-21.5 52.5q0 35 21.5 52t52.5 17zM399 861q30 0 51 -16.5t21 -52.5t-20.5 -52.5t-51.5 -16.5t-52 16.5t-21 52.5q0 35 21 52t52 17z" />
    <glyph glyph-name="Igrave" unicode="&#xcc;" horiz-adv-x="314" 
d="M150 673h16q46 0 65.5 -19t19.5 -62v-513q0 -42 -19.5 -60.5t-65.5 -18.5h-16q-47 0 -66 18t-19 61v513q0 43 19.5 62t65.5 19zM204 724l-157 43q-43 15 -38 82v3q4 44 39 44q17 0 39 -11l151 -74q37 -18 34 -54q-3 -37 -44 -37q-13 0 -24 4z" />
    <glyph glyph-name="Iacute" unicode="&#xcd;" horiz-adv-x="314" 
d="M150 673h16q46 0 65.5 -19t19.5 -62v-513q0 -42 -19.5 -60.5t-65.5 -18.5h-16q-47 0 -66 18t-19 61v513q0 43 19.5 62t65.5 19zM269 768l-157 -43q-11 -4 -24 -4q-41 0 -44 37q-3 36 34 54l151 74q22 11 39 11q35 0 39 -44v-3q5 -67 -38 -82z" />
    <glyph glyph-name="Icircumflex" unicode="&#xce;" horiz-adv-x="348" 
d="M168 673h16q46 0 65.5 -19t19.5 -62v-513q0 -42 -19.5 -60.5t-65.5 -18.5h-16q-47 0 -66 18t-19 61v513q0 43 19.5 62t65.5 19zM174 897q30 0 51 -14l75 -52q16 -11 22 -15.5t12.5 -14t6.5 -20.5q0 -26 -16.5 -40.5t-37.5 -14.5q-23 0 -38 9l-75 47l-75 -47
q-15 -9 -38 -9q-20 0 -37 14.5t-17 40.5q0 11 6.5 20.5t13 14.5t20.5 15l76 52q21 14 51 14z" />
    <glyph glyph-name="Idieresis" unicode="&#xcf;" horiz-adv-x="368" 
d="M177 673h16q46 0 65.5 -19t19.5 -62v-513q0 -42 -19.5 -60.5t-65.5 -18.5h-16q-47 0 -66 18t-19 61v513q0 43 19.5 62t65.5 19zM79 861q30 0 51 -16.5t21 -52.5t-20.5 -52.5t-51.5 -16.5t-52.5 16.5t-21.5 52.5q0 35 21.5 52t52.5 17zM294 861q30 0 51 -16.5t21 -52.5
t-20.5 -52.5t-51.5 -16.5t-52 16.5t-21 52.5q0 35 21 52t52 17z" />
    <glyph glyph-name="Ntilde" unicode="&#xd1;" horiz-adv-x="735" 
d="M150 673h35q55 0 94 -58l215 -310v287q0 44 18.5 62.5t63.5 18.5h11q45 0 64 -18.5t19 -62.5v-510q0 -43 -20 -62.5t-65 -19.5h-19q-66 0 -107 57l-223 306v-284q0 -43 -18 -61t-63 -18h-7q-46 0 -64.5 18t-18.5 61v510q0 44 20 64t65 20zM293 879q34 0 85 -21
q39 -16 68 -16q17 0 36 15q12 10 29 -6t17 -39q0 -36 -18 -58q-26 -30 -72 -30q-31 0 -84 21q-39 16 -69 16q-19 0 -36 -14q-12 -10 -28.5 5.5t-16.5 38.5q0 36 18 58q24 30 71 30z" />
    <glyph glyph-name="Ograve" unicode="&#xd2;" horiz-adv-x="733" 
d="M366 682q61 0 117 -18.5t105.5 -57.5t79.5 -109t30 -162t-30 -161t-79.5 -107.5t-105.5 -57t-116 -18.5q-61 0 -117 18.5t-106 57t-80 107.5t-30 161t30 162t79.5 109t105.5 57.5t117 18.5zM366 508q-59 0 -100.5 -42.5t-41.5 -129.5q0 -88 41.5 -130.5t100.5 -42.5
t100.5 42.5t41.5 130.5t-41.5 130t-100.5 42zM425 724l-157 43q-43 15 -38 82v3q4 44 39 44q17 0 39 -11l151 -74q37 -18 34 -54q-3 -37 -44 -37q-13 0 -24 4z" />
    <glyph glyph-name="Oacute" unicode="&#xd3;" horiz-adv-x="733" 
d="M366 682q61 0 117 -18.5t105.5 -57.5t79.5 -109t30 -162t-30 -161t-79.5 -107.5t-105.5 -57t-116 -18.5q-61 0 -117 18.5t-106 57t-80 107.5t-30 161t30 162t79.5 109t105.5 57.5t117 18.5zM366 508q-59 0 -100.5 -42.5t-41.5 -129.5q0 -88 41.5 -130.5t100.5 -42.5
t100.5 42.5t41.5 130.5t-41.5 130t-100.5 42zM473 768l-157 -43q-11 -4 -24 -4q-41 0 -44 37q-3 36 34 54l151 74q22 11 39 11q35 0 39 -44v-3q5 -67 -38 -82z" />
    <glyph glyph-name="Ocircumflex" unicode="&#xd4;" horiz-adv-x="733" 
d="M366 682q61 0 117 -18.5t105.5 -57.5t79.5 -109t30 -162t-30 -161t-79.5 -107.5t-105.5 -57t-116 -18.5q-61 0 -117 18.5t-106 57t-80 107.5t-30 161t30 162t79.5 109t105.5 57.5t117 18.5zM366 508q-59 0 -100.5 -42.5t-41.5 -129.5q0 -88 41.5 -130.5t100.5 -42.5
t100.5 42.5t41.5 130.5t-41.5 130t-100.5 42zM364 891q28 0 51 -17l75 -55q15 -11 21 -16.5t12.5 -15t7.5 -21.5q3 -25 -11.5 -41.5t-32.5 -16.5q-25 0 -38 10l-85 59l-84 -59q-13 -10 -32 -10q-20 0 -35.5 18.5t-14.5 39.5q1 17 10 27.5t30 25.5l76 55q23 17 50 17z" />
    <glyph glyph-name="Otilde" unicode="&#xd5;" horiz-adv-x="733" 
d="M366 682q61 0 117 -18.5t105.5 -57.5t79.5 -109t30 -162t-30 -161t-79.5 -107.5t-105.5 -57t-116 -18.5q-61 0 -117 18.5t-106 57t-80 107.5t-30 161t30 162t79.5 109t105.5 57.5t117 18.5zM366 508q-59 0 -100.5 -42.5t-41.5 -129.5q0 -88 41.5 -130.5t100.5 -42.5
t100.5 42.5t41.5 130.5t-41.5 130t-100.5 42zM290 860q22 3 83 -15q8 -3 21 -7.5t14.5 -4.5t12.5 -2t14 1q5 0 10.5 4t8 7t8 10.5t6.5 8.5q12 11 30.5 -3.5t20.5 -37.5q4 -36 -12 -59q-19 -27 -68 -34q-17 -2 -80 14q-8 3 -21.5 7.5t-15.5 5t-13.5 2.5t-14.5 -1
q-6 0 -11.5 -4.5t-13.5 -13.5t-9 -10q-11 -11 -29 3t-20 37q-4 36 12 59q17 27 67 33z" />
    <glyph glyph-name="Odieresis" unicode="&#xd6;" horiz-adv-x="733" 
d="M366 682q61 0 117 -18.5t105.5 -57.5t79.5 -109t30 -162t-30 -161t-79.5 -107.5t-105.5 -57t-116 -18.5q-61 0 -117 18.5t-106 57t-80 107.5t-30 161t30 162t79.5 109t105.5 57.5t117 18.5zM366 508q-59 0 -100.5 -42.5t-41.5 -129.5q0 -88 41.5 -130.5t100.5 -42.5
t100.5 42.5t41.5 130.5t-41.5 130t-100.5 42zM259 861q30 0 51 -16.5t21 -52.5t-20.5 -52.5t-51.5 -16.5t-52.5 16.5t-21.5 52.5q0 35 21.5 52t52.5 17zM474 861q30 0 51 -16.5t21 -52.5t-20.5 -52.5t-51.5 -16.5t-52 16.5t-21 52.5q0 35 21 52t52 17z" />
    <glyph glyph-name="multiply" unicode="&#xd7;" horiz-adv-x="528" 
d="M89 134h-1q-24 24 -26.5 46.5t8.5 41t38 45.5l43 43l-43 44q-25 25 -37 43t-9.5 41.5t25.5 46.5v1q24 24 46.5 26.5t41 -8.5t45.5 -38l43 -43l44 44q26 26 44 37.5t40.5 9t45.5 -25.5l3 -2q24 -24 26.5 -47t-9 -40.5t-37.5 -44.5l-44 -44l44 -43q26 -26 37.5 -44t9 -40.5
t-25.5 -45.5l-2 -3q-24 -24 -47 -26.5t-40.5 9t-44.5 37.5l-44 44l-43 -43q-25 -25 -43 -37t-41.5 -9.5t-46.5 25.5z" />
    <glyph glyph-name="Oslash" unicode="&#xd8;" horiz-adv-x="733" 
d="M366 682q108 0 191 -53l47 57q16 21 36 21q12 0 25 -6l1 -1q30 -13 30 -36q0 -15 -12 -30l-57 -69q71 -89 71 -230q0 -92 -30 -161t-79.5 -107.5t-105.5 -57t-116 -18.5q-96 0 -174 42l-18 -22q-26 -31 -52 -48q-14 -17 -32 -17q-22 0 -35.5 13t-13.5 24q0 14 14 31
l62 76q-84 89 -84 245q0 92 30 162t79.5 109t105.5 57.5t117 18.5zM366 508q-59 0 -100.5 -42.5t-41.5 -129.5q0 -58 18 -95l199 246q-34 21 -75 21zM498 407l-190 -232q28 -12 58 -12q59 0 100.5 42.5t41.5 130.5q0 38 -10 71z" />
    <glyph glyph-name="Ugrave" unicode="&#xd9;" horiz-adv-x="699" 
d="M140 673h14q46 0 66 -19t20 -63v-318q0 -122 110 -122t110 122v318q0 44 19.5 63t65.5 19h14q87 0 87 -82v-277q0 -48 -5 -86.5t-23 -84.5t-48.5 -76.5t-86.5 -51.5t-133 -21t-133 21t-86.5 51.5t-48.5 76.5t-23 84.5t-5 86.5v277q0 82 86 82zM398 724l-157 43
q-43 15 -38 82v3q4 44 39 44q17 0 39 -11l151 -74q37 -18 34 -54q-3 -37 -44 -37q-13 0 -24 4z" />
    <glyph glyph-name="Uacute" unicode="&#xda;" horiz-adv-x="699" 
d="M140 673h14q46 0 66 -19t20 -63v-318q0 -122 110 -122t110 122v318q0 44 19.5 63t65.5 19h14q87 0 87 -82v-277q0 -48 -5 -86.5t-23 -84.5t-48.5 -76.5t-86.5 -51.5t-133 -21t-133 21t-86.5 51.5t-48.5 76.5t-23 84.5t-5 86.5v277q0 82 86 82zM469 768l-157 -43
q-11 -4 -24 -4q-41 0 -44 37q-3 36 34 54l151 74q22 11 39 11q35 0 39 -44v-3q5 -67 -38 -82z" />
    <glyph glyph-name="Ucircumflex" unicode="&#xdb;" horiz-adv-x="699" 
d="M140 673h14q46 0 66 -19t20 -63v-318q0 -122 110 -122t110 122v318q0 44 19.5 63t65.5 19h14q87 0 87 -82v-277q0 -48 -5 -86.5t-23 -84.5t-48.5 -76.5t-86.5 -51.5t-133 -21t-133 21t-86.5 51.5t-48.5 76.5t-23 84.5t-5 86.5v277q0 82 86 82zM350 894q30 0 51 -14
l75 -52q16 -11 22 -15.5t12.5 -14t6.5 -20.5q0 -26 -16.5 -40.5t-37.5 -14.5q-23 0 -38 9l-75 47l-75 -47q-15 -9 -38 -9q-20 0 -37 14.5t-17 40.5q0 11 6.5 20.5t13 14.5t20.5 15l76 52q21 14 51 14z" />
    <glyph glyph-name="Udieresis" unicode="&#xdc;" horiz-adv-x="699" 
d="M140 673h14q46 0 66 -19t20 -63v-318q0 -122 110 -122t110 122v318q0 44 19.5 63t65.5 19h14q87 0 87 -82v-277q0 -48 -5 -86.5t-23 -84.5t-48.5 -76.5t-86.5 -51.5t-133 -21t-133 21t-86.5 51.5t-48.5 76.5t-23 84.5t-5 86.5v277q0 82 86 82zM242 861q30 0 51 -16.5
t21 -52.5t-20.5 -52.5t-51.5 -16.5t-52.5 16.5t-21.5 52.5q0 35 21.5 52t52.5 17zM457 861q30 0 51 -16.5t21 -52.5t-20.5 -52.5t-51.5 -16.5t-52 16.5t-21 52.5q0 35 21 52t52 17z" />
    <glyph glyph-name="Yacute" unicode="&#xdd;" horiz-adv-x="640" 
d="M100 673h39q64 0 81 -57q53 -170 97 -253h4q39 65 92 243q12 38 33 52.5t60 14.5h42q64 0 64 -54q0 -20 -13 -56q-69 -184 -184 -347v-111q0 -53 -17.5 -79t-67.5 -26h-24q-51 0 -67.5 26t-16.5 79v114q-126 177 -188 357q-8 21 -8 43q0 25 20 39.5t54 14.5zM441 768
l-157 -43q-11 -4 -24 -4q-41 0 -44 37q-3 36 34 54l151 74q22 11 39 11q35 0 39 -44v-3q5 -67 -38 -82z" />
    <glyph glyph-name="germandbls" unicode="&#xdf;" horiz-adv-x="623" 
d="M285 690q105 0 167 -47t62 -137q0 -82 -84 -134q85 -38 127 -82t42 -124t-52 -126t-140 -46q-74 0 -113 25t-39 72q0 63 45 76q31 -43 94 -43q23 0 36 12.5t13 30.5q0 23 -14.5 37t-54.5 30q-30 12 -45.5 19t-33 20t-25 29t-7.5 38q0 17 15.5 37t31.5 45t16 55
q0 31 -16.5 46.5t-42.5 15.5q-56 0 -56 -67v-394q0 -43 -18 -60.5t-63 -17.5h-4q-46 0 -65 18t-19 60l-1 385q0 103 61 165t183 62z" />
    <glyph glyph-name="agrave" unicode="&#xe0;" horiz-adv-x="544" 
d="M257 528q123 0 177 -58t54 -164v-122q0 -94 41 -111q-5 -30 -29 -53.5t-70 -23.5q-72 0 -94 75l-2 1q-13 -29 -48 -53t-91 -24q-74 0 -123.5 42t-49.5 117q0 77 57.5 120.5t142.5 43.5q36 0 109 -15v12q0 63 -104 63q-78 0 -128 -36q-47 20 -47 76q0 47 55.5 78.5
t149.5 31.5zM256 224q-32 0 -53.5 -13.5t-21.5 -40.5q0 -24 19 -37.5t49 -13.5q36 0 59 24.5t23 56.5v9q-30 15 -75 15zM335 567l-157 43q-43 15 -38 82v3q4 44 39 44q17 0 39 -11l151 -74q37 -18 34 -54q-3 -37 -44 -37q-13 0 -24 4z" />
    <glyph glyph-name="aacute" unicode="&#xe1;" horiz-adv-x="544" 
d="M257 528q123 0 177 -58t54 -164v-122q0 -94 41 -111q-5 -30 -29 -53.5t-70 -23.5q-72 0 -94 75l-2 1q-13 -29 -48 -53t-91 -24q-74 0 -123.5 42t-49.5 117q0 77 57.5 120.5t142.5 43.5q36 0 109 -15v12q0 63 -104 63q-78 0 -128 -36q-47 20 -47 76q0 47 55.5 78.5
t149.5 31.5zM256 224q-32 0 -53.5 -13.5t-21.5 -40.5q0 -24 19 -37.5t49 -13.5q36 0 59 24.5t23 56.5v9q-30 15 -75 15zM382 609l-157 -43q-11 -4 -24 -4q-41 0 -44 37q-3 36 34 54l151 74q22 11 39 11q35 0 39 -44v-3q5 -67 -38 -82z" />
    <glyph glyph-name="acircumflex" unicode="&#xe2;" horiz-adv-x="544" 
d="M257 528q123 0 177 -58t54 -164v-122q0 -94 41 -111q-5 -30 -29 -53.5t-70 -23.5q-72 0 -94 75l-2 1q-13 -29 -48 -53t-91 -24q-74 0 -123.5 42t-49.5 117q0 77 57.5 120.5t142.5 43.5q36 0 109 -15v12q0 63 -104 63q-78 0 -128 -36q-47 20 -47 76q0 47 55.5 78.5
t149.5 31.5zM256 224q-32 0 -53.5 -13.5t-21.5 -40.5q0 -24 19 -37.5t49 -13.5q36 0 59 24.5t23 56.5v9q-30 15 -75 15zM274 746q28 0 51 -17l75 -55q15 -11 21 -16.5t12.5 -15t7.5 -21.5q3 -25 -11.5 -41.5t-32.5 -16.5q-25 0 -38 10l-85 59l-84 -59q-13 -10 -32 -10
q-20 0 -35.5 18.5t-14.5 39.5q1 17 10 27.5t30 25.5l76 55q23 17 50 17z" />
    <glyph glyph-name="atilde" unicode="&#xe3;" horiz-adv-x="544" 
d="M257 528q123 0 177 -58t54 -164v-122q0 -94 41 -111q-5 -30 -29 -53.5t-70 -23.5q-72 0 -94 75l-2 1q-13 -29 -48 -53t-91 -24q-74 0 -123.5 42t-49.5 117q0 77 57.5 120.5t142.5 43.5q36 0 109 -15v12q0 63 -104 63q-78 0 -128 -36q-47 20 -47 76q0 47 55.5 78.5
t149.5 31.5zM256 224q-32 0 -53.5 -13.5t-21.5 -40.5q0 -24 19 -37.5t49 -13.5q36 0 59 24.5t23 56.5v9q-30 15 -75 15zM196 700q22 3 83 -15q8 -3 21 -7.5t14.5 -4.5t12.5 -2t14 1q5 0 10.5 4t8 7t8 10.5t6.5 8.5q12 11 30.5 -3.5t20.5 -37.5q4 -36 -12 -59
q-19 -27 -68 -34q-17 -2 -80 14q-8 3 -21.5 7.5t-15.5 5t-13.5 2.5t-14.5 -1q-6 0 -11.5 -4.5t-13.5 -13.5t-9 -10q-11 -11 -29 3t-20 37q-4 36 12 59q17 27 67 33z" />
    <glyph glyph-name="adieresis" unicode="&#xe4;" horiz-adv-x="544" 
d="M257 528q123 0 177 -58t54 -164v-122q0 -94 41 -111q-5 -30 -29 -53.5t-70 -23.5q-72 0 -94 75l-2 1q-13 -29 -48 -53t-91 -24q-74 0 -123.5 42t-49.5 117q0 77 57.5 120.5t142.5 43.5q36 0 109 -15v12q0 63 -104 63q-78 0 -128 -36q-47 20 -47 76q0 47 55.5 78.5
t149.5 31.5zM256 224q-32 0 -53.5 -13.5t-21.5 -40.5q0 -24 19 -37.5t49 -13.5q36 0 59 24.5t23 56.5v9q-30 15 -75 15zM163 701q30 0 51 -16.5t21 -52.5t-20.5 -52.5t-51.5 -16.5t-52.5 16.5t-21.5 52.5q0 35 21.5 52t52.5 17zM378 701q30 0 51 -16.5t21 -52.5t-20.5 -52.5
t-51.5 -16.5t-52 16.5t-21 52.5q0 35 21 52t52 17z" />
    <glyph glyph-name="aring" unicode="&#xe5;" horiz-adv-x="544" 
d="M257 528q123 0 177 -58t54 -164v-122q0 -94 41 -111q-5 -30 -29 -53.5t-70 -23.5q-72 0 -94 75l-2 1q-13 -29 -48 -53t-91 -24q-74 0 -123.5 42t-49.5 117q0 77 57.5 120.5t142.5 43.5q36 0 109 -15v12q0 63 -104 63q-78 0 -128 -36q-47 20 -47 76q0 47 55.5 78.5
t149.5 31.5zM256 224q-32 0 -53.5 -13.5t-21.5 -40.5q0 -24 19 -37.5t49 -13.5q36 0 59 24.5t23 56.5v9q-30 15 -75 15zM271 770q47 0 77.5 -28.5t30.5 -77.5q0 -48 -30.5 -76t-77.5 -28t-77.5 28t-30.5 76t30.5 77t77.5 29zM271 701q-15 0 -24 -10t-9 -27q0 -16 9 -26
t24 -10t24.5 10t9.5 26q0 17 -9.5 27t-24.5 10z" />
    <glyph glyph-name="ccedilla" unicode="&#xe7;" horiz-adv-x="505" 
d="M289 532q90 0 138.5 -37.5t48.5 -88.5q0 -32 -25 -53.5t-66 -21.5q-27 41 -86 41q-49 0 -77.5 -29.5t-28.5 -84.5t28.5 -84.5t77.5 -29.5q66 0 97 38q36 -1 60.5 -23t24.5 -52q0 -47 -48.5 -79.5t-123.5 -35.5l-5 -15h8q32 0 50 -19.5t18 -50.5q0 -49 -37 -75t-92 -26
q-49 0 -80 21t-31 57q0 24 14 37t28 13q12 -25 59 -25q42 0 42 22q0 19 -34 19h-9q-17 0 -17 12q0 8 11 35q-93 16 -152.5 81.5t-59.5 179.5q0 134 78 204t189 70z" />
    <glyph glyph-name="egrave" unicode="&#xe8;" horiz-adv-x="516" 
d="M284 528q97 0 153 -51t56 -126t-52.5 -113.5t-132.5 -38.5t-129 23q0 -41 40 -65t99 -24q77 0 120 41q19 -7 32.5 -28t13.5 -44q0 -35 -30.5 -61t-73 -37.5t-87.5 -11.5q-123 0 -197 66.5t-74 195.5q0 130 73.5 202t188.5 72zM276 393q-32 0 -57 -22t-28 -59
q27 -20 99 -20q62 0 62 49q0 22 -21.5 37t-54.5 15zM335 567l-157 43q-43 15 -38 82v3q4 44 39 44q17 0 39 -11l151 -74q37 -18 34 -54q-3 -37 -44 -37q-13 0 -24 4z" />
    <glyph glyph-name="eacute" unicode="&#xe9;" horiz-adv-x="516" 
d="M284 528q97 0 153 -51t56 -126t-52.5 -113.5t-132.5 -38.5t-129 23q0 -41 40 -65t99 -24q77 0 120 41q19 -7 32.5 -28t13.5 -44q0 -35 -30.5 -61t-73 -37.5t-87.5 -11.5q-123 0 -197 66.5t-74 195.5q0 130 73.5 202t188.5 72zM276 393q-32 0 -57 -22t-28 -59
q27 -20 99 -20q62 0 62 49q0 22 -21.5 37t-54.5 15zM382 609l-157 -43q-11 -4 -24 -4q-41 0 -44 37q-3 36 34 54l151 74q22 11 39 11q35 0 39 -44v-3q5 -67 -38 -82z" />
    <glyph glyph-name="ecircumflex" unicode="&#xea;" horiz-adv-x="516" 
d="M284 528q97 0 153 -51t56 -126t-52.5 -113.5t-132.5 -38.5t-129 23q0 -41 40 -65t99 -24q77 0 120 41q19 -7 32.5 -28t13.5 -44q0 -35 -30.5 -61t-73 -37.5t-87.5 -11.5q-123 0 -197 66.5t-74 195.5q0 130 73.5 202t188.5 72zM276 393q-32 0 -57 -22t-28 -59
q27 -20 99 -20q62 0 62 49q0 22 -21.5 37t-54.5 15zM282 739q28 0 51 -17l75 -55q15 -11 21 -16.5t12.5 -15t7.5 -21.5q3 -25 -11.5 -41.5t-32.5 -16.5q-25 0 -38 10l-85 59l-84 -59q-13 -10 -32 -10q-20 0 -35.5 18.5t-14.5 39.5q1 17 10 27.5t30 25.5l76 55q23 17 50 17z
" />
    <glyph glyph-name="edieresis" unicode="&#xeb;" horiz-adv-x="516" 
d="M284 528q97 0 153 -51t56 -126t-52.5 -113.5t-132.5 -38.5t-129 23q0 -41 40 -65t99 -24q77 0 120 41q19 -7 32.5 -28t13.5 -44q0 -35 -30.5 -61t-73 -37.5t-87.5 -11.5q-123 0 -197 66.5t-74 195.5q0 130 73.5 202t188.5 72zM276 393q-32 0 -57 -22t-28 -59
q27 -20 99 -20q62 0 62 49q0 22 -21.5 37t-54.5 15zM165 704q30 0 51 -17t21 -52q0 -36 -20.5 -52.5t-51.5 -16.5t-52.5 16.5t-21.5 52.5q0 35 21.5 52t52.5 17zM380 704q30 0 51 -17t21 -52q0 -36 -20.5 -52.5t-51.5 -16.5t-52 16.5t-21 52.5q0 35 21 52t52 17z" />
    <glyph glyph-name="igrave" unicode="&#xec;" horiz-adv-x="296" 
d="M159 522h2q46 0 66 -18.5t20 -61.5v-363q0 -42 -19.5 -60.5t-64.5 -18.5h-4q-46 0 -65 18.5t-19 60.5v363q0 43 19.5 61.5t64.5 18.5zM209 567l-157 43q-43 15 -38 82v3q4 44 39 44q17 0 39 -11l151 -74q37 -18 34 -54q-3 -37 -44 -37q-13 0 -24 4z" />
    <glyph glyph-name="iacute" unicode="&#xed;" horiz-adv-x="308" 
d="M159 522h2q46 0 66 -18.5t20 -61.5v-363q0 -42 -19.5 -60.5t-64.5 -18.5h-4q-46 0 -65 18.5t-19 60.5v363q0 43 19.5 61.5t64.5 18.5zM268 609l-157 -43q-11 -4 -24 -4q-41 0 -44 37q-3 36 34 54l151 74q22 11 39 11q35 0 39 -44v-3q5 -67 -38 -82z" />
    <glyph glyph-name="icircumflex" unicode="&#xee;" horiz-adv-x="340" 
d="M170 522h2q46 0 66 -18.5t20 -61.5v-363q0 -42 -19.5 -60.5t-64.5 -18.5h-4q-46 0 -65 18.5t-19 60.5v363q0 43 19.5 61.5t64.5 18.5zM170 720q30 0 51 -14l75 -52q16 -11 22 -15.5t12.5 -14t6.5 -20.5q0 -26 -16.5 -40.5t-37.5 -14.5q-23 0 -38 9l-75 47l-75 -47
q-15 -9 -38 -9q-20 0 -37 14.5t-17 40.5q0 11 6.5 20.5t13 14.5t20.5 15l76 52q21 14 51 14z" />
    <glyph glyph-name="idieresis" unicode="&#xef;" horiz-adv-x="382" 
d="M84 718q30 0 51 -17t21 -52q0 -36 -20.5 -52.5t-51.5 -16.5t-52.5 16.5t-21.5 52.5q0 35 21.5 52t52.5 17zM299 718q30 0 51 -17t21 -52q0 -36 -20.5 -52.5t-51.5 -16.5t-52 16.5t-21 52.5q0 35 21 52t52 17zM193 522h2q46 0 66 -18.5t20 -61.5v-363q0 -42 -19.5 -60.5
t-64.5 -18.5h-4q-46 0 -65 18.5t-19 60.5v363q0 43 19.5 61.5t64.5 18.5z" />
    <glyph glyph-name="ntilde" unicode="&#xf1;" horiz-adv-x="563" 
d="M126 522h2q46 0 66 -18.5t20 -61.5v-24q16 45 53 78t98 33q70 0 116.5 -48t46.5 -149v-252q0 -43 -19.5 -61.5t-65.5 -18.5h-8q-81 0 -81 80v209q0 75 -65 75q-34 0 -54.5 -30t-20.5 -83v-172q0 -42 -19.5 -60.5t-64.5 -18.5h-4q-47 0 -66 18t-19 61v363q0 43 20 61.5
t65 18.5zM210 712q34 0 85 -21q39 -16 68 -16q17 0 36 15q12 10 29 -6t17 -39q0 -36 -18 -58q-25 -30 -72 -30q-31 0 -84 21q-39 16 -69 16q-18 0 -36 -14q-12 -10 -28.5 5.5t-16.5 38.5q0 36 18 58q24 30 71 30z" />
    <glyph glyph-name="ograve" unicode="&#xf2;" 
d="M285 529q48 0 93 -16t83.5 -48t62 -85t23.5 -121q0 -67 -23.5 -120t-62 -83.5t-83.5 -46t-93 -15.5t-93 15.5t-84 46t-62.5 83.5t-23.5 120t23.5 121t62.5 85t84 47.5t93 16.5zM284 379q-41 0 -65.5 -29t-24.5 -88t24.5 -88.5t65.5 -29.5t65.5 29t24.5 89q0 59 -24.5 88
t-65.5 29zM335 567l-157 43q-43 15 -38 82v3q4 44 39 44q17 0 39 -11l151 -74q37 -18 34 -54q-3 -37 -44 -37q-13 0 -24 4z" />
    <glyph glyph-name="oacute" unicode="&#xf3;" 
d="M285 529q48 0 93 -16t83.5 -48t62 -85t23.5 -121q0 -67 -23.5 -120t-62 -83.5t-83.5 -46t-93 -15.5t-93 15.5t-84 46t-62.5 83.5t-23.5 120t23.5 121t62.5 85t84 47.5t93 16.5zM284 379q-41 0 -65.5 -29t-24.5 -88t24.5 -88.5t65.5 -29.5t65.5 29t24.5 89q0 59 -24.5 88
t-65.5 29zM382 609l-157 -43q-11 -4 -24 -4q-41 0 -44 37q-3 36 34 54l151 74q22 11 39 11q35 0 39 -44v-3q5 -67 -38 -82z" />
    <glyph glyph-name="ocircumflex" unicode="&#xf4;" 
d="M285 529q48 0 93 -16t83.5 -48t62 -85t23.5 -121q0 -67 -23.5 -120t-62 -83.5t-83.5 -46t-93 -15.5t-93 15.5t-84 46t-62.5 83.5t-23.5 120t23.5 121t62.5 85t84 47.5t93 16.5zM284 379q-41 0 -65.5 -29t-24.5 -88t24.5 -88.5t65.5 -29.5t65.5 29t24.5 89q0 59 -24.5 88
t-65.5 29zM284 739q28 0 51 -17l75 -55q15 -11 21 -16.5t12.5 -15t7.5 -21.5q3 -25 -11.5 -41.5t-32.5 -16.5q-25 0 -38 10l-85 59l-84 -59q-13 -10 -32 -10q-20 0 -35.5 18.5t-14.5 39.5q1 17 10 27.5t30 25.5l76 55q23 17 50 17z" />
    <glyph glyph-name="otilde" unicode="&#xf5;" 
d="M285 529q48 0 93 -16t83.5 -48t62 -85t23.5 -121q0 -67 -23.5 -120t-62 -83.5t-83.5 -46t-93 -15.5t-93 15.5t-84 46t-62.5 83.5t-23.5 120t23.5 121t62.5 85t84 47.5t93 16.5zM284 379q-41 0 -65.5 -29t-24.5 -88t24.5 -88.5t65.5 -29.5t65.5 29t24.5 89q0 59 -24.5 88
t-65.5 29zM213 700q22 3 83 -15q8 -3 21 -7.5t14.5 -4.5t12.5 -2t14 1q5 0 10.5 4t8 7t8 10.5t6.5 8.5q12 11 30.5 -3.5t20.5 -37.5q4 -36 -12 -59q-19 -27 -68 -34q-17 -2 -80 14q-8 3 -21.5 7.5t-15.5 5t-13.5 2.5t-14.5 -1q-6 0 -11.5 -4.5t-13.5 -13.5t-9 -10
q-11 -11 -29 3t-20 37q-4 36 12 59q17 27 67 33z" />
    <glyph glyph-name="odieresis" unicode="&#xf6;" 
d="M285 529q48 0 93 -16t83.5 -48t62 -85t23.5 -121q0 -67 -23.5 -120t-62 -83.5t-83.5 -46t-93 -15.5t-93 15.5t-84 46t-62.5 83.5t-23.5 120t23.5 121t62.5 85t84 47.5t93 16.5zM284 379q-41 0 -65.5 -29t-24.5 -88t24.5 -88.5t65.5 -29.5t65.5 29t24.5 89q0 59 -24.5 88
t-65.5 29zM177 708q30 0 51 -17t21 -52q0 -36 -20.5 -52.5t-51.5 -16.5t-52.5 16.5t-21.5 52.5q0 35 21.5 52t52.5 17zM392 708q30 0 51 -17t21 -52q0 -36 -20.5 -52.5t-51.5 -16.5t-52 16.5t-21 52.5q0 35 21 52t52 17z" />
    <glyph glyph-name="divide" unicode="&#xf7;" horiz-adv-x="599" 
d="M299 614q36 0 60.5 -22t24.5 -59q0 -39 -24.5 -60t-60.5 -21q-35 0 -60 21.5t-25 59.5q0 37 25.5 59t59.5 22zM132 394h334q44 0 61.5 -18t17.5 -59q0 -42 -17.5 -60t-61.5 -18h-334q-44 0 -62 18.5t-18 59.5q0 42 18 59.5t62 17.5zM299 176q36 0 60.5 -21t24.5 -60
q0 -38 -24.5 -60t-60.5 -22q-34 0 -59.5 22t-25.5 60t25 59.5t60 21.5z" />
    <glyph glyph-name="oslash" unicode="&#xf8;" 
d="M285 529q74 0 138 -37l30 37q23 30 50 8q27 -21 4 -50l-30 -38q70 -73 70 -190q0 -67 -23.5 -120t-62 -83.5t-83.5 -46t-93 -15.5q-78 0 -140 36l-22 -28q-23 -30 -50 -8q-27 21 -3 51l21 26q-69 71 -69 188q0 67 23.5 121t62.5 85t84 47.5t93 16.5zM284 379
q-41 0 -65.5 -29t-24.5 -88q0 -31 6 -52l126 159q-20 10 -42 10zM374 262q0 29 -6 50l-126 -159q20 -9 42 -9q41 0 65.5 29t24.5 89z" />
    <glyph glyph-name="ugrave" unicode="&#xf9;" horiz-adv-x="567" 
d="M122 522h8q45 0 63 -26.5t18 -79.5v-164q0 -104 66 -104q41 0 57.5 36.5t16.5 104.5v127q0 53 17.5 79.5t67.5 26.5h4q50 0 67 -20.5t17 -72.5v-335q0 -53 -17.5 -73.5t-67.5 -20.5t-69 20t-19 67v11q-15 -45 -56 -74t-109 -29q-65 0 -107 48.5t-42 146.5v239
q0 50 18.5 71.5t66.5 21.5zM335 567l-157 43q-43 15 -38 82v3q4 44 39 44q17 0 39 -11l151 -74q37 -18 34 -54q-3 -37 -44 -37q-13 0 -24 4z" />
    <glyph glyph-name="uacute" unicode="&#xfa;" horiz-adv-x="567" 
d="M122 522h8q45 0 63 -26.5t18 -79.5v-164q0 -104 66 -104q41 0 57.5 36.5t16.5 104.5v127q0 53 17.5 79.5t67.5 26.5h4q50 0 67 -20.5t17 -72.5v-335q0 -53 -17.5 -73.5t-67.5 -20.5t-69 20t-19 67v11q-15 -45 -56 -74t-109 -29q-65 0 -107 48.5t-42 146.5v239
q0 50 18.5 71.5t66.5 21.5zM382 609l-157 -43q-11 -4 -24 -4q-41 0 -44 37q-3 36 34 54l151 74q22 11 39 11q35 0 39 -44v-3q5 -67 -38 -82z" />
    <glyph glyph-name="ucircumflex" unicode="&#xfb;" horiz-adv-x="567" 
d="M122 522h8q45 0 63 -26.5t18 -79.5v-164q0 -104 66 -104q41 0 57.5 36.5t16.5 104.5v127q0 53 17.5 79.5t67.5 26.5h4q50 0 67 -20.5t17 -72.5v-335q0 -53 -17.5 -73.5t-67.5 -20.5t-69 20t-19 67v11q-15 -45 -56 -74t-109 -29q-65 0 -107 48.5t-42 146.5v239
q0 50 18.5 71.5t66.5 21.5zM282 741q30 0 51 -14l75 -52q16 -11 22 -15.5t12.5 -14t6.5 -20.5q0 -26 -16.5 -40.5t-37.5 -14.5q-23 0 -38 9l-75 47l-75 -47q-15 -9 -38 -9q-20 0 -37 14.5t-17 40.5q0 11 6.5 20.5t13 14.5t20.5 15l76 52q21 14 51 14z" />
    <glyph glyph-name="udieresis" unicode="&#xfc;" horiz-adv-x="567" 
d="M122 522h8q45 0 63 -26.5t18 -79.5v-164q0 -104 66 -104q41 0 57.5 36.5t16.5 104.5v127q0 53 17.5 79.5t67.5 26.5h4q50 0 67 -20.5t17 -72.5v-335q0 -53 -17.5 -73.5t-67.5 -20.5t-69 20t-19 67v11q-15 -45 -56 -74t-109 -29q-65 0 -107 48.5t-42 146.5v239
q0 50 18.5 71.5t66.5 21.5zM175 708q30 0 51 -17t21 -52q0 -36 -20.5 -52.5t-51.5 -16.5t-52.5 16.5t-21.5 52.5q0 35 21.5 52t52.5 17zM390 708q30 0 51 -17t21 -52q0 -36 -20.5 -52.5t-51.5 -16.5t-52 16.5t-21 52.5q0 35 21 52t52 17z" />
    <glyph glyph-name="yacute" unicode="&#xfd;" horiz-adv-x="562" 
d="M87 522h33q64 0 78 -56l3 -12q4 -17 20.5 -86t30 -119.5t29.5 -99.5q53 170 81 317q11 56 78 56h32q72 0 72 -48q0 -2 -8 -37q-66 -280 -190 -555q-17 -38 -37 -60.5t-52 -22.5h-46q-29 0 -46 14.5t-17 40.5q0 18 13 46t32.5 62t25.5 46h-1q-44 12 -77 74q-30 57 -54 124
t-36 112.5t-32 131.5q-4 16 -4 24q0 48 72 48zM382 609l-157 -43q-11 -4 -24 -4q-41 0 -44 37q-3 36 34 54l151 74q22 11 39 11q35 0 39 -44v-3q5 -67 -38 -82z" />
    <glyph glyph-name="ydieresis" unicode="&#xff;" horiz-adv-x="563" 
d="M87 522h33q64 0 78 -56l3 -12q4 -17 20.5 -86t30 -119.5t29.5 -99.5q53 170 81 317q11 56 78 56h32q72 0 72 -48q0 -2 -8 -37q-66 -280 -190 -555q-17 -38 -37 -60.5t-52 -22.5h-46q-29 0 -46 14.5t-17 40.5q0 18 13 46t32.5 62t25.5 46h-1q-44 12 -77 74q-30 57 -54 124
t-36 112.5t-32 131.5q-4 16 -4 24q0 48 72 48zM174 715q30 0 51 -16.5t21 -52.5t-20.5 -52.5t-51.5 -16.5t-52.5 16.5t-21.5 52.5q0 35 21.5 52t52.5 17zM389 715q30 0 51 -16.5t21 -52.5t-20.5 -52.5t-51.5 -16.5t-52 16.5t-21 52.5q0 35 21 52t52 17z" />
    <glyph glyph-name="Amacron" unicode="&#x100;" horiz-adv-x="692" 
d="M335 674h22q58 0 95.5 -29t54.5 -78q94 -277 139 -454q9 -39 9 -50q0 -63 -84 -63h-26q-25 0 -42.5 7.5t-28 16.5t-19 31.5t-12 38t-10.5 50.5l-3 15h-168q-11 -52 -16.5 -74t-18.5 -46t-31.5 -31.5t-48.5 -7.5h-26q-84 0 -84 57q0 22 9 56q58 229 139 454
q39 107 150 107zM346 508q-31 -67 -62 -211h124q-26 124 -62 211zM215 816h259q61 0 61 -57t-61 -57h-259q-60 0 -60 57t60 57z" />
    <glyph glyph-name="amacron" unicode="&#x101;" horiz-adv-x="544" 
d="M257 528q123 0 177 -58t54 -164v-122q0 -94 41 -111q-5 -30 -29 -53.5t-70 -23.5q-72 0 -94 75l-2 1q-13 -29 -48 -53t-91 -24q-74 0 -123.5 42t-49.5 117q0 77 57.5 120.5t142.5 43.5q36 0 109 -15v12q0 63 -104 63q-78 0 -128 -36q-47 20 -47 76q0 47 55.5 78.5
t149.5 31.5zM256 224q-32 0 -53.5 -13.5t-21.5 -40.5q0 -24 19 -37.5t49 -13.5q36 0 59 24.5t23 56.5v9q-30 15 -75 15zM141 683h259q61 0 61 -57t-61 -57h-259q-60 0 -60 57t60 57z" />
    <glyph glyph-name="Abreve" unicode="&#x102;" horiz-adv-x="692" 
d="M335 674h22q58 0 95.5 -29t54.5 -78q94 -277 139 -454q9 -39 9 -50q0 -63 -84 -63h-26q-25 0 -42.5 7.5t-28 16.5t-19 31.5t-12 38t-10.5 50.5l-3 15h-168q-11 -52 -16.5 -74t-18.5 -46t-31.5 -31.5t-48.5 -7.5h-26q-84 0 -84 57q0 22 9 56q58 229 139 454
q39 107 150 107zM346 508q-31 -67 -62 -211h124q-26 124 -62 211zM344 817q31 0 51 15.5t33.5 30.5t27.5 15q18 0 32.5 -11t14.5 -29q0 -43 -41 -82.5t-118 -39.5q-72 0 -115.5 39.5t-43.5 81.5q0 17 15.5 30t34.5 13q13 0 24 -10t19 -21.5t25 -21.5t41 -10z" />
    <glyph glyph-name="abreve" unicode="&#x103;" horiz-adv-x="544" 
d="M257 528q123 0 177 -58t54 -164v-122q0 -94 41 -111q-5 -30 -29 -53.5t-70 -23.5q-72 0 -94 75l-2 1q-13 -29 -48 -53t-91 -24q-74 0 -123.5 42t-49.5 117q0 77 57.5 120.5t142.5 43.5q36 0 109 -15v12q0 63 -104 63q-78 0 -128 -36q-47 20 -47 76q0 47 55.5 78.5
t149.5 31.5zM256 224q-32 0 -53.5 -13.5t-21.5 -40.5q0 -24 19 -37.5t49 -13.5q36 0 59 24.5t23 56.5v9q-30 15 -75 15zM278 667q31 0 51 15.5t33.5 30.5t27.5 15q18 0 32.5 -11t14.5 -29q0 -43 -41 -82.5t-118 -39.5q-72 0 -115.5 39.5t-43.5 81.5q0 17 15.5 30t34.5 13
q13 0 24 -10t19 -21.5t25 -21.5t41 -10z" />
    <glyph glyph-name="Aogonek" unicode="&#x104;" horiz-adv-x="691" 
d="M335 674h22q58 0 95.5 -29t54.5 -78q94 -277 139 -454q9 -39 9 -50q0 -60 -73 -63v-2q-36 0 -36 -24q0 -11 12 -20t32 -9q34 0 38 17q32 -8 32 -45q0 -29 -26 -48t-69 -19q-56 0 -84.5 29.5t-28.5 67.5q0 42 32 68q-5 4 -9.5 8.5t-7.5 9t-6.5 11.5t-5.5 12t-5 14
t-4.5 14.5t-4 17.5t-3.5 17.5t-4 19.5t-4 20h-168q-11 -52 -16.5 -74t-18.5 -46t-31.5 -31.5t-48.5 -7.5h-26q-84 0 -84 57q0 22 9 56q58 229 139 454q39 107 150 107zM346 508q-31 -67 -62 -211h124q-26 124 -62 211z" />
    <glyph glyph-name="aogonek" unicode="&#x105;" horiz-adv-x="544" 
d="M257 528q123 0 177 -58t54 -164v-122q0 -94 41 -111q-5 -30 -29 -53.5t-70 -23.5h-1q-16 -5 -16 -21q0 -11 12 -20t32 -9q34 0 38 17q32 -8 32 -45q0 -29 -26 -48t-69 -19q-56 0 -84.5 29.5t-28.5 67.5q0 49 42 75q-16 17 -25 48l-2 1q-13 -29 -48 -53t-91 -24
q-74 0 -123.5 42t-49.5 117q0 77 57.5 120.5t142.5 43.5q36 0 109 -15v12q0 63 -104 63q-78 0 -128 -36q-47 20 -47 76q0 47 55.5 78.5t149.5 31.5zM256 224q-32 0 -53.5 -13.5t-21.5 -40.5q0 -24 19 -37.5t49 -13.5q36 0 59 24.5t23 56.5v9q-30 15 -75 15z" />
    <glyph glyph-name="Cacute" unicode="&#x106;" horiz-adv-x="665" 
d="M370 682q108 0 172.5 -45t64.5 -110q0 -41 -29.5 -64t-73.5 -26q-27 70 -129 70q-69 0 -108.5 -46.5t-39.5 -126.5t41 -125t107 -45q92 0 133 70q42 -4 73 -29.5t31 -65.5q0 -63 -67 -105.5t-170 -42.5q-68 0 -127.5 20.5t-107.5 61t-76 107.5t-28 154t27 154.5t73.5 109
t105.5 63t128 21.5zM439 778l-163 -49q-21 -6 -42 -6q-14 0 -24 9.5t-10 27.5v9q0 32 34 49l158 81q28 13 47 13q35 0 35 -50q0 -74 -35 -84z" />
    <glyph glyph-name="cacute" unicode="&#x107;" horiz-adv-x="505" 
d="M289 532q90 0 138.5 -37.5t48.5 -88.5q0 -32 -25 -53.5t-66 -21.5q-27 41 -86 41q-49 0 -77.5 -29.5t-28.5 -84.5t28.5 -84.5t77.5 -29.5q66 0 97 38q36 -1 60.5 -23t24.5 -52q0 -49 -53 -82.5t-134 -33.5q-112 0 -192 67.5t-80 199.5q0 134 78 204t189 70zM355 604
l-163 -49q-21 -6 -42 -6q-14 0 -24 9.5t-10 27.5v9q0 32 34 49l158 81q28 13 47 13q35 0 35 -50q0 -74 -35 -84z" />
    <glyph glyph-name="Ccircumflex" unicode="&#x108;" horiz-adv-x="665" 
d="M370 682q108 0 172.5 -45t64.5 -110q0 -41 -29.5 -64t-73.5 -26q-27 70 -129 70q-69 0 -108.5 -46.5t-39.5 -126.5t41 -125t107 -45q92 0 133 70q42 -4 73 -29.5t31 -65.5q0 -63 -67 -105.5t-170 -42.5q-68 0 -127.5 20.5t-107.5 61t-76 107.5t-28 154t27 154.5t73.5 109
t105.5 63t128 21.5zM337 894q30 0 51 -14l75 -52q16 -11 22 -15.5t12.5 -14t6.5 -20.5q0 -26 -16.5 -40.5t-37.5 -14.5q-23 0 -38 9l-75 47l-75 -47q-15 -9 -38 -9q-20 0 -37 14.5t-17 40.5q0 11 6.5 20.5t13 14.5t20.5 15l76 52q21 14 51 14z" />
    <glyph glyph-name="ccircumflex" unicode="&#x109;" horiz-adv-x="505" 
d="M289 532q90 0 138.5 -37.5t48.5 -88.5q0 -32 -25 -53.5t-66 -21.5q-27 41 -86 41q-49 0 -77.5 -29.5t-28.5 -84.5t28.5 -84.5t77.5 -29.5q66 0 97 38q36 -1 60.5 -23t24.5 -52q0 -49 -53 -82.5t-134 -33.5q-112 0 -192 67.5t-80 199.5q0 134 78 204t189 70zM281 734
q30 0 51 -14l75 -52q16 -11 22 -15.5t12.5 -14t6.5 -20.5q0 -26 -16.5 -40.5t-37.5 -14.5q-23 0 -38 9l-75 47l-75 -47q-15 -9 -38 -9q-20 0 -37 14.5t-17 40.5q0 11 6.5 20.5t13 14.5t20.5 15l76 52q21 14 51 14z" />
    <glyph glyph-name="Cdotaccent" unicode="&#x10a;" horiz-adv-x="665" 
d="M370 682q108 0 172.5 -45t64.5 -110q0 -41 -29.5 -64t-73.5 -26q-27 70 -129 70q-69 0 -108.5 -46.5t-39.5 -126.5t41 -125t107 -45q92 0 133 70q42 -4 73 -29.5t31 -65.5q0 -63 -67 -105.5t-170 -42.5q-68 0 -127.5 20.5t-107.5 61t-76 107.5t-28 154t27 154.5t73.5 109
t105.5 63t128 21.5zM247 810q0 41 25 63.5t64 22.5t64 -22.5t25 -63.5t-25 -64t-64 -23t-64 23t-25 64z" />
    <glyph glyph-name="cdotaccent" unicode="&#x10b;" horiz-adv-x="505" 
d="M289 532q90 0 138.5 -37.5t48.5 -88.5q0 -32 -25 -53.5t-66 -21.5q-27 41 -86 41q-49 0 -77.5 -29.5t-28.5 -84.5t28.5 -84.5t77.5 -29.5q66 0 97 38q36 -1 60.5 -23t24.5 -52q0 -49 -53 -82.5t-134 -33.5q-112 0 -192 67.5t-80 199.5q0 134 78 204t189 70zM191 655
q0 41 25 63.5t64 22.5t64 -22.5t25 -63.5t-25 -64t-64 -23t-64 23t-25 64z" />
    <glyph glyph-name="Ccaron" unicode="&#x10c;" horiz-adv-x="665" 
d="M370 682q108 0 172.5 -45t64.5 -110q0 -41 -29.5 -64t-73.5 -26q-27 70 -129 70q-69 0 -108.5 -46.5t-39.5 -126.5t41 -125t107 -45q92 0 133 70q42 -4 73 -29.5t31 -65.5q0 -63 -67 -105.5t-170 -42.5q-68 0 -127.5 20.5t-107.5 61t-76 107.5t-28 154t27 154.5t73.5 109
t105.5 63t128 21.5zM224 894q23 0 38 -10l75 -47l75 47q15 10 38 10q21 0 37.5 -14.5t16.5 -41.5q0 -10 -6.5 -19.5t-13 -14.5t-21.5 -16l-75 -52q-19 -13 -51 -13q-30 0 -51 14l-76 51q-40 27 -40 50q0 27 17 41.5t37 14.5z" />
    <glyph glyph-name="ccaron" unicode="&#x10d;" horiz-adv-x="505" 
d="M289 532q90 0 138.5 -37.5t48.5 -88.5q0 -32 -25 -53.5t-66 -21.5q-27 41 -86 41q-49 0 -77.5 -29.5t-28.5 -84.5t28.5 -84.5t77.5 -29.5q66 0 97 38q36 -1 60.5 -23t24.5 -52q0 -49 -53 -82.5t-134 -33.5q-112 0 -192 67.5t-80 199.5q0 134 78 204t189 70zM168 741
q23 0 38 -10l75 -47l75 47q15 10 38 10q21 0 37.5 -14.5t16.5 -41.5q0 -10 -6.5 -19.5t-13 -14.5t-21.5 -16l-75 -52q-20 -13 -51 -13q-30 0 -51 14l-76 51q-40 27 -40 50q0 27 17 41.5t37 14.5z" />
    <glyph glyph-name="Dcaron" unicode="&#x10e;" horiz-adv-x="694" 
d="M149 673h163q169 0 258 -84.5t89 -250.5t-89 -252t-258 -86h-163q-46 0 -65 18.5t-19 60.5v514q0 43 19.5 61.5t64.5 18.5zM250 504v-335h84q66 0 106 44.5t40 122.5q0 79 -40 123.5t-106 44.5h-84zM203 894q23 0 38 -10l75 -47l75 47q15 10 38 10q21 0 37.5 -14.5
t16.5 -41.5q0 -10 -6.5 -19.5t-13 -14.5t-21.5 -16l-75 -52q-19 -13 -51 -13q-30 0 -51 14l-76 51q-40 27 -40 50q0 27 17 41.5t37 14.5z" />
    <glyph glyph-name="dcaron" unicode="&#x10f;" horiz-adv-x="798" 
d="M462 720h4q44 0 64 -19.5t20 -60.5v-562q0 -42 -19 -60t-65 -18h-6q-41 0 -61.5 16t-20.5 42v18q-17 -33 -53 -56.5t-85 -23.5q-95 0 -152.5 64.5t-57.5 200.5q0 135 57.5 200t152.5 65q44 0 82 -19t55 -46v179q0 43 19.5 61.5t65.5 18.5zM295 378q-86 0 -86 -118
q0 -114 85 -114q38 0 59.5 32t21.5 85v16q0 50 -23 74.5t-57 24.5zM639 395q-28 0 -41 12.5t-13 30.5q40 13 64 38.5t24 58.5q-33 -5 -57 8q-36 21 -36 62t26.5 68t69.5 27q45 0 77 -34.5t32 -88.5q0 -77 -44 -129.5t-102 -52.5z" />
    <glyph glyph-name="Dcroat" unicode="&#x110;" horiz-adv-x="693" 
d="M48 388h17v205q0 43 19.5 61.5t64.5 18.5h163q169 0 258 -84.5t89 -250.5t-89 -252t-258 -86h-163q-46 0 -65 18.5t-19 60.5v195h-17q-60 0 -60 57t60 57zM250 504v-116h57q61 0 61 -57t-61 -57h-57v-105h84q66 0 106 44.5t40 122.5q0 79 -40 123.5t-106 44.5h-84z" />
    <glyph glyph-name="dcroat" unicode="&#x111;" horiz-adv-x="620" 
d="M462 720h4q44 0 64 -19.5t20 -60.5v-5q33 0 46.5 -9t13.5 -38q0 -27 -14.5 -37.5t-45.5 -10.5v-462q0 -42 -19 -60t-65 -18h-6q-41 0 -61.5 16t-20.5 42v18q-17 -33 -53 -56.5t-85 -23.5q-95 0 -152.5 64.5t-57.5 200.5q0 135 57.5 200t152.5 65q44 0 82 -19t55 -46v79
h-37q-31 0 -46 10.5t-15 37.5q0 29 14 38t47 9h37v5q0 43 19.5 61.5t65.5 18.5zM295 378q-86 0 -86 -118q0 -114 85 -114q38 0 59.5 32t21.5 85v16q0 50 -23 74.5t-57 24.5z" />
    <glyph glyph-name="Emacron" unicode="&#x112;" horiz-adv-x="578" 
d="M150 673h314q77 0 77 -83t-77 -83h-213v-99h165q38 0 57.5 -14.5t19.5 -52.5t-19.5 -52.5t-57.5 -14.5h-165v-109h220q77 0 77 -82q0 -83 -77 -83h-321q-47 0 -66 18t-19 61v513q0 43 19.5 62t65.5 19zM159 830h259q61 0 61 -57t-61 -57h-259q-60 0 -60 57t60 57z" />
    <glyph glyph-name="emacron" unicode="&#x113;" horiz-adv-x="516" 
d="M284 528q97 0 153 -51t56 -126t-52.5 -113.5t-132.5 -38.5t-129 23q0 -41 40 -65t99 -24q77 0 120 41q19 -7 32.5 -28t13.5 -44q0 -35 -30.5 -61t-73 -37.5t-87.5 -11.5q-123 0 -197 66.5t-74 195.5q0 130 73.5 202t188.5 72zM276 393q-32 0 -57 -22t-28 -59
q27 -20 99 -20q62 0 62 49q0 22 -21.5 37t-54.5 15zM134 683h259q61 0 61 -57t-61 -57h-259q-60 0 -60 57t60 57z" />
    <glyph glyph-name="Ebreve" unicode="&#x114;" horiz-adv-x="578" 
d="M150 673h314q77 0 77 -83t-77 -83h-213v-99h165q38 0 57.5 -14.5t19.5 -52.5t-19.5 -52.5t-57.5 -14.5h-165v-109h220q77 0 77 -82q0 -83 -77 -83h-321q-47 0 -66 18t-19 61v513q0 43 19.5 62t65.5 19zM288 812q27 0 48 13.5t37 27t31 13.5q18 0 30.5 -10.5t12.5 -28.5
q0 -40 -45.5 -78t-113.5 -38q-64 0 -111.5 38t-47.5 77q0 17 12 28.5t31 11.5q17 0 50 -27t66 -27z" />
    <glyph glyph-name="ebreve" unicode="&#x115;" horiz-adv-x="516" 
d="M284 528q97 0 153 -51t56 -126t-52.5 -113.5t-132.5 -38.5t-129 23q0 -41 40 -65t99 -24q77 0 120 41q19 -7 32.5 -28t13.5 -44q0 -35 -30.5 -61t-73 -37.5t-87.5 -11.5q-123 0 -197 66.5t-74 195.5q0 130 73.5 202t188.5 72zM276 393q-32 0 -57 -22t-28 -59
q27 -20 99 -20q62 0 62 49q0 22 -21.5 37t-54.5 15zM264 672q27 0 48 13.5t37 27t31 13.5q18 0 30.5 -10.5t12.5 -28.5q0 -40 -45.5 -78t-113.5 -38q-64 0 -111.5 38t-47.5 77q0 17 12 28.5t31 11.5q17 0 50 -27t66 -27z" />
    <glyph glyph-name="Edotaccent" unicode="&#x116;" horiz-adv-x="578" 
d="M150 673h314q77 0 77 -83t-77 -83h-213v-99h165q38 0 57.5 -14.5t19.5 -52.5t-19.5 -52.5t-57.5 -14.5h-165v-109h220q77 0 77 -82q0 -83 -77 -83h-321q-47 0 -66 18t-19 61v513q0 43 19.5 62t65.5 19zM199 790q0 41 25 63.5t64 22.5t64 -22.5t25 -63.5t-25 -64t-64 -23
t-64 23t-25 64z" />
    <glyph glyph-name="edotaccent" unicode="&#x117;" horiz-adv-x="516" 
d="M284 528q97 0 153 -51t56 -126t-52.5 -113.5t-132.5 -38.5t-129 23q0 -41 40 -65t99 -24q77 0 120 41q19 -7 32.5 -28t13.5 -44q0 -35 -30.5 -61t-73 -37.5t-87.5 -11.5q-123 0 -197 66.5t-74 195.5q0 130 73.5 202t188.5 72zM276 393q-32 0 -57 -22t-28 -59
q27 -20 99 -20q62 0 62 49q0 22 -21.5 37t-54.5 15zM182 657q0 41 25 63.5t64 22.5t64 -22.5t25 -63.5t-25 -64t-64 -23t-64 23t-25 64z" />
    <glyph glyph-name="Eogonek" unicode="&#x118;" horiz-adv-x="579" 
d="M153 673h314q77 0 77 -83t-77 -83h-213v-99h165q38 0 57.5 -14.5t19.5 -52.5t-19.5 -52.5t-57.5 -14.5h-165v-109h220q77 0 77 -82q0 -81 -72 -83h-5h-1q-30 -2 -30 -24q0 -11 12 -20t32 -9q34 0 38 17q32 -8 32 -45q0 -29 -26 -48t-69 -19q-56 0 -84.5 29.5t-28.5 67.5
q0 30 15 51h-211q-47 0 -66 18t-19 61v513q0 43 19.5 62t65.5 19z" />
    <glyph glyph-name="eogonek" unicode="&#x119;" horiz-adv-x="516" 
d="M372 45v-43q-6 -2 -8 -2q-28 -4 -28 -24q0 -11 12 -20t32 -9q34 0 38 17q32 -8 32 -45q0 -29 -26 -48t-69 -19q-56 0 -84.5 29.5t-28.5 67.5q0 25 12 45q-107 10 -169.5 76t-62.5 184q0 130 73.5 202t188.5 72q97 0 153 -51t56 -126t-52.5 -113.5t-132.5 -38.5t-129 23
q0 -41 40 -65t99 -24q77 0 120 41q19 -7 32.5 -28t13.5 -44q0 -37 -31.5 -62.5t-80.5 -37.5v-2h-8q-32 -8 -71 -8q-15 0 -39 2q29 51 118 51zM276 393q-32 0 -57 -22t-28 -59q27 -20 99 -20q62 0 62 49q0 22 -21.5 37t-54.5 15z" />
    <glyph glyph-name="Ecaron" unicode="&#x11a;" horiz-adv-x="575" 
d="M150 673h314q77 0 77 -83t-77 -83h-213v-99h165q38 0 57.5 -14.5t19.5 -52.5t-19.5 -52.5t-57.5 -14.5h-165v-109h220q77 0 77 -82q0 -83 -77 -83h-321q-47 0 -66 18t-19 61v513q0 43 19.5 62t65.5 19zM178 894q23 0 38 -10l75 -47l75 47q15 10 38 10q21 0 37.5 -14.5
t16.5 -41.5q0 -10 -6.5 -19.5t-13 -14.5t-21.5 -16l-75 -52q-20 -13 -51 -13q-30 0 -51 14l-76 51q-40 27 -40 50q0 27 17 41.5t37 14.5z" />
    <glyph glyph-name="ecaron" unicode="&#x11b;" horiz-adv-x="516" 
d="M284 528q97 0 153 -51t56 -126t-52.5 -113.5t-132.5 -38.5t-129 23q0 -41 40 -65t99 -24q77 0 120 41q19 -7 32.5 -28t13.5 -44q0 -35 -30.5 -61t-73 -37.5t-87.5 -11.5q-123 0 -197 66.5t-74 195.5q0 130 73.5 202t188.5 72zM276 393q-32 0 -57 -22t-28 -59
q27 -20 99 -20q62 0 62 49q0 22 -21.5 37t-54.5 15zM159 737q23 0 38 -10l75 -47l75 47q15 10 38 10q21 0 37.5 -14.5t16.5 -41.5q0 -10 -6.5 -19.5t-13 -14.5t-21.5 -16l-75 -52q-19 -13 -51 -13q-30 0 -51 14l-76 51q-40 27 -40 50q0 27 17 41.5t37 14.5z" />
    <glyph glyph-name="Gcircumflex" unicode="&#x11c;" horiz-adv-x="683" 
d="M359 682q109 0 175.5 -40.5t66.5 -107.5q0 -32 -23 -56t-63 -29q-24 28 -55 42.5t-91 14.5q-67 0 -108.5 -45.5t-41.5 -126.5q0 -84 41.5 -127t110.5 -43q54 0 84.5 27t30.5 61q0 10 -12 10h-57q-28 0 -44.5 17t-16.5 46t16 45t45 16h163q30 0 52.5 -20.5t22.5 -51.5v-45
q0 -50 -18 -97.5t-52 -88.5t-92.5 -66.5t-132.5 -25.5q-63 0 -120 19.5t-105.5 58.5t-77.5 108t-29 159q0 91 29.5 160t78.5 108.5t105.5 58.5t117.5 19zM341 899q30 0 51 -14l75 -52q16 -11 22 -15.5t12.5 -14t6.5 -20.5q0 -26 -16.5 -40.5t-37.5 -14.5q-23 0 -38 9l-75 47
l-75 -47q-15 -9 -38 -9q-20 0 -37 14.5t-17 40.5q0 11 6.5 20.5t13 14.5t20.5 15l76 52q21 14 51 14z" />
    <glyph glyph-name="gcircumflex" unicode="&#x11d;" horiz-adv-x="550" 
d="M426 593q49 0 76 -22t27 -60q0 -28 -20.5 -50.5t-47.5 -34.5q27 -27 27 -84q0 -94 -66.5 -137.5t-159.5 -43.5q-2 0 -6.5 0.5t-6.5 0.5q-19 0 -33.5 -5.5t-14.5 -13.5q0 -18 34 -18h83q103 0 156.5 -32t53.5 -109q0 -83 -75.5 -135t-188.5 -52h-19q-99 0 -165.5 32.5
t-66.5 90.5q0 43 31.5 62t96.5 19q-1 -4 -1 -12q0 -66 121 -66h3q114 0 114 40q0 34 -68 34q-70 0 -115 3.5t-83.5 14t-56.5 31.5t-18 54q0 65 90 90q-92 44 -92 154q0 87 66.5 135.5t162.5 48.5q65 0 123 -35q31 35 39 100zM262 411q-30 0 -49.5 -17.5t-19.5 -54.5
q0 -36 20 -54t49 -18t49 18t20 54q0 37 -19.5 54.5t-49.5 17.5zM236 720q30 0 51 -14l75 -52q16 -11 22 -15.5t12.5 -14t6.5 -20.5q0 -26 -16.5 -40.5t-37.5 -14.5q-23 0 -38 9l-75 47l-75 -47q-15 -9 -38 -9q-20 0 -37 14.5t-17 40.5q0 11 6.5 20.5t13 14.5t20.5 15l76 52
q21 14 51 14z" />
    <glyph glyph-name="Gbreve" unicode="&#x11e;" horiz-adv-x="683" 
d="M359 682q109 0 175.5 -40.5t66.5 -107.5q0 -32 -23 -56t-63 -29q-24 28 -55 42.5t-91 14.5q-67 0 -108.5 -45.5t-41.5 -126.5q0 -84 41.5 -127t110.5 -43q54 0 84.5 27t30.5 61q0 10 -12 10h-57q-28 0 -44.5 17t-16.5 46t16 45t45 16h163q30 0 52.5 -20.5t22.5 -51.5v-45
q0 -50 -18 -97.5t-52 -88.5t-92.5 -66.5t-132.5 -25.5q-63 0 -120 19.5t-105.5 58.5t-77.5 108t-29 159q0 91 29.5 160t78.5 108.5t105.5 58.5t117.5 19zM340 823q27 0 48 13.5t37 27t31 13.5q18 0 30.5 -10.5t12.5 -28.5q0 -40 -45.5 -78t-113.5 -38q-64 0 -111.5 38
t-47.5 77q0 17 12 28.5t31 11.5q17 0 50 -27t66 -27z" />
    <glyph glyph-name="gbreve" unicode="&#x11f;" horiz-adv-x="550" 
d="M426 593q49 0 76 -22t27 -60q0 -28 -20.5 -50.5t-47.5 -34.5q27 -27 27 -84q0 -94 -66.5 -137.5t-159.5 -43.5q-2 0 -6.5 0.5t-6.5 0.5q-19 0 -33.5 -5.5t-14.5 -13.5q0 -18 34 -18h83q103 0 156.5 -32t53.5 -109q0 -83 -75.5 -135t-188.5 -52h-19q-99 0 -165.5 32.5
t-66.5 90.5q0 43 31.5 62t96.5 19q-1 -4 -1 -12q0 -66 121 -66h3q114 0 114 40q0 34 -68 34q-70 0 -115 3.5t-83.5 14t-56.5 31.5t-18 54q0 65 90 90q-92 44 -92 154q0 87 66.5 135.5t162.5 48.5q65 0 123 -35q31 35 39 100zM262 411q-30 0 -49.5 -17.5t-19.5 -54.5
q0 -36 20 -54t49 -18t49 18t20 54q0 37 -19.5 54.5t-49.5 17.5zM271 658q27 0 48 13.5t37 27t31 13.5q18 0 30.5 -10.5t12.5 -28.5q0 -40 -45.5 -78t-113.5 -38q-64 0 -111.5 38t-47.5 77q0 17 12 28.5t31 11.5q17 0 50 -27t66 -27z" />
    <glyph glyph-name="Gdotaccent" unicode="&#x120;" horiz-adv-x="683" 
d="M359 682q109 0 175.5 -40.5t66.5 -107.5q0 -32 -23 -56t-63 -29q-24 28 -55 42.5t-91 14.5q-67 0 -108.5 -45.5t-41.5 -126.5q0 -84 41.5 -127t110.5 -43q54 0 84.5 27t30.5 61q0 10 -12 10h-57q-28 0 -44.5 17t-16.5 46t16 45t45 16h163q30 0 52.5 -20.5t22.5 -51.5v-45
q0 -50 -18 -97.5t-52 -88.5t-92.5 -66.5t-132.5 -25.5q-63 0 -120 19.5t-105.5 58.5t-77.5 108t-29 159q0 91 29.5 160t78.5 108.5t105.5 58.5t117.5 19zM271 808q0 41 25 63.5t64 22.5t64 -22.5t25 -63.5t-25 -64t-64 -23t-64 23t-25 64z" />
    <glyph glyph-name="gdotaccent" unicode="&#x121;" horiz-adv-x="550" 
d="M426 593q49 0 76 -22t27 -60q0 -28 -20.5 -50.5t-47.5 -34.5q27 -27 27 -84q0 -94 -66.5 -137.5t-159.5 -43.5q-2 0 -6.5 0.5t-6.5 0.5q-19 0 -33.5 -5.5t-14.5 -13.5q0 -18 34 -18h83q103 0 156.5 -32t53.5 -109q0 -83 -75.5 -135t-188.5 -52h-19q-99 0 -165.5 32.5
t-66.5 90.5q0 43 31.5 62t96.5 19q-1 -4 -1 -12q0 -66 121 -66h3q114 0 114 40q0 34 -68 34q-70 0 -115 3.5t-83.5 14t-56.5 31.5t-18 54q0 65 90 90q-92 44 -92 154q0 87 66.5 135.5t162.5 48.5q65 0 123 -35q31 35 39 100zM262 411q-30 0 -49.5 -17.5t-19.5 -54.5
q0 -36 20 -54t49 -18t49 18t20 54q0 37 -19.5 54.5t-49.5 17.5zM185 643q0 41 25 63.5t64 22.5t64 -22.5t25 -63.5t-25 -64t-64 -23t-64 23t-25 64z" />
    <glyph glyph-name="Gcommaaccent" unicode="&#x122;" horiz-adv-x="683" 
d="M359 682q109 0 175.5 -40.5t66.5 -107.5q0 -32 -23 -56t-63 -29q-24 28 -55 42.5t-91 14.5q-67 0 -108.5 -45.5t-41.5 -126.5q0 -84 41.5 -127t110.5 -43q54 0 84.5 27t30.5 61q0 10 -12 10h-57q-28 0 -44.5 17t-16.5 46t16 45t45 16h163q30 0 52.5 -20.5t22.5 -51.5v-45
q0 -50 -18 -97.5t-52 -88.5t-92.5 -66.5t-132.5 -25.5q-63 0 -120 19.5t-105.5 58.5t-77.5 108t-29 159q0 91 29.5 160t78.5 108.5t105.5 58.5t117.5 19zM335 -37q45 0 77 -34.5t32 -88.5q0 -77 -44.5 -129.5t-102.5 -52.5q-28 0 -41 12.5t-13 30.5q40 13 64 38.5t24 58.5
q-33 -5 -56 8q-36 20 -36 62q0 41 26.5 68t69.5 27z" />
    <glyph glyph-name="gcommaaccent" unicode="&#x123;" horiz-adv-x="543" 
d="M426 593q49 0 76 -22t27 -60q0 -28 -20.5 -50.5t-47.5 -34.5q27 -27 27 -84q0 -94 -66.5 -137.5t-159.5 -43.5q-2 0 -6.5 0.5t-6.5 0.5q-19 0 -33.5 -5.5t-14.5 -13.5q0 -18 34 -18h83q103 0 156.5 -32t53.5 -109q0 -83 -75.5 -135t-188.5 -52h-19q-99 0 -165.5 32.5
t-66.5 90.5q0 43 31.5 62t96.5 19q-1 -4 -1 -12q0 -66 121 -66h3q114 0 114 40q0 34 -68 34q-70 0 -115 3.5t-83.5 14t-56.5 31.5t-18 54q0 65 90 90q-92 44 -92 154q0 87 66.5 135.5t162.5 48.5q65 0 123 -35q31 35 39 100zM262 411q-30 0 -49.5 -17.5t-19.5 -54.5
q0 -36 20 -54t49 -18t49 18t20 54q0 37 -19.5 54.5t-49.5 17.5zM314 854q28 0 41 -12.5t13 -30.5q-40 -13 -64 -38.5t-24 -58.5q33 5 56 -8q37 -21 37 -62q0 -40 -27 -67.5t-69 -27.5q-46 0 -78 34.5t-32 88.5q0 77 44.5 129.5t102.5 52.5z" />
    <glyph glyph-name="Hcircumflex" unicode="&#x124;" horiz-adv-x="730" 
d="M150 673h16q46 0 65.5 -19t19.5 -62v-173h228v173q0 43 19.5 62t64.5 19h17q45 0 64.5 -19t19.5 -62v-513q0 -42 -19.5 -60.5t-64.5 -18.5h-17q-46 0 -65 18.5t-19 60.5v184h-228v-184q0 -42 -19.5 -60.5t-65.5 -18.5h-16q-47 0 -66 18t-19 61v513q0 43 19.5 62t65.5 19z
M364 894q30 0 51 -14l75 -52q16 -11 22 -15.5t12.5 -14t6.5 -20.5q0 -26 -16.5 -40.5t-37.5 -14.5q-23 0 -38 9l-75 47l-75 -47q-15 -9 -38 -9q-20 0 -37 14.5t-17 40.5q0 11 6.5 20.5t13 14.5t20.5 15l76 52q21 14 51 14z" />
    <glyph glyph-name="hcircumflex" unicode="&#x125;" horiz-adv-x="565" 
d="M126 714h2q46 0 66 -18.5t20 -61.5v-220q16 47 52.5 80.5t98.5 33.5q71 0 117 -47.5t46 -148.5v-252q0 -43 -19.5 -61.5t-65.5 -18.5h-8q-81 0 -81 80v203q0 77 -65 77q-35 0 -55 -31.5t-20 -84.5v-165q0 -42 -19.5 -60.5t-64.5 -18.5h-4q-47 0 -66 18t-19 61v555
q0 43 20 61.5t65 18.5zM133 884q30 0 51 -14l75 -52q16 -11 22 -15.5t12.5 -14t6.5 -20.5q0 -26 -16.5 -40.5t-37.5 -14.5q-23 0 -38 9l-75 47l-75 -47q-15 -9 -38 -9q-20 0 -37 14.5t-17 40.5q0 11 6.5 20.5t13 14.5t20.5 15l76 52q21 14 51 14z" />
    <glyph glyph-name="Hbar" unicode="&#x126;" horiz-adv-x="769" 
d="M171 673h16q46 0 65.5 -19t19.5 -62v-45h228v45q0 43 19.5 62t64.5 19h17q45 0 64.5 -19t19.5 -62v-45h14q27 0 40 -9t13 -34t-13 -34t-40 -9h-14v-382q0 -42 -19.5 -60.5t-64.5 -18.5h-17q-46 0 -65 18.5t-19 60.5v184h-228v-184q0 -42 -19.5 -60.5t-65.5 -18.5h-16
q-47 0 -66 18t-19 61v382h-17q-28 0 -41 9t-13 34t13 34t41 9h17v45q0 43 19.5 62t65.5 19zM272 419h228v42h-228v-42z" />
    <glyph glyph-name="hbar" unicode="&#x127;" 
d="M126 714h2q46 0 66 -18.5t20 -61.5v-2h32q38 0 54.5 -12t16.5 -45q0 -54 -59 -54h-44v-107q16 47 52.5 80.5t98.5 33.5q71 0 117 -47.5t46 -148.5v-252q0 -43 -19.5 -61.5t-65.5 -18.5h-8q-81 0 -81 80v203q0 77 -65 77q-35 0 -55 -31.5t-20 -84.5v-165
q0 -42 -19.5 -60.5t-64.5 -18.5h-4q-47 0 -66 18t-19 61v442q-31 2 -45.5 14t-14.5 40q0 31 14 43t46 14v2q0 43 20 61.5t65 18.5z" />
    <glyph glyph-name="Itilde" unicode="&#x128;" horiz-adv-x="316" 
d="M150 673h16q46 0 65.5 -19t19.5 -62v-513q0 -42 -19.5 -60.5t-65.5 -18.5h-16q-47 0 -66 18t-19 61v513q0 43 19.5 62t65.5 19zM86 869q34 0 85 -21q39 -16 68 -16q17 0 36 15q12 10 29 -6t17 -39q0 -36 -18 -58q-25 -30 -72 -30q-31 0 -84 21q-39 16 -69 16
q-18 0 -36 -14q-12 -10 -28.5 5.5t-16.5 38.5q0 36 18 58q24 30 71 30z" />
    <glyph glyph-name="itilde" unicode="&#x129;" horiz-adv-x="313" 
d="M159 522h2q46 0 66 -18.5t20 -61.5v-363q0 -42 -19.5 -60.5t-64.5 -18.5h-4q-46 0 -65 18.5t-19 60.5v363q0 43 19.5 61.5t64.5 18.5zM90 700q22 3 83 -15q8 -3 21 -7.5t14.5 -4.5t12.5 -2t14 1q5 0 10.5 4t8 7t8 10.5t6.5 8.5q12 11 30.5 -3.5t20.5 -37.5q4 -36 -12 -59
q-19 -27 -68 -34q-17 -2 -80 14q-8 3 -21.5 7.5t-15.5 5t-13.5 2.5t-14.5 -1q-6 0 -11.5 -4.5t-13.5 -13.5t-9 -10q-11 -11 -29 3t-20 37q-4 36 12 59q17 27 67 33z" />
    <glyph glyph-name="imacron" unicode="&#x12b;" horiz-adv-x="275" 
d="M70 690h139q61 0 61 -57t-61 -57h-139q-60 0 -60 57t60 57zM140 522h2q46 0 66 -18.5t20 -61.5v-363q0 -42 -19.5 -60.5t-64.5 -18.5h-4q-46 0 -65 18.5t-19 60.5v363q0 43 19.5 61.5t64.5 18.5z" />
    <glyph glyph-name="Ibreve" unicode="&#x12c;" horiz-adv-x="316" 
d="M150 673h16q46 0 65.5 -19t19.5 -62v-513q0 -42 -19.5 -60.5t-65.5 -18.5h-16q-47 0 -66 18t-19 61v513q0 43 19.5 62t65.5 19zM159 819q27 0 48 13.5t37 27t31 13.5q18 0 30.5 -10.5t12.5 -28.5q0 -40 -45.5 -78t-113.5 -38q-64 0 -111.5 38t-47.5 77q0 17 12 28.5
t31 11.5q17 0 50 -27t66 -27z" />
    <glyph glyph-name="Iogonek" unicode="&#x12e;" horiz-adv-x="316" 
d="M150 673h16q46 0 65.5 -19t19.5 -62v-513q0 -41 -18 -59.5t-60 -19.5q-36 0 -36 -24q0 -11 12 -20t32 -9q34 0 38 17q32 -8 32 -45q0 -29 -26 -48t-69 -19q-56 0 -84.5 29.5t-28.5 67.5q0 47 38 72q-16 17 -16 58v513q0 43 19.5 62t65.5 19z" />
    <glyph glyph-name="iogonek" unicode="&#x12f;" horiz-adv-x="275" 
d="M135 522h2q46 0 66 -18.5t20 -61.5v-363q0 -36 -14.5 -55t-45.5 -23v-1q-36 0 -36 -24q0 -11 12 -20t32 -9q34 0 38 17q32 -8 32 -45q0 -29 -26 -48t-69 -19q-56 0 -84.5 29.5t-28.5 67.5q0 44 35 71q-17 18 -17 59v363q0 43 19.5 61.5t64.5 18.5zM137 753q41 0 67 -22.5
t26 -65.5t-26 -65t-67 -22t-67 22t-26 65t26 65.5t67 22.5z" />
    <glyph glyph-name="Idotaccent" unicode="&#x130;" horiz-adv-x="316" 
d="M150 673h16q46 0 65.5 -19t19.5 -62v-513q0 -42 -19.5 -60.5t-65.5 -18.5h-16q-47 0 -66 18t-19 61v513q0 43 19.5 62t65.5 19zM67 810q0 41 25 63.5t64 22.5t64 -22.5t25 -63.5t-25 -64t-64 -23t-64 23t-25 64z" />
    <glyph glyph-name="dotlessi" unicode="&#x131;" horiz-adv-x="264" 
d="M135 522h2q46 0 66 -18.5t20 -61.5v-363q0 -42 -19.5 -60.5t-64.5 -18.5h-4q-46 0 -65 18.5t-19 60.5v363q0 43 19.5 61.5t64.5 18.5z" />
    <glyph glyph-name="Jcircumflex" unicode="&#x134;" horiz-adv-x="417" 
d="M206 673h17q45 0 64.5 -19t19.5 -62v-518q0 -149 -55 -223t-171 -74q-74 0 -115 34t-41 82t30 72q24 -30 85 -30q81 0 81 94v563q0 43 19.5 62t65.5 19zM220 894q30 0 51 -14l75 -52q16 -11 22 -15.5t12.5 -14t6.5 -20.5q0 -26 -16.5 -40.5t-37.5 -14.5q-23 0 -38 9
l-75 47l-75 -47q-15 -9 -38 -9q-20 0 -37 14.5t-17 40.5q0 11 6.5 20.5t13 14.5t20.5 15l76 52q21 14 51 14z" />
    <glyph glyph-name="jcircumflex" unicode="&#x135;" horiz-adv-x="282" 
d="M144 522h10q83 0 83 -81v-408q0 -120 -41 -180.5t-130 -60.5q-69 0 -104.5 29.5t-35.5 81.5q0 32 14 49q27 -9 49 -9q75 0 75 89v392q0 53 18 75.5t62 22.5zM144 723q30 0 51 -14l75 -52q16 -11 22 -15.5t12.5 -14t6.5 -20.5q0 -26 -16.5 -40.5t-37.5 -14.5q-23 0 -38 9
l-75 47l-75 -47q-15 -9 -38 -9q-20 0 -37 14.5t-17 40.5q0 11 6.5 20.5t13 14.5t20.5 15l76 52q21 14 51 14z" />
    <glyph glyph-name="Kcommaaccent" unicode="&#x136;" horiz-adv-x="672" 
d="M149 673h17q49 0 66.5 -22t17.5 -74v-184q24 26 42.5 49t36.5 48.5t25.5 37t26 42t22.5 36.5q21 34 49 50.5t79 16.5h32q25 0 39.5 -13t14.5 -33q0 -10 -5 -22q-54 -110 -197 -244q47 -47 71 -71.5t66 -77t73 -105.5q18 -32 18 -62q0 -20 -15 -32.5t-42 -12.5h-75
q-46 0 -72 46q-15 27 -38 62t-67 90t-84 89v-179q0 -54 -17 -81t-67 -27h-17q-52 0 -68 21t-16 73v483q0 52 17.5 74t66.5 22zM330 -37q45 0 77 -34.5t32 -88.5q0 -77 -44.5 -129.5t-102.5 -52.5q-28 0 -41 12.5t-13 30.5q40 13 64 38.5t24 58.5q-33 -5 -56 8q-36 20 -36 62
q0 41 26.5 68t69.5 27z" />
    <glyph glyph-name="kcommaaccent" unicode="&#x137;" horiz-adv-x="541" 
d="M126 714q52 0 70 -21.5t18 -73.5v-293q33 35 62.5 77.5t43.5 64.5t39 38t59 16h43q27 0 43.5 -11t16.5 -30q0 -27 -46.5 -82.5t-116.5 -111.5q63 -63 115.5 -135.5t52.5 -106.5q0 -20 -16.5 -32.5t-43.5 -12.5h-33q-74 0 -105 51q-8 14 -28 48.5t-30 51.5t-26 39t-30 35
v-120q0 -53 -17.5 -79t-66.5 -26h-4q-52 0 -68 20t-16 73v526q0 52 17.5 73.5t66.5 21.5zM265 -37q45 0 77 -34.5t32 -88.5q0 -77 -44.5 -129.5t-102.5 -52.5q-28 0 -41 12.5t-13 30.5q40 13 64 38.5t24 58.5q-33 -5 -56 8q-36 20 -36 62q0 41 26.5 68t69.5 27z" />
    <glyph glyph-name="Lacute" unicode="&#x139;" horiz-adv-x="561" 
d="M150 673h16q46 0 65.5 -19t19.5 -62v-422h216q36 0 56.5 -21.5t20.5 -63.5t-20.5 -63.5t-56.5 -21.5h-317q-47 0 -66 18t-19 61v513q0 43 19.5 62t65.5 19zM267 778l-163 -49q-21 -6 -42 -6q-14 0 -24 9.5t-10 27.5v9q0 32 34 49l158 81q28 13 47 13q35 0 35 -50
q0 -74 -35 -84z" />
    <glyph glyph-name="lacute" unicode="&#x13a;" horiz-adv-x="259" 
d="M130 714h2q46 0 66 -18.5t20 -61.5v-555q0 -42 -19.5 -60.5t-64.5 -18.5h-4q-47 0 -66 18t-19 61v555q0 43 19.5 61.5t65.5 18.5zM232 782l-163 -49q-21 -6 -42 -6q-14 0 -24 9.5t-10 27.5v9q0 32 34 49l158 81q28 13 47 13q35 0 35 -50q0 -74 -35 -84z" />
    <glyph glyph-name="Lcommaaccent" unicode="&#x13b;" horiz-adv-x="561" 
d="M150 673h16q46 0 65.5 -19t19.5 -62v-422h216q36 0 56.5 -21.5t20.5 -63.5t-20.5 -63.5t-56.5 -21.5h-317q-47 0 -66 18t-19 61v513q0 43 19.5 62t65.5 19zM275 -37q45 0 77 -34.5t32 -88.5q0 -77 -44.5 -129.5t-102.5 -52.5q-28 0 -41 12.5t-13 30.5q40 13 64 38.5
t24 58.5q-33 -5 -56 8q-36 20 -36 62q0 41 26.5 68t69.5 27z" />
    <glyph glyph-name="lcommaaccent" unicode="&#x13c;" horiz-adv-x="263" 
d="M130 714h2q46 0 66 -18.5t20 -61.5v-555q0 -42 -19.5 -60.5t-64.5 -18.5h-4q-47 0 -66 18t-19 61v555q0 43 19.5 61.5t65.5 18.5zM127 -37q45 0 77 -34.5t32 -88.5q0 -77 -44.5 -129.5t-102.5 -52.5q-28 0 -41 12.5t-13 30.5q40 13 64 38.5t24 58.5q-33 -5 -56 8
q-36 20 -36 62q0 41 26.5 68t69.5 27z" />
    <glyph glyph-name="Lcaron" unicode="&#x13d;" horiz-adv-x="561" 
d="M150 673h16q46 0 65.5 -19t19.5 -62v-422h216q36 0 56.5 -21.5t20.5 -63.5t-20.5 -63.5t-56.5 -21.5h-317q-47 0 -66 18t-19 61v513q0 43 19.5 62t65.5 19zM377 367q-28 0 -41 12.5t-13 30.5q40 13 64 38.5t24 58.5q-33 -5 -57 8q-36 21 -36 62t26.5 68t69.5 27
q45 0 77 -34.5t32 -88.5q0 -77 -44 -129.5t-102 -52.5z" />
    <glyph glyph-name="lcaron" unicode="&#x13e;" horiz-adv-x="508" 
d="M125 714h2q46 0 66 -18.5t20 -61.5v-555q0 -42 -19.5 -60.5t-64.5 -18.5h-4q-47 0 -66 18t-19 61v555q0 43 19.5 61.5t65.5 18.5zM330 395q-28 0 -41 12.5t-13 30.5q40 13 64 38.5t24 58.5q-33 -5 -57 8q-36 21 -36 62t26.5 68t69.5 27q45 0 77 -34.5t32 -88.5
q0 -77 -44 -129.5t-102 -52.5z" />
    <glyph glyph-name="Ldot" unicode="&#x13f;" horiz-adv-x="561" 
d="M150 673h16q46 0 65.5 -19t19.5 -62v-422h216q36 0 56.5 -21.5t20.5 -63.5t-20.5 -63.5t-56.5 -21.5h-317q-47 0 -66 18t-19 61v513q0 43 19.5 62t65.5 19zM401 471q44 0 74.5 -24t30.5 -75t-30.5 -75t-74.5 -24t-75 24t-31 75t31 75t75 24z" />
    <glyph glyph-name="ldot" unicode="&#x140;" horiz-adv-x="513" 
d="M130 714h2q46 0 66 -18.5t20 -61.5v-555q0 -42 -19.5 -60.5t-64.5 -18.5h-4q-47 0 -66 18t-19 61v555q0 43 19.5 61.5t65.5 18.5zM371 483q44 0 74.5 -24t30.5 -75t-30.5 -75t-74.5 -24t-75 24t-31 75t31 75t75 24z" />
    <glyph glyph-name="Lslash" unicode="&#x141;" horiz-adv-x="607" 
d="M196 673h16q46 0 65.5 -19t19.5 -62v-191l47 16q44 16 59 -31v-1q8 -26 1.5 -40t-29.5 -22l-78 -26v-127h216q36 0 56.5 -21.5t20.5 -63.5t-20.5 -63.5t-56.5 -21.5h-317q-47 0 -66 18t-19 61v158l-29 -9q-23 -7 -36 0.5t-21 32.5v2q-8 26 -2 39t29 20l59 19v251
q0 43 19.5 62t65.5 19z" />
    <glyph glyph-name="lslash" unicode="&#x142;" horiz-adv-x="335" 
d="M169 717h2q46 0 66 -18.5t20 -61.5v-170l22 7q37 13 49 -26v-1q6 -22 1 -33t-24 -18l-48 -16v-298q0 -42 -19.5 -60.5t-64.5 -18.5h-4q-47 0 -66 18t-19 61v242l-22 -7q-36 -11 -48 27v2q-12 38 23 49l47 15v227q0 43 19.5 61.5t65.5 18.5z" />
    <glyph glyph-name="Nacute" unicode="&#x143;" horiz-adv-x="735" 
d="M150 673h35q55 0 94 -58l215 -310v287q0 44 18.5 62.5t63.5 18.5h11q45 0 64 -18.5t19 -62.5v-510q0 -43 -20 -62.5t-65 -19.5h-19q-66 0 -107 57l-223 306v-284q0 -43 -18 -61t-63 -18h-7q-46 0 -64.5 18t-18.5 61v510q0 44 20 64t65 20zM467 778l-163 -49
q-21 -6 -42 -6q-14 0 -24 9.5t-10 27.5v9q0 32 34 49l158 81q28 13 47 13q35 0 35 -50q0 -74 -35 -84z" />
    <glyph glyph-name="nacute" unicode="&#x144;" horiz-adv-x="563" 
d="M126 522h2q46 0 66 -18.5t20 -61.5v-24q16 45 53 78t98 33q70 0 116.5 -48t46.5 -149v-252q0 -43 -19.5 -61.5t-65.5 -18.5h-8q-81 0 -81 80v209q0 75 -65 75q-34 0 -54.5 -30t-20.5 -83v-172q0 -42 -19.5 -60.5t-64.5 -18.5h-4q-47 0 -66 18t-19 61v363q0 43 20 61.5
t65 18.5zM384 604l-163 -49q-21 -6 -42 -6q-14 0 -24 9.5t-10 27.5v9q0 32 34 49l158 81q28 13 47 13q35 0 35 -50q0 -74 -35 -84z" />
    <glyph glyph-name="Ncommaaccent" unicode="&#x145;" horiz-adv-x="735" 
d="M150 673h35q55 0 94 -58l215 -310v287q0 44 18.5 62.5t63.5 18.5h11q45 0 64 -18.5t19 -62.5v-510q0 -43 -20 -62.5t-65 -19.5h-19q-66 0 -107 57l-223 306v-284q0 -43 -18 -61t-63 -18h-7q-46 0 -64.5 18t-18.5 61v510q0 44 20 64t65 20zM362 -37q45 0 77 -34.5
t32 -88.5q0 -77 -44.5 -129.5t-102.5 -52.5q-28 0 -41 12.5t-13 30.5q40 13 64 38.5t24 58.5q-33 -5 -56 8q-36 20 -36 62q0 41 26.5 68t69.5 27z" />
    <glyph glyph-name="ncommaaccent" unicode="&#x146;" horiz-adv-x="563" 
d="M126 522h2q46 0 66 -18.5t20 -61.5v-24q16 45 53 78t98 33q70 0 116.5 -48t46.5 -149v-252q0 -43 -19.5 -61.5t-65.5 -18.5h-8q-81 0 -81 80v209q0 75 -65 75q-34 0 -54.5 -30t-20.5 -83v-172q0 -42 -19.5 -60.5t-64.5 -18.5h-4q-47 0 -66 18t-19 61v363q0 43 20 61.5
t65 18.5zM276 -37q45 0 77 -34.5t32 -88.5q0 -77 -44.5 -129.5t-102.5 -52.5q-28 0 -41 12.5t-13 30.5q40 13 64 38.5t24 58.5q-33 -5 -56 8q-36 20 -36 62q0 41 26.5 68t69.5 27z" />
    <glyph glyph-name="Ncaron" unicode="&#x147;" horiz-adv-x="735" 
d="M150 673h35q55 0 94 -58l215 -310v287q0 44 18.5 62.5t63.5 18.5h11q45 0 64 -18.5t19 -62.5v-510q0 -43 -20 -62.5t-65 -19.5h-19q-66 0 -107 57l-223 306v-284q0 -43 -18 -61t-63 -18h-7q-46 0 -64.5 18t-18.5 61v510q0 44 20 64t65 20zM252 894q23 0 38 -10l75 -47
l75 47q15 10 38 10q21 0 37.5 -14.5t16.5 -41.5q0 -10 -6.5 -19.5t-13 -14.5t-21.5 -16l-75 -52q-20 -13 -51 -13q-30 0 -51 14l-76 51q-40 27 -40 50q0 27 17 41.5t37 14.5z" />
    <glyph glyph-name="ncaron" unicode="&#x148;" horiz-adv-x="563" 
d="M126 522h2q46 0 66 -18.5t20 -61.5v-24q16 45 53 78t98 33q70 0 116.5 -48t46.5 -149v-252q0 -43 -19.5 -61.5t-65.5 -18.5h-8q-81 0 -81 80v209q0 75 -65 75q-34 0 -54.5 -30t-20.5 -83v-172q0 -42 -19.5 -60.5t-64.5 -18.5h-4q-47 0 -66 18t-19 61v363q0 43 20 61.5
t65 18.5zM169 727q23 0 38 -10l75 -47l75 47q15 10 38 10q21 0 37.5 -14.5t16.5 -41.5q0 -10 -6.5 -19.5t-13 -14.5t-21.5 -16l-75 -52q-19 -13 -51 -13q-30 0 -51 14l-76 51q-40 27 -40 50q0 27 17 41.5t37 14.5z" />
    <glyph glyph-name="Omacron" unicode="&#x14c;" horiz-adv-x="733" 
d="M366 682q61 0 117 -18.5t105.5 -57.5t79.5 -109t30 -162t-30 -161t-79.5 -107.5t-105.5 -57t-116 -18.5q-61 0 -117 18.5t-106 57t-80 107.5t-30 161t30 162t79.5 109t105.5 57.5t117 18.5zM366 508q-59 0 -100.5 -42.5t-41.5 -129.5q0 -88 41.5 -130.5t100.5 -42.5
t100.5 42.5t41.5 130.5t-41.5 130t-100.5 42zM236 844h259q61 0 61 -57t-61 -57h-259q-60 0 -60 57t60 57z" />
    <glyph glyph-name="omacron" unicode="&#x14d;" 
d="M285 529q48 0 93 -16t83.5 -48t62 -85t23.5 -121q0 -67 -23.5 -120t-62 -83.5t-83.5 -46t-93 -15.5t-93 15.5t-84 46t-62.5 83.5t-23.5 120t23.5 121t62.5 85t84 47.5t93 16.5zM284 379q-41 0 -65.5 -29t-24.5 -88t24.5 -88.5t65.5 -29.5t65.5 29t24.5 89q0 59 -24.5 88
t-65.5 29zM154 683h259q61 0 61 -57t-61 -57h-259q-60 0 -60 57t60 57z" />
    <glyph glyph-name="Obreve" unicode="&#x14e;" horiz-adv-x="733" 
d="M366 682q61 0 117 -18.5t105.5 -57.5t79.5 -109t30 -162t-30 -161t-79.5 -107.5t-105.5 -57t-116 -18.5q-61 0 -117 18.5t-106 57t-80 107.5t-30 161t30 162t79.5 109t105.5 57.5t117 18.5zM366 508q-59 0 -100.5 -42.5t-41.5 -129.5q0 -88 41.5 -130.5t100.5 -42.5
t100.5 42.5t41.5 130.5t-41.5 130t-100.5 42zM366 826q27 0 48 13.5t37 27t31 13.5q18 0 30.5 -10.5t12.5 -28.5q0 -40 -45.5 -78t-113.5 -38q-64 0 -111.5 38t-47.5 77q0 17 12 28.5t31 11.5q17 0 50 -27t66 -27z" />
    <glyph glyph-name="obreve" unicode="&#x14f;" 
d="M285 529q48 0 93 -16t83.5 -48t62 -85t23.5 -121q0 -67 -23.5 -120t-62 -83.5t-83.5 -46t-93 -15.5t-93 15.5t-84 46t-62.5 83.5t-23.5 120t23.5 121t62.5 85t84 47.5t93 16.5zM284 379q-41 0 -65.5 -29t-24.5 -88t24.5 -88.5t65.5 -29.5t65.5 29t24.5 89q0 59 -24.5 88
t-65.5 29zM284 672q27 0 48 13.5t37 27t31 13.5q18 0 30.5 -10.5t12.5 -28.5q0 -40 -45.5 -78t-113.5 -38q-64 0 -111.5 38t-47.5 77q0 17 12 28.5t31 11.5q17 0 50 -27t66 -27z" />
    <glyph glyph-name="Ohungarumlaut" unicode="&#x150;" horiz-adv-x="733" 
d="M366 682q61 0 117 -18.5t105.5 -57.5t79.5 -109t30 -162t-30 -161t-79.5 -107.5t-105.5 -57t-116 -18.5q-61 0 -117 18.5t-106 57t-80 107.5t-30 161t30 162t79.5 109t105.5 57.5t117 18.5zM366 508q-59 0 -100.5 -42.5t-41.5 -129.5q0 -88 41.5 -130.5t100.5 -42.5
t100.5 42.5t41.5 130.5t-41.5 130t-100.5 42zM346 790q-14 -5 -53.5 -22t-67.5 -26.5t-48 -11.5q-37 -4 -37 28v9q0 26 23 41q29 21 90.5 55.5t87.5 41.5q16 4 28 -3.5t12 -29.5v-16q0 -52 -35 -66zM575 790q-14 -5 -53.5 -22t-67.5 -26.5t-48 -11.5q-37 -4 -37 28v9
q0 26 23 41q29 21 90.5 55.5t87.5 41.5q16 4 28 -3.5t12 -29.5v-16q0 -52 -35 -66z" />
    <glyph glyph-name="ohungarumlaut" unicode="&#x151;" 
d="M285 529q48 0 93 -16t83.5 -48t62 -85t23.5 -121q0 -67 -23.5 -120t-62 -83.5t-83.5 -46t-93 -15.5t-93 15.5t-84 46t-62.5 83.5t-23.5 120t23.5 121t62.5 85t84 47.5t93 16.5zM284 379q-41 0 -65.5 -29t-24.5 -88t24.5 -88.5t65.5 -29.5t65.5 29t24.5 89q0 59 -24.5 88
t-65.5 29zM263 623q-14 -5 -53.5 -22t-67.5 -26.5t-48 -11.5q-37 -4 -37 28v9q0 26 23 41q29 21 90.5 55.5t87.5 41.5q16 4 28 -3.5t12 -29.5v-16q0 -52 -35 -66zM492 623q-14 -5 -53.5 -22t-67.5 -26.5t-48 -11.5q-37 -4 -37 28v9q0 26 23 41q29 21 90.5 55.5t87.5 41.5
q16 4 28 -3.5t12 -29.5v-16q0 -52 -35 -66z" />
    <glyph glyph-name="Racute" unicode="&#x154;" horiz-adv-x="665" 
d="M250 516v-144h88q38 0 63 19t25 53q0 36 -24 54t-64 18h-88zM149 673h202q118 0 187.5 -57.5t69.5 -161.5q0 -78 -40.5 -122t-94.5 -59q30 -52 77 -101.5t93 -69.5q-4 -41 -32 -75t-78 -34q-26 0 -49.5 9t-43.5 27t-35.5 36t-32 46.5t-25.5 46.5t-23 48t-19 40h-55v-167
q0 -43 -19.5 -61t-65.5 -18h-14q-55 0 -70.5 16t-15.5 61v515q0 43 19.5 62t64.5 19zM432 778l-163 -49q-21 -6 -42 -6q-14 0 -24 9.5t-10 27.5v9q0 32 34 49l158 81q28 13 47 13q35 0 35 -50q0 -74 -35 -84z" />
    <glyph glyph-name="racute" unicode="&#x155;" horiz-adv-x="434" 
d="M125 522q46 0 66 -22.5t20 -71.5q24 48 50 73t69 25q40 0 65 -20t25 -63q0 -58 -28 -96q-36 15 -76 15q-102 0 -102 -151v-111q0 -51 -18 -75.5t-66 -24.5h-5q-51 0 -67.5 19.5t-16.5 70.5v340q0 49 18.5 70.5t65.5 21.5zM317 625l-163 -49q-21 -6 -42 -6q-14 0 -24 9.5
t-10 27.5v9q0 32 34 49l158 81q28 13 47 13q35 0 35 -50q0 -73 -35 -84z" />
    <glyph glyph-name="Rcommaaccent" unicode="&#x156;" horiz-adv-x="667" 
d="M250 516v-144h88q38 0 63 19t25 53q0 36 -24 54t-64 18h-88zM149 673h202q118 0 187.5 -57.5t69.5 -161.5q0 -78 -40.5 -122t-94.5 -59q30 -52 77 -101.5t93 -69.5q-4 -41 -32 -75t-78 -34q-26 0 -49.5 9t-43.5 27t-35.5 36t-32 46.5t-25.5 46.5t-23 48t-19 40h-55v-167
q0 -43 -19.5 -61t-65.5 -18h-14q-55 0 -70.5 16t-15.5 61v515q0 43 19.5 62t64.5 19zM327 -37q45 0 77 -34.5t32 -88.5q0 -77 -44.5 -129.5t-102.5 -52.5q-28 0 -41 12.5t-13 30.5q40 13 64 38.5t24 58.5q-33 -5 -56 8q-36 20 -36 62q0 41 26.5 68t69.5 27z" />
    <glyph glyph-name="rcommaaccent" unicode="&#x157;" horiz-adv-x="433" 
d="M125 522q46 0 66 -22.5t20 -71.5q24 48 50 73t69 25q40 0 65 -20t25 -63q0 -58 -28 -96q-36 15 -76 15q-102 0 -102 -151v-111q0 -51 -18 -75.5t-66 -24.5h-5q-51 0 -67.5 19.5t-16.5 70.5v340q0 49 18.5 70.5t65.5 21.5zM211 -37q45 0 77 -34.5t32 -88.5
q0 -77 -44.5 -129.5t-102.5 -52.5q-28 0 -41 12.5t-13 30.5q40 13 64 38.5t24 58.5q-33 -5 -56 8q-36 20 -36 62q0 41 26.5 68t69.5 27z" />
    <glyph glyph-name="Rcaron" unicode="&#x158;" horiz-adv-x="665" 
d="M250 516v-144h88q38 0 63 19t25 53q0 36 -24 54t-64 18h-88zM149 673h202q118 0 187.5 -57.5t69.5 -161.5q0 -78 -40.5 -122t-94.5 -59q30 -52 77 -101.5t93 -69.5q-4 -41 -32 -75t-78 -34q-26 0 -49.5 9t-43.5 27t-35.5 36t-32 46.5t-25.5 46.5t-23 48t-19 40h-55v-167
q0 -43 -19.5 -61t-65.5 -18h-14q-55 0 -70.5 16t-15.5 61v515q0 43 19.5 62t64.5 19zM217 894q23 0 38 -10l75 -47l75 47q15 10 38 10q21 0 37.5 -14.5t16.5 -41.5q0 -10 -6.5 -19.5t-13 -14.5t-21.5 -16l-75 -52q-19 -13 -51 -13q-30 0 -51 14l-76 51q-40 27 -40 50
q0 27 17 41.5t37 14.5z" />
    <glyph glyph-name="rcaron" unicode="&#x159;" horiz-adv-x="434" 
d="M125 522q46 0 66 -22.5t20 -71.5q24 48 50 73t69 25q40 0 65 -20t25 -63q0 -58 -28 -96q-36 15 -76 15q-102 0 -102 -151v-111q0 -51 -18 -75.5t-66 -24.5h-5q-51 0 -67.5 19.5t-16.5 70.5v340q0 49 18.5 70.5t65.5 21.5zM108 741q23 0 38 -10l75 -47l75 47q15 10 38 10
q21 0 37.5 -14.5t16.5 -41.5q0 -10 -6.5 -19.5t-13 -14.5t-21.5 -16l-75 -52q-19 -13 -51 -13q-30 0 -51 14l-76 51q-40 27 -40 50q0 27 17 41.5t37 14.5z" />
    <glyph glyph-name="Sacute" unicode="&#x15a;" horiz-adv-x="596" 
d="M303 682q106 0 170.5 -32t64.5 -92q0 -26 -14.5 -49.5t-40.5 -35.5q-77 49 -169 49q-39 0 -59.5 -14.5t-20.5 -37.5q0 -20 18.5 -31.5t56.5 -20.5q144 -34 200 -81.5t56 -129.5q0 -93 -77.5 -154.5t-204.5 -61.5q-106 0 -179 33.5t-73 87.5q0 66 59 93q20 -21 78 -43
t119 -22q38 0 61 15t23 39q0 22 -23 35.5t-79 24.5q-114 23 -170.5 73t-56.5 139q0 97 72.5 156.5t188.5 59.5zM398 778l-163 -49q-21 -6 -42 -6q-14 0 -24 9.5t-10 27.5v9q0 32 34 49l158 81q28 13 47 13q35 0 35 -50q0 -74 -35 -84z" />
    <glyph glyph-name="sacute" unicode="&#x15b;" horiz-adv-x="476" 
d="M257 528q84 0 133 -28t49 -75t-45 -68q-38 29 -102 29q-81 0 -81 -35q0 -4 1.5 -7t5.5 -6t8 -5t11 -4.5t13 -4.5t15.5 -4.5t17 -4t19 -4.5t19.5 -5q75 -19 105.5 -54.5t30.5 -94.5q0 -77 -66 -120.5t-161 -43.5t-152.5 25t-57.5 71q0 62 43 76q17 -16 54.5 -29t80.5 -13
q84 0 84 39q0 7 -5 12t-18 9.5t-24.5 7.5t-36 9t-41.5 10q-66 17 -93.5 52t-27.5 98q0 77 63.5 122.5t157.5 45.5zM339 625l-163 -49q-21 -6 -42 -6q-14 0 -24 9.5t-10 27.5v9q0 32 34 49l158 81q28 13 47 13q35 0 35 -50q0 -73 -35 -84z" />
    <glyph glyph-name="Scircumflex" unicode="&#x15c;" horiz-adv-x="596" 
d="M303 682q106 0 170.5 -32t64.5 -92q0 -26 -14.5 -49.5t-40.5 -35.5q-77 49 -169 49q-39 0 -59.5 -14.5t-20.5 -37.5q0 -20 18.5 -31.5t56.5 -20.5q144 -34 200 -81.5t56 -129.5q0 -93 -77.5 -154.5t-204.5 -61.5q-106 0 -179 33.5t-73 87.5q0 66 59 93q20 -21 78 -43
t119 -22q38 0 61 15t23 39q0 22 -23 35.5t-79 24.5q-114 23 -170.5 73t-56.5 139q0 97 72.5 156.5t188.5 59.5zM296 894q30 0 51 -14l75 -52q16 -11 22 -15.5t12.5 -14t6.5 -20.5q0 -26 -16.5 -40.5t-37.5 -14.5q-23 0 -38 9l-75 47l-75 -47q-15 -9 -38 -9q-20 0 -37 14.5
t-17 40.5q0 11 6.5 20.5t13 14.5t20.5 15l76 52q21 14 51 14z" />
    <glyph glyph-name="scircumflex" unicode="&#x15d;" horiz-adv-x="476" 
d="M257 528q84 0 133 -28t49 -75t-45 -68q-38 29 -102 29q-81 0 -81 -35q0 -4 1.5 -7t5.5 -6t8 -5t11 -4.5t13 -4.5t15.5 -4.5t17 -4t19 -4.5t19.5 -5q75 -19 105.5 -54.5t30.5 -94.5q0 -77 -66 -120.5t-161 -43.5t-152.5 25t-57.5 71q0 62 43 76q17 -16 54.5 -29t80.5 -13
q84 0 84 39q0 7 -5 12t-18 9.5t-24.5 7.5t-36 9t-41.5 10q-66 17 -93.5 52t-27.5 98q0 77 63.5 122.5t157.5 45.5zM237 741q30 0 51 -14l75 -52q16 -11 22 -15.5t12.5 -14t6.5 -20.5q0 -26 -16.5 -40.5t-37.5 -14.5q-23 0 -38 9l-75 47l-75 -47q-15 -9 -38 -9
q-20 0 -37 14.5t-17 40.5q0 11 6.5 20.5t13 14.5t20.5 15l76 52q21 14 51 14z" />
    <glyph glyph-name="Scedilla" unicode="&#x15e;" horiz-adv-x="596" 
d="M303 682q106 0 170.5 -32t64.5 -92q0 -26 -14.5 -49.5t-40.5 -35.5q-77 49 -169 49q-39 0 -59.5 -14.5t-20.5 -37.5q0 -20 18.5 -31.5t56.5 -20.5q144 -34 200 -81.5t56 -129.5q0 -80 -59 -138t-159 -73q-4 -10 -6 -19h8q32 0 50 -19.5t18 -50.5q0 -49 -37 -75t-92 -26
q-49 0 -80 21t-31 57q0 24 14 37t28 13q12 -25 59 -25q42 0 42 22q0 19 -34 19h-9q-17 0 -17 12q0 7 9 29q-102 2 -170 35.5t-68 85.5q0 66 59 93q20 -21 78 -43t119 -22q38 0 61 15t23 39q0 22 -23 35.5t-79 24.5q-114 23 -170.5 73t-56.5 139q0 97 72.5 156.5t188.5 59.5z
" />
    <glyph glyph-name="scedilla" unicode="&#x15f;" horiz-adv-x="476" 
d="M257 528q84 0 133 -28t49 -75t-45 -68q-38 29 -102 29q-81 0 -81 -35q0 -4 1.5 -7t5.5 -6t8 -5t11 -4.5t13 -4.5t15.5 -4.5t17 -4t19 -4.5t19.5 -5q75 -19 105.5 -54.5t30.5 -94.5q0 -68 -52.5 -110t-132.5 -51q-1 -2 -2 -5.5t-2 -5.5t-1 -4h8q32 0 50 -19.5t18 -50.5
q0 -49 -37 -75t-92 -26q-49 0 -80 21t-31 57q0 24 14 37t28 13q12 -25 59 -25q42 0 42 22q0 19 -34 19h-9q-17 0 -17 12q0 4 8 28q-80 5 -127 29.5t-47 65.5q0 62 43 76q17 -16 54.5 -29t80.5 -13q84 0 84 39q0 7 -5 12t-18 9.5t-24.5 7.5t-36 9t-41.5 10q-66 17 -93.5 52
t-27.5 98q0 77 63.5 122.5t157.5 45.5z" />
    <glyph glyph-name="Scaron" unicode="&#x160;" horiz-adv-x="596" 
d="M303 682q106 0 170.5 -32t64.5 -92q0 -26 -14.5 -49.5t-40.5 -35.5q-77 49 -169 49q-39 0 -59.5 -14.5t-20.5 -37.5q0 -20 18.5 -31.5t56.5 -20.5q144 -34 200 -81.5t56 -129.5q0 -93 -77.5 -154.5t-204.5 -61.5q-106 0 -179 33.5t-73 87.5q0 66 59 93q20 -21 78 -43
t119 -22q38 0 61 15t23 39q0 22 -23 35.5t-79 24.5q-114 23 -170.5 73t-56.5 139q0 97 72.5 156.5t188.5 59.5zM183 894q23 0 38 -10l75 -47l75 47q15 10 38 10q21 0 37.5 -14.5t16.5 -41.5q0 -10 -6.5 -19.5t-13 -14.5t-21.5 -16l-75 -52q-19 -13 -51 -13q-30 0 -51 14
l-76 51q-40 27 -40 50q0 27 17 41.5t37 14.5z" />
    <glyph glyph-name="scaron" unicode="&#x161;" horiz-adv-x="476" 
d="M257 528q84 0 133 -28t49 -75t-45 -68q-38 29 -102 29q-81 0 -81 -35q0 -4 1.5 -7t5.5 -6t8 -5t11 -4.5t13 -4.5t15.5 -4.5t17 -4t19 -4.5t19.5 -5q75 -19 105.5 -54.5t30.5 -94.5q0 -77 -66 -120.5t-161 -43.5t-152.5 25t-57.5 71q0 62 43 76q17 -16 54.5 -29t80.5 -13
q84 0 84 39q0 7 -5 12t-18 9.5t-24.5 7.5t-36 9t-41.5 10q-66 17 -93.5 52t-27.5 98q0 77 63.5 122.5t157.5 45.5zM124 741q23 0 38 -10l75 -47l75 47q15 10 38 10q21 0 37.5 -14.5t16.5 -41.5q0 -10 -6.5 -19.5t-13 -14.5t-21.5 -16l-75 -52q-20 -13 -51 -13q-30 0 -51 14
l-76 51q-40 27 -40 50q0 27 17 41.5t37 14.5z" />
    <glyph glyph-name="Tcommaaccent" unicode="&#x162;" horiz-adv-x="620" 
d="M101 673h418q77 0 77 -83q0 -42 -20.5 -63t-56.5 -21h-116v-427q0 -42 -19.5 -60.5t-65.5 -18.5h-17q-46 0 -65 18.5t-19 60.5v427h-116q-36 0 -56.5 21t-20.5 63q0 83 77 83zM304 -37q45 0 77 -34.5t32 -88.5q0 -77 -44.5 -129.5t-102.5 -52.5q-28 0 -41 12.5t-13 30.5
q40 13 64 38.5t24 58.5q-33 -5 -56 8q-36 20 -36 62q0 41 26.5 68t69.5 27z" />
    <glyph glyph-name="tcommaaccent" unicode="&#x163;" horiz-adv-x="434" 
d="M182 625h11q81 0 81 -82v-49h63q42 0 62.5 -19.5t20.5 -51.5q0 -42 -22 -56.5t-72 -14.5h-52v-136q0 -42 15.5 -57.5t47.5 -15.5q36 0 65 16q18 -24 18 -71q0 -45 -41 -68.5t-110 -23.5q-79 0 -123 46.5t-44 139.5v170h-26q-28 0 -47 17.5t-19 53.5q0 71 73 71h19v39
q0 46 18.5 69t61.5 23zM211 -37q45 0 77 -34.5t32 -88.5q0 -77 -44.5 -129.5t-102.5 -52.5q-28 0 -41 12.5t-13 30.5q40 13 64 38.5t24 58.5q-33 -5 -56 8q-36 20 -36 62q0 41 26.5 68t69.5 27z" />
    <glyph glyph-name="Tcaron" unicode="&#x164;" horiz-adv-x="620" 
d="M101 673h418q77 0 77 -83q0 -42 -20.5 -63t-56.5 -21h-116v-427q0 -42 -19.5 -60.5t-65.5 -18.5h-17q-46 0 -65 18.5t-19 60.5v427h-116q-36 0 -56.5 21t-20.5 63q0 83 77 83zM195 894q23 0 38 -10l75 -47l75 47q15 10 38 10q21 0 37.5 -14.5t16.5 -41.5
q0 -10 -6.5 -19.5t-13 -14.5t-21.5 -16l-75 -52q-19 -13 -51 -13q-30 0 -51 14l-76 51q-40 27 -40 50q0 27 17 41.5t37 14.5z" />
    <glyph glyph-name="tcaron" unicode="&#x165;" horiz-adv-x="645" 
d="M182 625h11q81 0 81 -82v-49h63q42 0 62.5 -19.5t20.5 -51.5q0 -42 -22 -56.5t-72 -14.5h-52v-136q0 -42 15.5 -57.5t47.5 -15.5q36 0 65 16q18 -24 18 -71q0 -45 -41 -68.5t-110 -23.5q-79 0 -123 46.5t-44 139.5v170h-26q-28 0 -47 17.5t-19 53.5q0 71 73 71h19v39
q0 46 18.5 69t61.5 23zM478 333q-28 0 -41 12.5t-13 30.5q40 13 64 38.5t24 58.5q-33 -5 -57 8q-36 21 -36 62t26.5 68t69.5 27q45 0 77 -34.5t32 -88.5q0 -77 -44 -129.5t-102 -52.5z" />
    <glyph glyph-name="Tbar" unicode="&#x166;" horiz-adv-x="620" 
d="M101 673h418q77 0 77 -83q0 -42 -20.5 -63t-56.5 -21h-116v-109h63q31 0 45.5 -13.5t14.5 -44.5q0 -58 -60 -58h-63v-202q0 -42 -19.5 -60.5t-65.5 -18.5h-17q-46 0 -65 18.5t-19 60.5v202h-83q-60 0 -60 58t60 58h83v109h-116q-36 0 -56.5 21t-20.5 63q0 83 77 83z" />
    <glyph glyph-name="tbar" unicode="&#x167;" horiz-adv-x="434" 
d="M182 625h11q81 0 81 -82v-49h63q42 0 62.5 -19.5t20.5 -51.5q0 -42 -22 -56.5t-72 -14.5h-52v-36h87q55 0 55 -51q0 -52 -55 -52h-87q1 -41 16 -55.5t47 -14.5q36 0 65 16q18 -24 18 -71q0 -45 -41 -68.5t-110 -23.5q-79 0 -123 46.5t-44 139.5v31h-31q-54 0 -54 52
q0 51 54 51h31v36h-26q-28 0 -47 17.5t-19 53.5q0 71 73 71h19v39q0 46 18.5 69t61.5 23z" />
    <glyph glyph-name="Utilde" unicode="&#x168;" horiz-adv-x="699" 
d="M140 673h14q46 0 66 -19t20 -63v-318q0 -122 110 -122t110 122v318q0 44 19.5 63t65.5 19h14q87 0 87 -82v-277q0 -48 -5 -86.5t-23 -84.5t-48.5 -76.5t-86.5 -51.5t-133 -21t-133 21t-86.5 51.5t-48.5 76.5t-23 84.5t-5 86.5v277q0 82 86 82zM273 869q34 0 85 -21
q39 -16 68 -16q17 0 36 15q12 10 29 -6t17 -39q0 -36 -18 -58q-25 -30 -72 -30q-31 0 -84 21q-39 16 -69 16q-19 0 -36 -14q-12 -10 -28.5 5.5t-16.5 38.5q0 36 18 58q24 30 71 30z" />
    <glyph glyph-name="utilde" unicode="&#x169;" horiz-adv-x="567" 
d="M122 522h8q45 0 63 -26.5t18 -79.5v-164q0 -104 66 -104q41 0 57.5 36.5t16.5 104.5v127q0 53 17.5 79.5t67.5 26.5h4q50 0 67 -20.5t17 -72.5v-335q0 -53 -17.5 -73.5t-67.5 -20.5t-69 20t-19 67v11q-15 -45 -56 -74t-109 -29q-65 0 -107 48.5t-42 146.5v239
q0 50 18.5 71.5t66.5 21.5zM200 700q22 3 83 -15q8 -3 21 -7.5t14.5 -4.5t12.5 -2t14 1q5 0 10.5 4t8 7t8 10.5t6.5 8.5q12 11 30.5 -3.5t20.5 -37.5q4 -36 -12 -59q-19 -27 -68 -34q-17 -2 -80 14q-8 3 -21.5 7.5t-15.5 5t-13.5 2.5t-14.5 -1q-6 0 -11.5 -4.5t-13.5 -13.5
t-9 -10q-11 -11 -29 3t-20 37q-4 36 12 59q17 27 67 33z" />
    <glyph glyph-name="Umacron" unicode="&#x16a;" horiz-adv-x="699" 
d="M140 673h14q46 0 66 -19t20 -63v-318q0 -122 110 -122t110 122v318q0 44 19.5 63t65.5 19h14q87 0 87 -82v-277q0 -48 -5 -86.5t-23 -84.5t-48.5 -76.5t-86.5 -51.5t-133 -21t-133 21t-86.5 51.5t-48.5 76.5t-23 84.5t-5 86.5v277q0 82 86 82zM219 830h259q61 0 61 -57
t-61 -57h-259q-60 0 -60 57t60 57z" />
    <glyph glyph-name="umacron" unicode="&#x16b;" horiz-adv-x="567" 
d="M122 522h8q45 0 63 -26.5t18 -79.5v-164q0 -104 66 -104q41 0 57.5 36.5t16.5 104.5v127q0 53 17.5 79.5t67.5 26.5h4q50 0 67 -20.5t17 -72.5v-335q0 -53 -17.5 -73.5t-67.5 -20.5t-69 20t-19 67v11q-15 -45 -56 -74t-109 -29q-65 0 -107 48.5t-42 146.5v239
q0 50 18.5 71.5t66.5 21.5zM153 676h259q61 0 61 -57t-61 -57h-259q-60 0 -60 57t60 57z" />
    <glyph glyph-name="Ubreve" unicode="&#x16c;" horiz-adv-x="699" 
d="M140 673h14q46 0 66 -19t20 -63v-318q0 -122 110 -122t110 122v318q0 44 19.5 63t65.5 19h14q87 0 87 -82v-277q0 -48 -5 -86.5t-23 -84.5t-48.5 -76.5t-86.5 -51.5t-133 -21t-133 21t-86.5 51.5t-48.5 76.5t-23 84.5t-5 86.5v277q0 82 86 82zM348 818q27 0 48 13.5
t37 27t31 13.5q18 0 30.5 -10.5t12.5 -28.5q0 -40 -45.5 -78t-113.5 -38q-64 0 -111.5 38t-47.5 77q0 17 12 28.5t31 11.5q17 0 50 -27t66 -27z" />
    <glyph glyph-name="ubreve" unicode="&#x16d;" horiz-adv-x="567" 
d="M122 522h8q45 0 63 -26.5t18 -79.5v-164q0 -104 66 -104q41 0 57.5 36.5t16.5 104.5v127q0 53 17.5 79.5t67.5 26.5h4q50 0 67 -20.5t17 -72.5v-335q0 -53 -17.5 -73.5t-67.5 -20.5t-69 20t-19 67v11q-15 -45 -56 -74t-109 -29q-65 0 -107 48.5t-42 146.5v239
q0 50 18.5 71.5t66.5 21.5zM286 665q27 0 48 13.5t37 27t31 13.5q18 0 30.5 -10.5t12.5 -28.5q0 -40 -45.5 -78t-113.5 -38q-64 0 -111.5 38t-47.5 77q0 17 12 28.5t31 11.5q17 0 50 -27t66 -27z" />
    <glyph glyph-name="Uring" unicode="&#x16e;" horiz-adv-x="699" 
d="M140 673h14q46 0 66 -19t20 -63v-318q0 -122 110 -122t110 122v318q0 44 19.5 63t65.5 19h14q87 0 87 -82v-277q0 -48 -5 -86.5t-23 -84.5t-48.5 -76.5t-86.5 -51.5t-133 -21t-133 21t-86.5 51.5t-48.5 76.5t-23 84.5t-5 86.5v277q0 82 86 82zM350 916q47 0 77.5 -28.5
t30.5 -77.5q0 -48 -30.5 -76t-77.5 -28t-77.5 28t-30.5 76t30.5 77t77.5 29zM350 847q-15 0 -24 -10t-9 -27q0 -16 9 -26t24 -10t24.5 10t9.5 26q0 17 -9.5 27t-24.5 10z" />
    <glyph glyph-name="uring" unicode="&#x16f;" horiz-adv-x="567" 
d="M122 522h8q45 0 63 -26.5t18 -79.5v-164q0 -104 66 -104q41 0 57.5 36.5t16.5 104.5v127q0 53 17.5 79.5t67.5 26.5h4q50 0 67 -20.5t17 -72.5v-335q0 -53 -17.5 -73.5t-67.5 -20.5t-69 20t-19 67v11q-15 -45 -56 -74t-109 -29q-65 0 -107 48.5t-42 146.5v239
q0 50 18.5 71.5t66.5 21.5zM281 763q47 0 77.5 -28.5t30.5 -77.5q0 -48 -30.5 -76t-77.5 -28t-77.5 28t-30.5 76t30.5 77t77.5 29zM281 694q-15 0 -24 -10t-9 -27q0 -16 9 -26t24 -10t24.5 10t9.5 26q0 17 -9.5 27t-24.5 10z" />
    <glyph glyph-name="Uhungarumlaut" unicode="&#x170;" horiz-adv-x="699" 
d="M140 673h14q46 0 66 -19t20 -63v-318q0 -122 110 -122t110 122v318q0 44 19.5 63t65.5 19h14q87 0 87 -82v-277q0 -48 -5 -86.5t-23 -84.5t-48.5 -76.5t-86.5 -51.5t-133 -21t-133 21t-86.5 51.5t-48.5 76.5t-23 84.5t-5 86.5v277q0 82 86 82zM333 790q-14 -5 -53.5 -22
t-67.5 -26.5t-48 -11.5q-37 -4 -37 28v9q0 26 23 41q29 21 90.5 55.5t87.5 41.5q16 4 28 -3.5t12 -29.5v-16q0 -52 -35 -66zM562 790q-14 -5 -53.5 -22t-67.5 -26.5t-48 -11.5q-37 -4 -37 28v9q0 26 23 41q29 21 90.5 55.5t87.5 41.5q16 4 28 -3.5t12 -29.5v-16
q0 -52 -35 -66z" />
    <glyph glyph-name="uhungarumlaut" unicode="&#x171;" horiz-adv-x="567" 
d="M122 522h8q45 0 63 -26.5t18 -79.5v-164q0 -104 66 -104q41 0 57.5 36.5t16.5 104.5v127q0 53 17.5 79.5t67.5 26.5h4q50 0 67 -20.5t17 -72.5v-335q0 -53 -17.5 -73.5t-67.5 -20.5t-69 20t-19 67v11q-15 -45 -56 -74t-109 -29q-65 0 -107 48.5t-42 146.5v239
q0 50 18.5 71.5t66.5 21.5zM260 623q-14 -5 -53.5 -22t-67.5 -26.5t-48 -11.5q-37 -4 -37 28v9q0 26 23 41q29 21 90.5 55.5t87.5 41.5q16 4 28 -3.5t12 -29.5v-16q0 -52 -35 -66zM489 623q-14 -5 -53.5 -22t-67.5 -26.5t-48 -11.5q-37 -4 -37 28v9q0 26 23 41
q29 21 90.5 55.5t87.5 41.5q16 4 28 -3.5t12 -29.5v-16q0 -52 -35 -66z" />
    <glyph glyph-name="Uogonek" unicode="&#x172;" horiz-adv-x="699" 
d="M140 673h14q46 0 66 -19t20 -63v-318q0 -122 110 -122t110 122v318q0 44 19.5 63t65.5 19h14q87 0 87 -82v-277q0 -47 -4.5 -84.5t-21.5 -82.5t-46 -76t-82 -52.5t-125 -23.5q-26 -4 -26 -24q0 -11 12 -20t32 -9q34 0 38 17q32 -8 32 -45q0 -29 -26 -48t-69 -19
q-56 0 -84.5 29.5t-28.5 67.5q0 34 20 57q-55 10 -95 34.5t-62 54.5t-35.5 71.5t-17 76t-3.5 76.5v277q0 82 86 82z" />
    <glyph glyph-name="uogonek" unicode="&#x173;" horiz-adv-x="567" 
d="M122 522h8q45 0 63 -26.5t18 -79.5v-164q0 -104 66 -104q41 0 57.5 36.5t16.5 104.5v127q0 53 17.5 79.5t67.5 26.5h4q50 0 67 -20.5t17 -72.5v-335q0 -52 -17 -72.5t-65 -21.5q-30 -2 -30 -24q0 -11 12 -20t32 -9q34 0 38 17q32 -8 32 -45q0 -29 -26 -48t-69 -19
q-56 0 -84.5 29.5t-28.5 67.5q0 52 46 77q-13 18 -13 61v11q-15 -45 -56 -74t-109 -29q-65 0 -107 48.5t-42 146.5v239q0 50 18.5 71.5t66.5 21.5z" />
    <glyph glyph-name="Wcircumflex" unicode="&#x174;" horiz-adv-x="935" 
d="M444 307q3 -12 9.5 -42t8 -38t6.5 -30t7.5 -30t7 -24.5t8 -26.5t8.5 -23t11 -27q28 -66 99 -66h11q24 0 41.5 3t38.5 12.5t38 32.5t28 58q57 176 100 452q3 19 3 46q0 30 -23 49.5t-61 19.5h-16q-41 0 -67.5 -18.5t-31.5 -55.5q-1 -9 -10 -87t-20.5 -162.5t-25.5 -160.5
q-40 186 -68 331q-18 94 -96 94h-12q-78 0 -96 -94q-28 -145 -68 -331q-14 76 -25.5 160.5t-20.5 162.5t-10 87q-5 37 -31.5 55.5t-67.5 18.5h-16q-38 0 -61 -19.5t-23 -49.5q0 -27 3 -46q43 -276 100 -452q11 -35 28 -58t38 -32.5t38.5 -12.5t41.5 -3h11q71 0 99 66
q6 14 11 27t8.5 23t8 26.5t7 24.5t7.5 30t6.5 30t8 38t9.5 42zM467 874q30 0 51 -14l75 -52q16 -11 22 -15.5t12.5 -14t6.5 -20.5q0 -26 -16.5 -40.5t-37.5 -14.5q-23 0 -38 9l-75 47l-75 -47q-15 -9 -38 -9q-20 0 -37 14.5t-17 40.5q0 11 6.5 20.5t13 14.5t20.5 15l76 52
q21 14 51 14z" />
    <glyph glyph-name="wcircumflex" unicode="&#x175;" horiz-adv-x="728" 
d="M81 522h29q35 0 53.5 -18t26.5 -53q3 -21 8 -61t12 -86.5t18 -105.5h4q10 43 24 115.5t22 105.5q14 60 79 60h8q67 0 80 -60l51 -221h4q13 77 24 160.5t12 92.5q8 35 26.5 53t53.5 18h28q30 0 48 -13t18 -38q0 -18 -2 -36q0 -3 -5 -36t-10.5 -64.5t-13.5 -74.5t-19 -86.5
t-24 -78.5q-35 -95 -118 -95h-17q-40 0 -61 19.5t-37 57.5q-29 67 -42 123q-14 -69 -39 -123q-17 -38 -38.5 -57.5t-58.5 -19.5h-17q-69 0 -96 47q-58 103 -94 388q0 3 -1 9t-1.5 10.5t-0.5 6.5q0 61 66 61zM363 720q30 0 51 -14l75 -52q16 -11 22 -15.5t12.5 -14t6.5 -20.5
q0 -26 -16.5 -40.5t-37.5 -14.5q-23 0 -38 9l-75 47l-75 -47q-15 -9 -38 -9q-20 0 -37 14.5t-17 40.5q0 11 6.5 20.5t13 14.5t20.5 15l76 52q21 14 51 14z" />
    <glyph glyph-name="Ycircumflex" unicode="&#x176;" horiz-adv-x="639" 
d="M100 673h39q64 0 81 -57q53 -170 97 -253h4q39 65 92 243q12 38 33 52.5t60 14.5h42q64 0 64 -54q0 -20 -13 -56q-69 -184 -184 -347v-111q0 -53 -17.5 -79t-67.5 -26h-24q-51 0 -67.5 26t-16.5 79v114q-126 177 -188 357q-8 21 -8 43q0 25 20 39.5t54 14.5zM319 888
q30 0 51 -14l75 -52q16 -11 22 -15.5t12.5 -14t6.5 -20.5q0 -26 -16.5 -40.5t-37.5 -14.5q-23 0 -38 9l-75 47l-75 -47q-15 -9 -38 -9q-20 0 -37 14.5t-17 40.5q0 11 6.5 20.5t13 14.5t20.5 15l76 52q21 14 51 14z" />
    <glyph glyph-name="ycircumflex" unicode="&#x177;" horiz-adv-x="563" 
d="M87 522h33q64 0 78 -56l3 -12q4 -17 20.5 -86t30 -119.5t29.5 -99.5q53 170 81 317q11 56 78 56h32q72 0 72 -48q0 -2 -8 -37q-66 -280 -190 -555q-17 -38 -37 -60.5t-52 -22.5h-46q-29 0 -46 14.5t-17 40.5q0 18 13 46t32.5 62t25.5 46h-1q-44 12 -77 74q-30 57 -54 124
t-36 112.5t-32 131.5q-4 16 -4 24q0 48 72 48zM281 741q30 0 51 -14l75 -52q16 -11 22 -15.5t12.5 -14t6.5 -20.5q0 -26 -16.5 -40.5t-37.5 -14.5q-23 0 -38 9l-75 47l-75 -47q-15 -9 -38 -9q-20 0 -37 14.5t-17 40.5q0 11 6.5 20.5t13 14.5t20.5 15l76 52q21 14 51 14z" />
    <glyph glyph-name="Ydieresis" unicode="&#x178;" horiz-adv-x="639" 
d="M100 673h39q64 0 81 -57q53 -170 97 -253h4q39 65 92 243q12 38 33 52.5t60 14.5h42q64 0 64 -54q0 -20 -13 -56q-69 -184 -184 -347v-111q0 -53 -17.5 -79t-67.5 -26h-24q-51 0 -67.5 26t-16.5 79v114q-126 177 -188 357q-8 21 -8 43q0 25 20 39.5t54 14.5zM212 855
q30 0 51 -16.5t21 -52.5t-20.5 -52.5t-51.5 -16.5t-52.5 16.5t-21.5 52.5q0 35 21.5 52t52.5 17zM427 855q30 0 51 -16.5t21 -52.5t-20.5 -52.5t-51.5 -16.5t-52 16.5t-21 52.5q0 35 21 52t52 17z" />
    <glyph glyph-name="Zacute" unicode="&#x179;" horiz-adv-x="678" 
d="M132 673h364q117 0 117 -108q0 -7 -1.5 -15.5t-4 -15t-7 -15.5t-7.5 -14t-9.5 -14.5t-9.5 -13t-10.5 -14t-9.5 -12.5q-15 -17 -71.5 -83t-95.5 -110t-73 -80v-11h221q47 0 70.5 -19t23.5 -65q0 -42 -21 -62.5t-56 -20.5h-382q-64 0 -90.5 21.5t-26.5 70.5q0 44 60 115
l248 286l1 12h-230q-77 0 -77 84q0 42 20.5 63t56.5 21zM441 778l-163 -49q-21 -6 -42 -6q-14 0 -24 9.5t-10 27.5v9q0 32 34 49l158 81q28 13 47 13q35 0 35 -50q0 -74 -35 -84z" />
    <glyph glyph-name="zacute" unicode="&#x17a;" horiz-adv-x="496" 
d="M98 518h256q62 0 88 -23t26 -72q0 -50 -44 -91l-187 -172v-2l151 -1q46 0 68.5 -16t22.5 -61q0 -47 -19.5 -63.5t-63.5 -16.5h-278q-51 0 -73 21t-22 67q0 36 30 71q34 40 104 106t90 87v7h-149q-35 0 -51.5 19.5t-16.5 67.5q0 31 18 51.5t50 20.5zM349 625l-163 -49
q-21 -6 -42 -6q-14 0 -24 9.5t-10 27.5v9q0 32 34 49l158 81q28 13 47 13q35 0 35 -50q0 -73 -35 -84z" />
    <glyph glyph-name="Zdotaccent" unicode="&#x17b;" horiz-adv-x="678" 
d="M132 673h364q117 0 117 -108q0 -7 -1.5 -15.5t-4 -15t-7 -15.5t-7.5 -14t-9.5 -14.5t-9.5 -13t-10.5 -14t-9.5 -12.5q-15 -17 -71.5 -83t-95.5 -110t-73 -80v-11h221q47 0 70.5 -19t23.5 -65q0 -42 -21 -62.5t-56 -20.5h-382q-64 0 -90.5 21.5t-26.5 70.5q0 44 60 115
l248 286l1 12h-230q-77 0 -77 84q0 42 20.5 63t56.5 21zM249 810q0 41 25 63.5t64 22.5t64 -22.5t25 -63.5t-25 -64t-64 -23t-64 23t-25 64z" />
    <glyph glyph-name="zdotaccent" unicode="&#x17c;" horiz-adv-x="499" 
d="M98 518h256q62 0 88 -23t26 -72q0 -50 -44 -91l-187 -172v-2l151 -1q46 0 68.5 -16t22.5 -61q0 -47 -19.5 -63.5t-63.5 -16.5h-278q-51 0 -73 21t-22 67q0 36 30 71q34 40 104 106t90 87v7h-149q-35 0 -51.5 19.5t-16.5 67.5q0 31 18 51.5t50 20.5zM159 657q0 41 25 63.5
t64 22.5t64 -22.5t25 -63.5t-25 -64t-64 -23t-64 23t-25 64z" />
    <glyph glyph-name="Zcaron" unicode="&#x17d;" horiz-adv-x="678" 
d="M132 673h364q117 0 117 -108q0 -7 -1.5 -15.5t-4 -15t-7 -15.5t-7.5 -14t-9.5 -14.5t-9.5 -13t-10.5 -14t-9.5 -12.5q-15 -17 -71.5 -83t-95.5 -110t-73 -80v-11h221q47 0 70.5 -19t23.5 -65q0 -42 -21 -62.5t-56 -20.5h-382q-64 0 -90.5 21.5t-26.5 70.5q0 44 60 115
l248 286l1 12h-230q-77 0 -77 84q0 42 20.5 63t56.5 21zM226 894q23 0 38 -10l75 -47l75 47q15 10 38 10q21 0 37.5 -14.5t16.5 -41.5q0 -10 -6.5 -19.5t-13 -14.5t-21.5 -16l-75 -52q-20 -13 -51 -13q-30 0 -51 14l-76 51q-40 27 -40 50q0 27 17 41.5t37 14.5z" />
    <glyph glyph-name="zcaron" unicode="&#x17e;" horiz-adv-x="496" 
d="M98 518h256q62 0 88 -23t26 -72q0 -50 -44 -91l-187 -172v-2l151 -1q46 0 68.5 -16t22.5 -61q0 -47 -19.5 -63.5t-63.5 -16.5h-278q-51 0 -73 21t-22 67q0 36 30 71q34 40 104 106t90 87v7h-149q-35 0 -51.5 19.5t-16.5 67.5q0 31 18 51.5t50 20.5zM138 741q23 0 38 -10
l75 -47l75 47q15 10 38 10q21 0 37.5 -14.5t16.5 -41.5q0 -10 -6.5 -19.5t-13 -14.5t-21.5 -16l-75 -52q-20 -13 -51 -13q-30 0 -51 14l-76 51q-40 27 -40 50q0 27 17 41.5t37 14.5z" />
    <glyph glyph-name="florin" unicode="&#x192;" horiz-adv-x="536" 
d="M377 674q67 0 101.5 -30t34.5 -76q0 -32 -16.5 -56t-45.5 -33q-16 28 -62 28q-33 0 -45.5 -15.5t-19.5 -58.5l-4 -32h77q26 0 38 -10.5t12 -36.5q0 -44 -50 -46h-90l-37 -296q-11 -77 -63.5 -110.5t-144.5 -33.5l55 440l-41 1q-27 0 -38.5 9.5t-11.5 36.5q0 45 47 46h57
l8 55q28 218 239 218z" />
    <glyph glyph-name="Ohorn" unicode="&#x1a0;" horiz-adv-x="733" 
d="M366 682q99 0 178 -46q46 4 51 26h-3q-56 2 -56 60q0 26 25 47t58 19q34 -3 51.5 -26t16.5 -60q-1 -42 -22 -73.5t-52 -46.5q85 -92 85 -247q0 -92 -30 -161t-79.5 -107.5t-105.5 -57t-116 -18.5q-61 0 -117 18.5t-106 57t-80 107.5t-30 161t30 162t79.5 109t105.5 57.5
t117 18.5zM366 508q-59 0 -100.5 -42.5t-41.5 -129.5q0 -88 41.5 -130.5t100.5 -42.5t100.5 42.5t41.5 130.5t-41.5 130t-100.5 42z" />
    <glyph glyph-name="ohorn" unicode="&#x1a1;" 
d="M285 529q89 0 159 -51q38 5 42 25h-3q-56 2 -56 60q0 26 25 47t58 19q34 -3 51.5 -26t16.5 -60q-1 -43 -23 -75.5t-54 -46.5q46 -67 46 -162q0 -67 -23.5 -120t-62 -83.5t-83.5 -46t-93 -15.5t-93 15.5t-84 46t-62.5 83.5t-23.5 120t23.5 121t62.5 85t84 47.5t93 16.5z
M284 379q-41 0 -65.5 -29t-24.5 -88t24.5 -88.5t65.5 -29.5t65.5 29t24.5 89q0 59 -24.5 88t-65.5 29z" />
    <glyph glyph-name="Uhorn" unicode="&#x1af;" horiz-adv-x="699" 
d="M140 673h14q46 0 66 -19t20 -63v-318q0 -122 110 -122t110 122v318q0 44 19.5 63t65.5 19h14q48 0 68 -23q34 5 38 24h-3q-56 2 -56 60q0 26 25 47t58 19q34 -3 51.5 -26t16.5 -60q-1 -54 -35 -90.5t-76 -40.5v-269q0 -48 -5 -86.5t-23 -84.5t-48.5 -76.5t-86.5 -51.5
t-133 -21t-133 21t-86.5 51.5t-48.5 76.5t-23 84.5t-5 86.5v277q0 82 86 82z" />
    <glyph glyph-name="uhorn" unicode="&#x1b0;" horiz-adv-x="608" 
d="M122 522h8q45 0 63 -26.5t18 -79.5v-164q0 -104 66 -104q41 0 57.5 36.5t16.5 104.5v127q0 53 17.5 79.5t67.5 26.5h4q52 0 69 -23q28 5 32 23h-3q-56 2 -56 60q0 26 25 47t58 19q34 -3 51.5 -26t16.5 -60q-1 -54 -34 -90t-75 -41v-2v-335q0 -53 -17.5 -73.5t-67.5 -20.5
t-69 20t-19 67v11q-15 -45 -56 -74t-109 -29q-65 0 -107 48.5t-42 146.5v239q0 50 18.5 71.5t66.5 21.5z" />
    <glyph glyph-name="Scommaaccent" unicode="&#x218;" horiz-adv-x="596" 
d="M303 682q106 0 170.5 -32t64.5 -92q0 -26 -14.5 -49.5t-40.5 -35.5q-77 49 -169 49q-39 0 -59.5 -14.5t-20.5 -37.5q0 -20 18.5 -31.5t56.5 -20.5q144 -34 200 -81.5t56 -129.5q0 -93 -77.5 -154.5t-204.5 -61.5q-106 0 -179 33.5t-73 87.5q0 66 59 93q20 -21 78 -43
t119 -22q38 0 61 15t23 39q0 22 -23 35.5t-79 24.5q-114 23 -170.5 73t-56.5 139q0 97 72.5 156.5t188.5 59.5zM290 -37q45 0 77 -34.5t32 -88.5q0 -77 -44.5 -129.5t-102.5 -52.5q-28 0 -41 12.5t-13 30.5q40 13 64 38.5t24 58.5q-33 -5 -56 8q-36 20 -36 62q0 41 26.5 68
t69.5 27z" />
    <glyph glyph-name="scommaaccent" unicode="&#x219;" horiz-adv-x="476" 
d="M257 528q84 0 133 -28t49 -75t-45 -68q-38 29 -102 29q-81 0 -81 -35q0 -4 1.5 -7t5.5 -6t8 -5t11 -4.5t13 -4.5t15.5 -4.5t17 -4t19 -4.5t19.5 -5q75 -19 105.5 -54.5t30.5 -94.5q0 -77 -66 -120.5t-161 -43.5t-152.5 25t-57.5 71q0 62 43 76q17 -16 54.5 -29t80.5 -13
q84 0 84 39q0 7 -5 12t-18 9.5t-24.5 7.5t-36 9t-41.5 10q-66 17 -93.5 52t-27.5 98q0 77 63.5 122.5t157.5 45.5zM232 -37q45 0 77 -34.5t32 -88.5q0 -77 -44.5 -129.5t-102.5 -52.5q-28 0 -41 12.5t-13 30.5q40 13 64 38.5t24 58.5q-33 -5 -56 8q-36 20 -36 62
q0 41 26.5 68t69.5 27z" />
    <glyph glyph-name="Wgrave" unicode="&#x1e80;" horiz-adv-x="935" 
d="M444 307q3 -12 9.5 -42t8 -38t6.5 -30t7.5 -30t7 -24.5t8 -26.5t8.5 -23t11 -27q28 -66 99 -66h11q24 0 41.5 3t38.5 12.5t38 32.5t28 58q57 176 100 452q3 19 3 46q0 30 -23 49.5t-61 19.5h-16q-41 0 -67.5 -18.5t-31.5 -55.5q-1 -9 -10 -87t-20.5 -162.5t-25.5 -160.5
q-40 186 -68 331q-18 94 -96 94h-12q-78 0 -96 -94q-28 -145 -68 -331q-14 76 -25.5 160.5t-20.5 162.5t-10 87q-5 37 -31.5 55.5t-67.5 18.5h-16q-38 0 -61 -19.5t-23 -49.5q0 -27 3 -46q43 -276 100 -452q11 -35 28 -58t38 -32.5t38.5 -12.5t41.5 -3h11q71 0 99 66
q6 14 11 27t8.5 23t8 26.5t7 24.5t7.5 30t6.5 30t8 38t9.5 42zM538 705l-163 48q-45 16 -45 89v4q0 48 35 48q15 0 41 -12l159 -81q39 -20 39 -59q0 -21 -12 -31t-30 -10q-13 0 -24 4z" />
    <glyph glyph-name="wgrave" unicode="&#x1e81;" horiz-adv-x="728" 
d="M81 522h29q35 0 53.5 -18t26.5 -53q3 -21 8 -61t12 -86.5t18 -105.5h4q10 43 24 115.5t22 105.5q14 60 79 60h8q67 0 80 -60l51 -221h4q13 77 24 160.5t12 92.5q8 35 26.5 53t53.5 18h28q30 0 48 -13t18 -38q0 -18 -2 -36q0 -3 -5 -36t-10.5 -64.5t-13.5 -74.5t-19 -86.5
t-24 -78.5q-35 -95 -118 -95h-17q-40 0 -61 19.5t-37 57.5q-29 67 -42 123q-14 -69 -39 -123q-17 -38 -38.5 -57.5t-58.5 -19.5h-17q-69 0 -96 47q-58 103 -94 388q0 3 -1 9t-1.5 10.5t-0.5 6.5q0 61 66 61zM434 552l-163 48q-45 16 -45 89v4q0 48 35 48q15 0 41 -12
l159 -81q39 -20 39 -59q0 -21 -12 -31t-30 -10q-13 0 -24 4z" />
    <glyph glyph-name="Wacute" unicode="&#x1e82;" horiz-adv-x="935" 
d="M444 307q3 -12 9.5 -42t8 -38t6.5 -30t7.5 -30t7 -24.5t8 -26.5t8.5 -23t11 -27q28 -66 99 -66h11q24 0 41.5 3t38.5 12.5t38 32.5t28 58q57 176 100 452q3 19 3 46q0 30 -23 49.5t-61 19.5h-16q-41 0 -67.5 -18.5t-31.5 -55.5q-1 -9 -10 -87t-20.5 -162.5t-25.5 -160.5
q-40 186 -68 331q-18 94 -96 94h-12q-78 0 -96 -94q-28 -145 -68 -331q-14 76 -25.5 160.5t-20.5 162.5t-10 87q-5 37 -31.5 55.5t-67.5 18.5h-16q-38 0 -61 -19.5t-23 -49.5q0 -27 3 -46q43 -276 100 -452q11 -35 28 -58t38 -32.5t38.5 -12.5t41.5 -3h11q71 0 99 66
q6 14 11 27t8.5 23t8 26.5t7 24.5t7.5 30t6.5 30t8 38t9.5 42zM569 758l-163 -49q-21 -6 -42 -6q-14 0 -24 9.5t-10 27.5v9q0 32 34 49l158 81q28 13 47 13q35 0 35 -50q0 -74 -35 -84z" />
    <glyph glyph-name="wacute" unicode="&#x1e83;" horiz-adv-x="728" 
d="M81 522h29q35 0 53.5 -18t26.5 -53q3 -21 8 -61t12 -86.5t18 -105.5h4q10 43 24 115.5t22 105.5q14 60 79 60h8q67 0 80 -60l51 -221h4q13 77 24 160.5t12 92.5q8 35 26.5 53t53.5 18h28q30 0 48 -13t18 -38q0 -18 -2 -36q0 -3 -5 -36t-10.5 -64.5t-13.5 -74.5t-19 -86.5
t-24 -78.5q-35 -95 -118 -95h-17q-40 0 -61 19.5t-37 57.5q-29 67 -42 123q-14 -69 -39 -123q-17 -38 -38.5 -57.5t-58.5 -19.5h-17q-69 0 -96 47q-58 103 -94 388q0 3 -1 9t-1.5 10.5t-0.5 6.5q0 61 66 61zM465 605l-163 -49q-21 -6 -42 -6q-14 0 -24 9.5t-10 27.5v9
q0 32 34 49l158 81q28 13 47 13q35 0 35 -50q0 -74 -35 -84z" />
    <glyph glyph-name="Wdieresis" unicode="&#x1e84;" horiz-adv-x="935" 
d="M444 307q3 -12 9.5 -42t8 -38t6.5 -30t7.5 -30t7 -24.5t8 -26.5t8.5 -23t11 -27q28 -66 99 -66h11q24 0 41.5 3t38.5 12.5t38 32.5t28 58q57 176 100 452q3 19 3 46q0 30 -23 49.5t-61 19.5h-16q-41 0 -67.5 -18.5t-31.5 -55.5q-1 -9 -10 -87t-20.5 -162.5t-25.5 -160.5
q-40 186 -68 331q-18 94 -96 94h-12q-78 0 -96 -94q-28 -145 -68 -331q-14 76 -25.5 160.5t-20.5 162.5t-10 87q-5 37 -31.5 55.5t-67.5 18.5h-16q-38 0 -61 -19.5t-23 -49.5q0 -27 3 -46q43 -276 100 -452q11 -35 28 -58t38 -32.5t38.5 -12.5t41.5 -3h11q71 0 99 66
q6 14 11 27t8.5 23t8 26.5t7 24.5t7.5 30t6.5 30t8 38t9.5 42zM360 841q30 0 51 -17t21 -52q0 -36 -20.5 -52.5t-51.5 -16.5t-52.5 16.5t-21.5 52.5q0 35 21.5 52t52.5 17zM575 841q30 0 51 -17t21 -52q0 -36 -20.5 -52.5t-51.5 -16.5t-52 16.5t-21 52.5q0 35 21 52t52 17z
" />
    <glyph glyph-name="wdieresis" unicode="&#x1e85;" horiz-adv-x="728" 
d="M81 522h29q35 0 53.5 -18t26.5 -53q3 -21 8 -61t12 -86.5t18 -105.5h4q10 43 24 115.5t22 105.5q14 60 79 60h8q67 0 80 -60l51 -221h4q13 77 24 160.5t12 92.5q8 35 26.5 53t53.5 18h28q30 0 48 -13t18 -38q0 -18 -2 -36q0 -3 -5 -36t-10.5 -64.5t-13.5 -74.5t-19 -86.5
t-24 -78.5q-35 -95 -118 -95h-17q-40 0 -61 19.5t-37 57.5q-29 67 -42 123q-14 -69 -39 -123q-17 -38 -38.5 -57.5t-58.5 -19.5h-17q-69 0 -96 47q-58 103 -94 388q0 3 -1 9t-1.5 10.5t-0.5 6.5q0 61 66 61zM256 687q30 0 51 -16.5t21 -52.5t-20.5 -52.5t-51.5 -16.5
t-52.5 16.5t-21.5 52.5q0 35 21.5 52t52.5 17zM471 687q30 0 51 -16.5t21 -52.5t-20.5 -52.5t-51.5 -16.5t-52 16.5t-21 52.5q0 35 21 52t52 17z" />
    <glyph glyph-name="uni1EA0" unicode="&#x1ea0;" horiz-adv-x="692" 
d="M345 -50q29 0 48 -17t19 -48q0 -32 -19 -49t-48 -17q-28 0 -47 17.5t-19 48.5t19 48t47 17zM335 674h22q58 0 95.5 -29t54.5 -78q94 -277 139 -454q9 -39 9 -50q0 -63 -84 -63h-26q-25 0 -42.5 7.5t-28 16.5t-19 31.5t-12 38t-10.5 50.5l-3 15h-168q-11 -52 -16.5 -74
t-18.5 -46t-31.5 -31.5t-48.5 -7.5h-26q-84 0 -84 57q0 22 9 56q58 229 139 454q39 107 150 107zM346 508q-31 -67 -62 -211h124q-26 124 -62 211z" />
    <glyph glyph-name="uni1EA1" unicode="&#x1ea1;" horiz-adv-x="543" 
d="M251 -50q29 0 48 -17t19 -48q0 -32 -19 -49t-48 -17q-28 0 -47 17.5t-19 48.5t19 48t47 17zM257 528q123 0 177 -58t54 -164v-122q0 -94 41 -111q-5 -30 -29 -53.5t-70 -23.5q-72 0 -94 75l-2 1q-13 -29 -48 -53t-91 -24q-74 0 -123.5 42t-49.5 117q0 77 57.5 120.5
t142.5 43.5q36 0 109 -15v12q0 63 -104 63q-78 0 -128 -36q-47 20 -47 76q0 47 55.5 78.5t149.5 31.5zM256 224q-32 0 -53.5 -13.5t-21.5 -40.5q0 -24 19 -37.5t49 -13.5q36 0 59 24.5t23 56.5v9q-30 15 -75 15z" />
    <glyph glyph-name="uni1EA2" unicode="&#x1ea2;" horiz-adv-x="692" 
d="M417 767h-1q-14 -9 -16 -15q2 -22 -10 -29t-38 -6q-21 -1 -29 5.5t-9 27.5q-1 16 6.5 28.5t13.5 17t26 16.5q4 3 6 4h-1q3 3 5 3q10 5 10 26q0 17 -31 11q-21 -3 -30 -39q-26 -1 -46.5 9t-21.5 25q-2 29 23.5 57t69.5 30q57 3 88.5 -23t30.5 -71q-1 -32 -12 -48t-35 -28
h2zM335 674h22q58 0 95.5 -29t54.5 -78q94 -277 139 -454q9 -39 9 -50q0 -63 -84 -63h-26q-25 0 -42.5 7.5t-28 16.5t-19 31.5t-12 38t-10.5 50.5l-3 15h-168q-11 -52 -16.5 -74t-18.5 -46t-31.5 -31.5t-48.5 -7.5h-26q-84 0 -84 57q0 22 9 56q58 229 139 454
q39 107 150 107zM346 508q-31 -67 -62 -211h124q-26 124 -62 211z" />
    <glyph glyph-name="uni1EA3" unicode="&#x1ea3;" horiz-adv-x="543" 
d="M344 616h-1q-14 -9 -16 -15q2 -22 -10 -29t-38 -6q-21 -1 -29 5.5t-9 27.5q-1 16 6.5 28.5t13.5 17t26 16.5q4 3 6 4h-1q3 3 5 3q10 5 10 26q0 17 -31 11q-21 -3 -30 -39q-26 -1 -46.5 9t-21.5 25q-2 29 23.5 57t69.5 30q57 3 88.5 -23t30.5 -71q-1 -32 -12 -48t-35 -28
h2zM257 528q123 0 177 -58t54 -164v-122q0 -94 41 -111q-5 -30 -29 -53.5t-70 -23.5q-72 0 -94 75l-2 1q-13 -29 -48 -53t-91 -24q-74 0 -123.5 42t-49.5 117q0 77 57.5 120.5t142.5 43.5q36 0 109 -15v12q0 63 -104 63q-78 0 -128 -36q-47 20 -47 76q0 47 55.5 78.5
t149.5 31.5zM256 224q-32 0 -53.5 -13.5t-21.5 -40.5q0 -24 19 -37.5t49 -13.5q36 0 59 24.5t23 56.5v9q-30 15 -75 15z" />
    <glyph glyph-name="uni1EA4" unicode="&#x1ea4;" horiz-adv-x="692" 
d="M436 961l-157 -43q-11 -4 -24 -4q-41 0 -44 37q-3 36 34 54l151 74q22 11 39 11q35 0 39 -44v-3q5 -67 -38 -82zM335 674h22q58 0 95.5 -29t54.5 -78q94 -277 139 -454q9 -39 9 -50q0 -63 -84 -63h-26q-25 0 -42.5 7.5t-28 16.5t-19 31.5t-12 38t-10.5 50.5l-3 15h-168
q-11 -52 -16.5 -74t-18.5 -46t-31.5 -31.5t-48.5 -7.5h-26q-84 0 -84 57q0 22 9 56q58 229 139 454q39 107 150 107zM346 508q-31 -67 -62 -211h124q-26 124 -62 211zM344 891q28 0 51 -17l75 -55q15 -11 21 -16.5t12.5 -15t7.5 -21.5q3 -25 -11.5 -41.5t-32.5 -16.5
q-25 0 -38 10l-85 59l-84 -59q-13 -10 -32 -10q-20 0 -35.5 18.5t-14.5 39.5q1 17 10 27.5t30 25.5l76 55q23 17 50 17z" />
    <glyph glyph-name="uni1EA5" unicode="&#x1ea5;" horiz-adv-x="544" 
d="M366 816l-157 -43q-11 -4 -24 -4q-41 0 -44 37q-3 36 34 54l151 74q22 11 39 11q35 0 39 -44v-3q5 -67 -38 -82zM257 528q123 0 177 -58t54 -164v-122q0 -94 41 -111q-5 -30 -29 -53.5t-70 -23.5q-72 0 -94 75l-2 1q-13 -29 -48 -53t-91 -24q-74 0 -123.5 42t-49.5 117
q0 77 57.5 120.5t142.5 43.5q36 0 109 -15v12q0 63 -104 63q-78 0 -128 -36q-47 20 -47 76q0 47 55.5 78.5t149.5 31.5zM256 224q-32 0 -53.5 -13.5t-21.5 -40.5q0 -24 19 -37.5t49 -13.5q36 0 59 24.5t23 56.5v9q-30 15 -75 15zM274 746q28 0 51 -17l75 -55
q15 -11 21 -16.5t12.5 -15t7.5 -21.5q3 -25 -11.5 -41.5t-32.5 -16.5q-25 0 -38 10l-85 59l-84 -59q-13 -10 -32 -10q-20 0 -35.5 18.5t-14.5 39.5q1 17 10 27.5t30 25.5l76 55q23 17 50 17z" />
    <glyph glyph-name="uni1EA6" unicode="&#x1ea6;" horiz-adv-x="692" 
d="M401 919l-157 43q-43 15 -38 82v3q4 44 39 44q17 0 39 -11l151 -74q37 -18 34 -54q-3 -37 -44 -37q-13 0 -24 4zM335 674h22q58 0 95.5 -29t54.5 -78q94 -277 139 -454q9 -39 9 -50q0 -63 -84 -63h-26q-25 0 -42.5 7.5t-28 16.5t-19 31.5t-12 38t-10.5 50.5l-3 15h-168
q-11 -52 -16.5 -74t-18.5 -46t-31.5 -31.5t-48.5 -7.5h-26q-84 0 -84 57q0 22 9 56q58 229 139 454q39 107 150 107zM346 508q-31 -67 -62 -211h124q-26 124 -62 211zM344 891q28 0 51 -17l75 -55q15 -11 21 -16.5t12.5 -15t7.5 -21.5q3 -25 -11.5 -41.5t-32.5 -16.5
q-25 0 -38 10l-85 59l-84 -59q-13 -10 -32 -10q-20 0 -35.5 18.5t-14.5 39.5q1 17 10 27.5t30 25.5l76 55q23 17 50 17z" />
    <glyph glyph-name="uni1EA7" unicode="&#x1ea7;" horiz-adv-x="544" 
d="M331 774l-157 43q-43 15 -38 82v3q4 44 39 44q17 0 39 -11l151 -74q37 -18 34 -54q-3 -37 -44 -37q-13 0 -24 4zM257 528q123 0 177 -58t54 -164v-122q0 -94 41 -111q-5 -30 -29 -53.5t-70 -23.5q-72 0 -94 75l-2 1q-13 -29 -48 -53t-91 -24q-74 0 -123.5 42t-49.5 117
q0 77 57.5 120.5t142.5 43.5q36 0 109 -15v12q0 63 -104 63q-78 0 -128 -36q-47 20 -47 76q0 47 55.5 78.5t149.5 31.5zM256 224q-32 0 -53.5 -13.5t-21.5 -40.5q0 -24 19 -37.5t49 -13.5q36 0 59 24.5t23 56.5v9q-30 15 -75 15zM274 746q28 0 51 -17l75 -55
q15 -11 21 -16.5t12.5 -15t7.5 -21.5q3 -25 -11.5 -41.5t-32.5 -16.5q-25 0 -38 10l-85 59l-84 -59q-13 -10 -32 -10q-20 0 -35.5 18.5t-14.5 39.5q1 17 10 27.5t30 25.5l76 55q23 17 50 17z" />
    <glyph glyph-name="uni1EA8" unicode="&#x1ea8;" horiz-adv-x="692" 
d="M557 905h-1q-14 -9 -16 -15q2 -22 -10 -29t-38 -6q-21 -1 -29 5.5t-9 27.5q-1 16 6.5 28.5t13.5 17t26 16.5q4 3 6 4h-1q3 3 5 3q10 5 10 26q0 17 -31 11q-21 -3 -30 -39q-26 -1 -46.5 9t-21.5 25q-2 29 23.5 57t69.5 30q57 3 88.5 -23t30.5 -71q-1 -32 -12 -48t-35 -28
h2zM335 674h22q58 0 95.5 -29t54.5 -78q94 -277 139 -454q9 -39 9 -50q0 -63 -84 -63h-26q-25 0 -42.5 7.5t-28 16.5t-19 31.5t-12 38t-10.5 50.5l-3 15h-168q-11 -52 -16.5 -74t-18.5 -46t-31.5 -31.5t-48.5 -7.5h-26q-84 0 -84 57q0 22 9 56q58 229 139 454
q39 107 150 107zM346 508q-31 -67 -62 -211h124q-26 124 -62 211zM344 891q28 0 51 -17l75 -55q15 -11 21 -16.5t12.5 -15t7.5 -21.5q3 -25 -11.5 -41.5t-32.5 -16.5q-25 0 -38 10l-85 59l-84 -59q-13 -10 -32 -10q-20 0 -35.5 18.5t-14.5 39.5q1 17 10 27.5t30 25.5l76 55
q23 17 50 17z" />
    <glyph glyph-name="uni1EA9" unicode="&#x1ea9;" horiz-adv-x="544" 
d="M486 760h-1q-14 -9 -16 -15q2 -22 -10 -29t-38 -6q-21 -1 -29 5.5t-9 27.5q-1 16 6.5 28.5t13.5 17t26 16.5q4 3 6 4h-1q3 3 5 3q10 5 10 26q0 17 -31 11q-21 -3 -30 -39q-26 -1 -46.5 9t-21.5 25q-2 29 23.5 57t69.5 30q57 3 88.5 -23t30.5 -71q-1 -32 -12 -48t-35 -28
h2zM257 528q123 0 177 -58t54 -164v-122q0 -94 41 -111q-5 -30 -29 -53.5t-70 -23.5q-72 0 -94 75l-2 1q-13 -29 -48 -53t-91 -24q-74 0 -123.5 42t-49.5 117q0 77 57.5 120.5t142.5 43.5q36 0 109 -15v12q0 63 -104 63q-78 0 -128 -36q-47 20 -47 76q0 47 55.5 78.5
t149.5 31.5zM256 224q-32 0 -53.5 -13.5t-21.5 -40.5q0 -24 19 -37.5t49 -13.5q36 0 59 24.5t23 56.5v9q-30 15 -75 15zM274 746q28 0 51 -17l75 -55q15 -11 21 -16.5t12.5 -15t7.5 -21.5q3 -25 -11.5 -41.5t-32.5 -16.5q-25 0 -38 10l-85 59l-84 -59q-13 -10 -32 -10
q-20 0 -35.5 18.5t-14.5 39.5q1 17 10 27.5t30 25.5l76 55q23 17 50 17z" />
    <glyph glyph-name="uni1EAA" unicode="&#x1eaa;" horiz-adv-x="692" 
d="M274 1052q22 3 83 -15q8 -3 21 -7.5t14.5 -4.5t12.5 -2t14 1q5 0 10.5 4t8 7t8 10.5t6.5 8.5q12 11 30.5 -3.5t20.5 -37.5q4 -36 -12 -59q-19 -27 -68 -34q-17 -2 -80 14q-8 3 -21.5 7.5t-15.5 5t-13.5 2.5t-14.5 -1q-6 0 -11.5 -4.5t-13.5 -13.5t-9 -10q-11 -11 -29 3
t-20 37q-4 36 12 59q17 27 67 33zM335 674h22q58 0 95.5 -29t54.5 -78q94 -277 139 -454q9 -39 9 -50q0 -63 -84 -63h-26q-25 0 -42.5 7.5t-28 16.5t-19 31.5t-12 38t-10.5 50.5l-3 15h-168q-11 -52 -16.5 -74t-18.5 -46t-31.5 -31.5t-48.5 -7.5h-26q-84 0 -84 57q0 22 9 56
q58 229 139 454q39 107 150 107zM346 508q-31 -67 -62 -211h124q-26 124 -62 211zM344 891q28 0 51 -17l75 -55q15 -11 21 -16.5t12.5 -15t7.5 -21.5q3 -25 -11.5 -41.5t-32.5 -16.5q-25 0 -38 10l-85 59l-84 -59q-13 -10 -32 -10q-20 0 -35.5 18.5t-14.5 39.5q1 17 10 27.5
t30 25.5l76 55q23 17 50 17z" />
    <glyph glyph-name="uni1EAB" unicode="&#x1eab;" horiz-adv-x="544" 
d="M204 907q22 3 83 -15q8 -3 21 -7.5t14.5 -4.5t12.5 -2t14 1q5 0 10.5 4t8 7t8 10.5t6.5 8.5q12 11 30.5 -3.5t20.5 -37.5q4 -36 -12 -59q-19 -27 -68 -34q-17 -2 -80 14q-8 3 -21.5 7.5t-15.5 5t-13.5 2.5t-14.5 -1q-6 0 -11.5 -4.5t-13.5 -13.5t-9 -10q-11 -11 -29 3
t-20 37q-4 36 12 59q17 27 67 33zM257 528q123 0 177 -58t54 -164v-122q0 -94 41 -111q-5 -30 -29 -53.5t-70 -23.5q-72 0 -94 75l-2 1q-13 -29 -48 -53t-91 -24q-74 0 -123.5 42t-49.5 117q0 77 57.5 120.5t142.5 43.5q36 0 109 -15v12q0 63 -104 63q-78 0 -128 -36
q-47 20 -47 76q0 47 55.5 78.5t149.5 31.5zM256 224q-32 0 -53.5 -13.5t-21.5 -40.5q0 -24 19 -37.5t49 -13.5q36 0 59 24.5t23 56.5v9q-30 15 -75 15zM274 746q28 0 51 -17l75 -55q15 -11 21 -16.5t12.5 -15t7.5 -21.5q3 -25 -11.5 -41.5t-32.5 -16.5q-25 0 -38 10l-85 59
l-84 -59q-13 -10 -32 -10q-20 0 -35.5 18.5t-14.5 39.5q1 17 10 27.5t30 25.5l76 55q23 17 50 17z" />
    <glyph glyph-name="uni1EAC" unicode="&#x1eac;" horiz-adv-x="692" 
d="M345 -50q29 0 48 -17t19 -48q0 -32 -19 -49t-48 -17q-28 0 -47 17.5t-19 48.5t19 48t47 17zM335 674h22q58 0 95.5 -29t54.5 -78q94 -277 139 -454q9 -39 9 -50q0 -63 -84 -63h-26q-25 0 -42.5 7.5t-28 16.5t-19 31.5t-12 38t-10.5 50.5l-3 15h-168q-11 -52 -16.5 -74
t-18.5 -46t-31.5 -31.5t-48.5 -7.5h-26q-84 0 -84 57q0 22 9 56q58 229 139 454q39 107 150 107zM346 508q-31 -67 -62 -211h124q-26 124 -62 211zM344 891q28 0 51 -17l75 -55q15 -11 21 -16.5t12.5 -15t7.5 -21.5q3 -25 -11.5 -41.5t-32.5 -16.5q-25 0 -38 10l-85 59
l-84 -59q-13 -10 -32 -10q-20 0 -35.5 18.5t-14.5 39.5q1 17 10 27.5t30 25.5l76 55q23 17 50 17z" />
    <glyph glyph-name="uni1EAD" unicode="&#x1ead;" horiz-adv-x="544" 
d="M251 -50q29 0 48 -17t19 -48q0 -32 -19 -49t-48 -17q-28 0 -47 17.5t-19 48.5t19 48t47 17zM257 528q123 0 177 -58t54 -164v-122q0 -94 41 -111q-5 -30 -29 -53.5t-70 -23.5q-72 0 -94 75l-2 1q-13 -29 -48 -53t-91 -24q-74 0 -123.5 42t-49.5 117q0 77 57.5 120.5
t142.5 43.5q36 0 109 -15v12q0 63 -104 63q-78 0 -128 -36q-47 20 -47 76q0 47 55.5 78.5t149.5 31.5zM256 224q-32 0 -53.5 -13.5t-21.5 -40.5q0 -24 19 -37.5t49 -13.5q36 0 59 24.5t23 56.5v9q-30 15 -75 15zM274 746q28 0 51 -17l75 -55q15 -11 21 -16.5t12.5 -15
t7.5 -21.5q3 -25 -11.5 -41.5t-32.5 -16.5q-25 0 -38 10l-85 59l-84 -59q-13 -10 -32 -10q-20 0 -35.5 18.5t-14.5 39.5q1 17 10 27.5t30 25.5l76 55q23 17 50 17z" />
    <glyph glyph-name="uni1EAE" unicode="&#x1eae;" horiz-adv-x="692" 
d="M496 928l-157 -43q-11 -4 -24 -4q-41 0 -44 37q-3 36 34 54l151 74q22 11 39 11q35 0 39 -44v-3q5 -67 -38 -82zM335 674h22q58 0 95.5 -29t54.5 -78q94 -277 139 -454q9 -39 9 -50q0 -63 -84 -63h-26q-25 0 -42.5 7.5t-28 16.5t-19 31.5t-12 38t-10.5 50.5l-3 15h-168
q-11 -52 -16.5 -74t-18.5 -46t-31.5 -31.5t-48.5 -7.5h-26q-84 0 -84 57q0 22 9 56q58 229 139 454q39 107 150 107zM346 508q-31 -67 -62 -211h124q-26 124 -62 211zM344 817q31 0 51 15.5t33.5 30.5t27.5 15q18 0 32.5 -11t14.5 -29q0 -43 -41 -82.5t-118 -39.5
q-72 0 -115.5 39.5t-43.5 81.5q0 17 15.5 30t34.5 13q13 0 24 -10t19 -21.5t25 -21.5t41 -10z" />
    <glyph glyph-name="uni1EAF" unicode="&#x1eaf;" horiz-adv-x="544" 
d="M430 778l-157 -43q-11 -4 -24 -4q-41 0 -44 37q-3 36 34 54l151 74q22 11 39 11q35 0 39 -44v-3q5 -67 -38 -82zM257 528q123 0 177 -58t54 -164v-122q0 -94 41 -111q-5 -30 -29 -53.5t-70 -23.5q-72 0 -94 75l-2 1q-13 -29 -48 -53t-91 -24q-74 0 -123.5 42t-49.5 117
q0 77 57.5 120.5t142.5 43.5q36 0 109 -15v12q0 63 -104 63q-78 0 -128 -36q-47 20 -47 76q0 47 55.5 78.5t149.5 31.5zM256 224q-32 0 -53.5 -13.5t-21.5 -40.5q0 -24 19 -37.5t49 -13.5q36 0 59 24.5t23 56.5v9q-30 15 -75 15zM278 667q31 0 51 15.5t33.5 30.5t27.5 15
q18 0 32.5 -11t14.5 -29q0 -43 -41 -82.5t-118 -39.5q-72 0 -115.5 39.5t-43.5 81.5q0 17 15.5 30t34.5 13q13 0 24 -10t19 -21.5t25 -21.5t41 -10z" />
    <glyph glyph-name="uni1EB0" unicode="&#x1eb0;" horiz-adv-x="692" 
d="M356 885l-157 43q-43 15 -38 82v3q4 44 39 44q17 0 39 -11l151 -74q37 -18 34 -54q-3 -37 -44 -37q-13 0 -24 4zM335 674h22q58 0 95.5 -29t54.5 -78q94 -277 139 -454q9 -39 9 -50q0 -63 -84 -63h-26q-25 0 -42.5 7.5t-28 16.5t-19 31.5t-12 38t-10.5 50.5l-3 15h-168
q-11 -52 -16.5 -74t-18.5 -46t-31.5 -31.5t-48.5 -7.5h-26q-84 0 -84 57q0 22 9 56q58 229 139 454q39 107 150 107zM346 508q-31 -67 -62 -211h124q-26 124 -62 211zM344 817q31 0 51 15.5t33.5 30.5t27.5 15q18 0 32.5 -11t14.5 -29q0 -43 -41 -82.5t-118 -39.5
q-72 0 -115.5 39.5t-43.5 81.5q0 17 15.5 30t34.5 13q13 0 24 -10t19 -21.5t25 -21.5t41 -10z" />
    <glyph glyph-name="uni1EB1" unicode="&#x1eb1;" horiz-adv-x="544" 
d="M290 735l-157 43q-43 15 -38 82v3q4 44 39 44q17 0 39 -11l151 -74q37 -18 34 -54q-3 -37 -44 -37q-13 0 -24 4zM257 528q123 0 177 -58t54 -164v-122q0 -94 41 -111q-5 -30 -29 -53.5t-70 -23.5q-72 0 -94 75l-2 1q-13 -29 -48 -53t-91 -24q-74 0 -123.5 42t-49.5 117
q0 77 57.5 120.5t142.5 43.5q36 0 109 -15v12q0 63 -104 63q-78 0 -128 -36q-47 20 -47 76q0 47 55.5 78.5t149.5 31.5zM256 224q-32 0 -53.5 -13.5t-21.5 -40.5q0 -24 19 -37.5t49 -13.5q36 0 59 24.5t23 56.5v9q-30 15 -75 15zM278 667q31 0 51 15.5t33.5 30.5t27.5 15
q18 0 32.5 -11t14.5 -29q0 -43 -41 -82.5t-118 -39.5q-72 0 -115.5 39.5t-43.5 81.5q0 17 15.5 30t34.5 13q13 0 24 -10t19 -21.5t25 -21.5t41 -10z" />
    <glyph glyph-name="uni1EB2" unicode="&#x1eb2;" horiz-adv-x="692" 
d="M408 919h-1q-14 -9 -16 -15q2 -22 -10 -29t-38 -6q-21 -1 -29 5.5t-9 27.5q-1 16 6.5 28.5t13.5 17t26 16.5q4 3 6 4h-1q3 3 5 3q10 5 10 26q0 17 -31 11q-21 -3 -30 -39q-26 -1 -46.5 9t-21.5 25q-2 29 23.5 57t69.5 30q57 3 88.5 -23t30.5 -71q-1 -32 -12 -48t-35 -28
h2zM335 674h22q58 0 95.5 -29t54.5 -78q94 -277 139 -454q9 -39 9 -50q0 -63 -84 -63h-26q-25 0 -42.5 7.5t-28 16.5t-19 31.5t-12 38t-10.5 50.5l-3 15h-168q-11 -52 -16.5 -74t-18.5 -46t-31.5 -31.5t-48.5 -7.5h-26q-84 0 -84 57q0 22 9 56q58 229 139 454
q39 107 150 107zM346 508q-31 -67 -62 -211h124q-26 124 -62 211zM344 817q31 0 51 15.5t33.5 30.5t27.5 15q18 0 32.5 -11t14.5 -29q0 -43 -41 -82.5t-118 -39.5q-72 0 -115.5 39.5t-43.5 81.5q0 17 15.5 30t34.5 13q13 0 24 -10t19 -21.5t25 -21.5t41 -10z" />
    <glyph glyph-name="uni1EB3" unicode="&#x1eb3;" horiz-adv-x="544" 
d="M342 769h-1q-14 -9 -16 -15q2 -22 -10 -29t-38 -6q-21 -1 -29 5.5t-9 27.5q-1 16 6.5 28.5t13.5 17t26 16.5q4 3 6 4h-1q3 3 5 3q10 5 10 26q0 17 -31 11q-21 -3 -30 -39q-26 -1 -46.5 9t-21.5 25q-2 29 23.5 57t69.5 30q57 3 88.5 -23t30.5 -71q-1 -32 -12 -48t-35 -28
h2zM257 528q123 0 177 -58t54 -164v-122q0 -94 41 -111q-5 -30 -29 -53.5t-70 -23.5q-72 0 -94 75l-2 1q-13 -29 -48 -53t-91 -24q-74 0 -123.5 42t-49.5 117q0 77 57.5 120.5t142.5 43.5q36 0 109 -15v12q0 63 -104 63q-78 0 -128 -36q-47 20 -47 76q0 47 55.5 78.5
t149.5 31.5zM256 224q-32 0 -53.5 -13.5t-21.5 -40.5q0 -24 19 -37.5t49 -13.5q36 0 59 24.5t23 56.5v9q-30 15 -75 15zM278 667q31 0 51 15.5t33.5 30.5t27.5 15q18 0 32.5 -11t14.5 -29q0 -43 -41 -82.5t-118 -39.5q-72 0 -115.5 39.5t-43.5 81.5q0 17 15.5 30t34.5 13
q13 0 24 -10t19 -21.5t25 -21.5t41 -10z" />
    <glyph glyph-name="uni1EB4" unicode="&#x1eb4;" horiz-adv-x="692" 
d="M272 1054q34 0 85 -21q39 -16 68 -16q17 0 36 15q12 10 29 -6t17 -39q0 -36 -18 -58q-25 -30 -72 -30q-31 0 -84 21q-39 16 -69 16q-18 0 -36 -14q-12 -10 -28.5 5.5t-16.5 38.5q0 36 18 58q24 30 71 30zM335 674h22q58 0 95.5 -29t54.5 -78q94 -277 139 -454
q9 -39 9 -50q0 -63 -84 -63h-26q-25 0 -42.5 7.5t-28 16.5t-19 31.5t-12 38t-10.5 50.5l-3 15h-168q-11 -52 -16.5 -74t-18.5 -46t-31.5 -31.5t-48.5 -7.5h-26q-84 0 -84 57q0 22 9 56q58 229 139 454q39 107 150 107zM346 508q-31 -67 -62 -211h124q-26 124 -62 211z
M344 817q31 0 51 15.5t33.5 30.5t27.5 15q18 0 32.5 -11t14.5 -29q0 -43 -41 -82.5t-118 -39.5q-72 0 -115.5 39.5t-43.5 81.5q0 17 15.5 30t34.5 13q13 0 24 -10t19 -21.5t25 -21.5t41 -10z" />
    <glyph glyph-name="uni1EB5" unicode="&#x1eb5;" horiz-adv-x="544" 
d="M206 904q34 0 85 -21q39 -16 68 -16q17 0 36 15q12 10 29 -6t17 -39q0 -36 -18 -58q-25 -30 -72 -30q-31 0 -84 21q-39 16 -69 16q-18 0 -36 -14q-12 -10 -28.5 5.5t-16.5 38.5q0 36 18 58q24 30 71 30zM257 528q123 0 177 -58t54 -164v-122q0 -94 41 -111
q-5 -30 -29 -53.5t-70 -23.5q-72 0 -94 75l-2 1q-13 -29 -48 -53t-91 -24q-74 0 -123.5 42t-49.5 117q0 77 57.5 120.5t142.5 43.5q36 0 109 -15v12q0 63 -104 63q-78 0 -128 -36q-47 20 -47 76q0 47 55.5 78.5t149.5 31.5zM256 224q-32 0 -53.5 -13.5t-21.5 -40.5
q0 -24 19 -37.5t49 -13.5q36 0 59 24.5t23 56.5v9q-30 15 -75 15zM278 667q31 0 51 15.5t33.5 30.5t27.5 15q18 0 32.5 -11t14.5 -29q0 -43 -41 -82.5t-118 -39.5q-72 0 -115.5 39.5t-43.5 81.5q0 17 15.5 30t34.5 13q13 0 24 -10t19 -21.5t25 -21.5t41 -10z" />
    <glyph glyph-name="uni1EB6" unicode="&#x1eb6;" horiz-adv-x="692" 
d="M345 -50q29 0 48 -17t19 -48q0 -32 -19 -49t-48 -17q-28 0 -47 17.5t-19 48.5t19 48t47 17zM335 674h22q58 0 95.5 -29t54.5 -78q94 -277 139 -454q9 -39 9 -50q0 -63 -84 -63h-26q-25 0 -42.5 7.5t-28 16.5t-19 31.5t-12 38t-10.5 50.5l-3 15h-168q-11 -52 -16.5 -74
t-18.5 -46t-31.5 -31.5t-48.5 -7.5h-26q-84 0 -84 57q0 22 9 56q58 229 139 454q39 107 150 107zM346 508q-31 -67 -62 -211h124q-26 124 -62 211zM344 817q31 0 51 15.5t33.5 30.5t27.5 15q18 0 32.5 -11t14.5 -29q0 -43 -41 -82.5t-118 -39.5q-72 0 -115.5 39.5
t-43.5 81.5q0 17 15.5 30t34.5 13q13 0 24 -10t19 -21.5t25 -21.5t41 -10z" />
    <glyph glyph-name="uni1EB7" unicode="&#x1eb7;" horiz-adv-x="544" 
d="M251 -50q29 0 48 -17t19 -48q0 -32 -19 -49t-48 -17q-28 0 -47 17.5t-19 48.5t19 48t47 17zM257 528q123 0 177 -58t54 -164v-122q0 -94 41 -111q-5 -30 -29 -53.5t-70 -23.5q-72 0 -94 75l-2 1q-13 -29 -48 -53t-91 -24q-74 0 -123.5 42t-49.5 117q0 77 57.5 120.5
t142.5 43.5q36 0 109 -15v12q0 63 -104 63q-78 0 -128 -36q-47 20 -47 76q0 47 55.5 78.5t149.5 31.5zM256 224q-32 0 -53.5 -13.5t-21.5 -40.5q0 -24 19 -37.5t49 -13.5q36 0 59 24.5t23 56.5v9q-30 15 -75 15zM278 667q31 0 51 15.5t33.5 30.5t27.5 15q18 0 32.5 -11
t14.5 -29q0 -43 -41 -82.5t-118 -39.5q-72 0 -115.5 39.5t-43.5 81.5q0 17 15.5 30t34.5 13q13 0 24 -10t19 -21.5t25 -21.5t41 -10z" />
    <glyph glyph-name="uni1EB8" unicode="&#x1eb8;" horiz-adv-x="578" 
d="M288 -50q29 0 48 -17t19 -48q0 -32 -19 -49t-48 -17q-28 0 -47 17.5t-19 48.5t19 48t47 17zM150 673h314q77 0 77 -83t-77 -83h-213v-99h165q38 0 57.5 -14.5t19.5 -52.5t-19.5 -52.5t-57.5 -14.5h-165v-109h220q77 0 77 -82q0 -83 -77 -83h-321q-47 0 -66 18t-19 61v513
q0 43 19.5 62t65.5 19z" />
    <glyph glyph-name="uni1EB9" unicode="&#x1eb9;" horiz-adv-x="516" 
d="M276 -50q29 0 48 -17t19 -48q0 -32 -19 -49t-48 -17q-28 0 -47 17.5t-19 48.5t19 48t47 17zM284 528q97 0 153 -51t56 -126t-52.5 -113.5t-132.5 -38.5t-129 23q0 -41 40 -65t99 -24q77 0 120 41q19 -7 32.5 -28t13.5 -44q0 -35 -30.5 -61t-73 -37.5t-87.5 -11.5
q-123 0 -197 66.5t-74 195.5q0 130 73.5 202t188.5 72zM276 393q-32 0 -57 -22t-28 -59q27 -20 99 -20q62 0 62 49q0 22 -21.5 37t-54.5 15z" />
    <glyph glyph-name="uni1EBA" unicode="&#x1eba;" horiz-adv-x="578" 
d="M374 767h-1q-14 -9 -16 -15q2 -22 -10 -29t-38 -6q-21 -1 -29 5.5t-9 27.5q-1 16 6.5 28.5t13.5 17t26 16.5q4 3 6 4h-1q3 3 5 3q10 5 10 26q0 17 -31 11q-21 -3 -30 -39q-26 -1 -46.5 9t-21.5 25q-2 29 23.5 57t69.5 30q57 3 88.5 -23t30.5 -71q-1 -32 -12 -48t-35 -28
h2zM150 673h314q77 0 77 -83t-77 -83h-213v-99h165q38 0 57.5 -14.5t19.5 -52.5t-19.5 -52.5t-57.5 -14.5h-165v-109h220q77 0 77 -82q0 -83 -77 -83h-321q-47 0 -66 18t-19 61v513q0 43 19.5 62t65.5 19z" />
    <glyph glyph-name="uni1EBB" unicode="&#x1ebb;" horiz-adv-x="516" 
d="M354 616h-1q-14 -9 -16 -15q2 -22 -10 -29t-38 -6q-21 -1 -29 5.5t-9 27.5q-1 16 6.5 28.5t13.5 17t26 16.5q4 3 6 4h-1q3 3 5 3q10 5 10 26q0 17 -31 11q-21 -3 -30 -39q-26 -1 -46.5 9t-21.5 25q-2 29 23.5 57t69.5 30q57 3 88.5 -23t30.5 -71q-1 -32 -12 -48t-35 -28
h2zM284 528q97 0 153 -51t56 -126t-52.5 -113.5t-132.5 -38.5t-129 23q0 -41 40 -65t99 -24q77 0 120 41q19 -7 32.5 -28t13.5 -44q0 -35 -30.5 -61t-73 -37.5t-87.5 -11.5q-123 0 -197 66.5t-74 195.5q0 130 73.5 202t188.5 72zM276 393q-32 0 -57 -22t-28 -59
q27 -20 99 -20q62 0 62 49q0 22 -21.5 37t-54.5 15z" />
    <glyph glyph-name="uni1EBC" unicode="&#x1ebc;" horiz-adv-x="578" 
d="M227 869q34 0 85 -21q39 -16 68 -16q17 0 36 15q12 10 29 -6t17 -39q0 -36 -18 -58q-26 -30 -72 -30q-31 0 -84 21q-39 16 -69 16q-18 0 -36 -14q-12 -10 -28.5 5.5t-16.5 38.5q0 36 18 58q24 30 71 30zM150 673h314q77 0 77 -83t-77 -83h-213v-99h165q38 0 57.5 -14.5
t19.5 -52.5t-19.5 -52.5t-57.5 -14.5h-165v-109h220q77 0 77 -82q0 -83 -77 -83h-321q-47 0 -66 18t-19 61v513q0 43 19.5 62t65.5 19z" />
    <glyph glyph-name="uni1EBD" unicode="&#x1ebd;" horiz-adv-x="516" 
d="M212 700q22 3 83 -15q8 -3 21 -7.5t14.5 -4.5t12.5 -2t14 1q5 0 10.5 4t8 7t8 10.5t6.5 8.5q12 11 30.5 -3.5t20.5 -37.5q4 -36 -12 -59q-19 -27 -68 -34q-17 -2 -80 14q-8 3 -21.5 7.5t-15.5 5t-13.5 2.5t-14.5 -1q-6 0 -11.5 -4.5t-13.5 -13.5t-9 -10q-11 -11 -29 3
t-20 37q-4 36 12 59q17 27 67 33zM284 528q97 0 153 -51t56 -126t-52.5 -113.5t-132.5 -38.5t-129 23q0 -41 40 -65t99 -24q77 0 120 41q19 -7 32.5 -28t13.5 -44q0 -35 -30.5 -61t-73 -37.5t-87.5 -11.5q-123 0 -197 66.5t-74 195.5q0 130 73.5 202t188.5 72zM276 393
q-32 0 -57 -22t-28 -59q27 -20 99 -20q62 0 62 49q0 22 -21.5 37t-54.5 15z" />
    <glyph glyph-name="uni1EBE" unicode="&#x1ebe;" horiz-adv-x="575" 
d="M384 961l-157 -43q-11 -4 -24 -4q-41 0 -44 37q-3 36 34 54l151 74q22 11 39 11q35 0 39 -44v-3q5 -67 -38 -82zM150 673h314q77 0 77 -83t-77 -83h-213v-99h165q38 0 57.5 -14.5t19.5 -52.5t-19.5 -52.5t-57.5 -14.5h-165v-109h220q77 0 77 -82q0 -83 -77 -83h-321
q-47 0 -66 18t-19 61v513q0 43 19.5 62t65.5 19zM292 891q28 0 51 -17l75 -55q15 -11 21 -16.5t12.5 -15t7.5 -21.5q3 -25 -11.5 -41.5t-32.5 -16.5q-25 0 -38 10l-85 59l-84 -59q-13 -10 -32 -10q-20 0 -35.5 18.5t-14.5 39.5q1 17 10 27.5t30 25.5l76 55q23 17 50 17z" />
    <glyph glyph-name="uni1EBF" unicode="&#x1ebf;" horiz-adv-x="516" 
d="M374 809l-157 -43q-11 -4 -24 -4q-41 0 -44 37q-3 36 34 54l151 74q22 11 39 11q35 0 39 -44v-3q5 -67 -38 -82zM284 528q97 0 153 -51t56 -126t-52.5 -113.5t-132.5 -38.5t-129 23q0 -41 40 -65t99 -24q77 0 120 41q19 -7 32.5 -28t13.5 -44q0 -35 -30.5 -61t-73 -37.5
t-87.5 -11.5q-123 0 -197 66.5t-74 195.5q0 130 73.5 202t188.5 72zM276 393q-32 0 -57 -22t-28 -59q27 -20 99 -20q62 0 62 49q0 22 -21.5 37t-54.5 15zM282 739q28 0 51 -17l75 -55q15 -11 21 -16.5t12.5 -15t7.5 -21.5q3 -25 -11.5 -41.5t-32.5 -16.5q-25 0 -38 10
l-85 59l-84 -59q-13 -10 -32 -10q-20 0 -35.5 18.5t-14.5 39.5q1 17 10 27.5t30 25.5l76 55q23 17 50 17z" />
    <glyph glyph-name="uni1EC0" unicode="&#x1ec0;" horiz-adv-x="575" 
d="M349 919l-157 43q-43 15 -38 82v3q4 44 39 44q17 0 39 -11l151 -74q37 -18 34 -54q-3 -37 -44 -37q-13 0 -24 4zM150 673h314q77 0 77 -83t-77 -83h-213v-99h165q38 0 57.5 -14.5t19.5 -52.5t-19.5 -52.5t-57.5 -14.5h-165v-109h220q77 0 77 -82q0 -83 -77 -83h-321
q-47 0 -66 18t-19 61v513q0 43 19.5 62t65.5 19zM292 891q28 0 51 -17l75 -55q15 -11 21 -16.5t12.5 -15t7.5 -21.5q3 -25 -11.5 -41.5t-32.5 -16.5q-25 0 -38 10l-85 59l-84 -59q-13 -10 -32 -10q-20 0 -35.5 18.5t-14.5 39.5q1 17 10 27.5t30 25.5l76 55q23 17 50 17z" />
    <glyph glyph-name="uni1EC1" unicode="&#x1ec1;" horiz-adv-x="516" 
d="M339 767l-157 43q-43 15 -38 82v3q4 44 39 44q17 0 39 -11l151 -74q37 -18 34 -54q-3 -37 -44 -37q-13 0 -24 4zM284 528q97 0 153 -51t56 -126t-52.5 -113.5t-132.5 -38.5t-129 23q0 -41 40 -65t99 -24q77 0 120 41q19 -7 32.5 -28t13.5 -44q0 -35 -30.5 -61t-73 -37.5
t-87.5 -11.5q-123 0 -197 66.5t-74 195.5q0 130 73.5 202t188.5 72zM276 393q-32 0 -57 -22t-28 -59q27 -20 99 -20q62 0 62 49q0 22 -21.5 37t-54.5 15zM282 739q28 0 51 -17l75 -55q15 -11 21 -16.5t12.5 -15t7.5 -21.5q3 -25 -11.5 -41.5t-32.5 -16.5q-25 0 -38 10
l-85 59l-84 -59q-13 -10 -32 -10q-20 0 -35.5 18.5t-14.5 39.5q1 17 10 27.5t30 25.5l76 55q23 17 50 17z" />
    <glyph glyph-name="uni1EC2" unicode="&#x1ec2;" horiz-adv-x="575" 
d="M505 905h-1q-14 -9 -16 -15q2 -22 -10 -29t-38 -6q-21 -1 -29 5.5t-9 27.5q-1 16 6.5 28.5t13.5 17t26 16.5q4 3 6 4h-1q3 3 5 3q10 5 10 26q0 17 -31 11q-21 -3 -30 -39q-26 -1 -46.5 9t-21.5 25q-2 29 23.5 57t69.5 30q57 3 88.5 -23t30.5 -71q-1 -32 -12 -48t-35 -28
h2zM150 673h314q77 0 77 -83t-77 -83h-213v-99h165q38 0 57.5 -14.5t19.5 -52.5t-19.5 -52.5t-57.5 -14.5h-165v-109h220q77 0 77 -82q0 -83 -77 -83h-321q-47 0 -66 18t-19 61v513q0 43 19.5 62t65.5 19zM292 891q28 0 51 -17l75 -55q15 -11 21 -16.5t12.5 -15t7.5 -21.5
q3 -25 -11.5 -41.5t-32.5 -16.5q-25 0 -38 10l-85 59l-84 -59q-13 -10 -32 -10q-20 0 -35.5 18.5t-14.5 39.5q1 17 10 27.5t30 25.5l76 55q23 17 50 17z" />
    <glyph glyph-name="uni1EC3" unicode="&#x1ec3;" horiz-adv-x="516" 
d="M494 753h-1q-14 -9 -16 -15q2 -22 -10 -29t-38 -6q-21 -1 -29 5.5t-9 27.5q-1 16 6.5 28.5t13.5 17t26 16.5q4 3 6 4h-1q3 3 5 3q10 5 10 26q0 17 -31 11q-21 -3 -30 -39q-26 -1 -46.5 9t-21.5 25q-2 29 23.5 57t69.5 30q57 3 88.5 -23t30.5 -71q-1 -32 -12 -48t-35 -28
h2zM284 528q97 0 153 -51t56 -126t-52.5 -113.5t-132.5 -38.5t-129 23q0 -41 40 -65t99 -24q77 0 120 41q19 -7 32.5 -28t13.5 -44q0 -35 -30.5 -61t-73 -37.5t-87.5 -11.5q-123 0 -197 66.5t-74 195.5q0 130 73.5 202t188.5 72zM276 393q-32 0 -57 -22t-28 -59
q27 -20 99 -20q62 0 62 49q0 22 -21.5 37t-54.5 15zM282 739q28 0 51 -17l75 -55q15 -11 21 -16.5t12.5 -15t7.5 -21.5q3 -25 -11.5 -41.5t-32.5 -16.5q-25 0 -38 10l-85 59l-84 -59q-13 -10 -32 -10q-20 0 -35.5 18.5t-14.5 39.5q1 17 10 27.5t30 25.5l76 55q23 17 50 17z
" />
    <glyph glyph-name="uni1EC4" unicode="&#x1ec4;" horiz-adv-x="575" 
d="M222 1052q22 3 83 -15q8 -3 21 -7.5t14.5 -4.5t12.5 -2t14 1q5 0 10.5 4t8 7t8 10.5t6.5 8.5q12 11 30.5 -3.5t20.5 -37.5q4 -36 -12 -59q-19 -27 -68 -34q-17 -2 -80 14q-8 3 -21.5 7.5t-15.5 5t-13.5 2.5t-14.5 -1q-6 0 -11.5 -4.5t-13.5 -13.5t-9 -10q-11 -11 -29 3
t-20 37q-4 36 12 59q17 27 67 33zM150 673h314q77 0 77 -83t-77 -83h-213v-99h165q38 0 57.5 -14.5t19.5 -52.5t-19.5 -52.5t-57.5 -14.5h-165v-109h220q77 0 77 -82q0 -83 -77 -83h-321q-47 0 -66 18t-19 61v513q0 43 19.5 62t65.5 19zM292 891q28 0 51 -17l75 -55
q15 -11 21 -16.5t12.5 -15t7.5 -21.5q3 -25 -11.5 -41.5t-32.5 -16.5q-25 0 -38 10l-85 59l-84 -59q-13 -10 -32 -10q-20 0 -35.5 18.5t-14.5 39.5q1 17 10 27.5t30 25.5l76 55q23 17 50 17z" />
    <glyph glyph-name="uni1EC5" unicode="&#x1ec5;" horiz-adv-x="516" 
d="M212 900q22 3 83 -15q8 -3 21 -7.5t14.5 -4.5t12.5 -2t14 1q5 0 10.5 4t8 7t8 10.5t6.5 8.5q12 11 30.5 -3.5t20.5 -37.5q4 -36 -12 -59q-19 -27 -68 -34q-17 -2 -80 14q-8 3 -21.5 7.5t-15.5 5t-13.5 2.5t-14.5 -1q-6 0 -11.5 -4.5t-13.5 -13.5t-9 -10q-11 -11 -29 3
t-20 37q-4 36 12 59q17 27 67 33zM284 528q97 0 153 -51t56 -126t-52.5 -113.5t-132.5 -38.5t-129 23q0 -41 40 -65t99 -24q77 0 120 41q19 -7 32.5 -28t13.5 -44q0 -35 -30.5 -61t-73 -37.5t-87.5 -11.5q-123 0 -197 66.5t-74 195.5q0 130 73.5 202t188.5 72zM276 393
q-32 0 -57 -22t-28 -59q27 -20 99 -20q62 0 62 49q0 22 -21.5 37t-54.5 15zM282 739q28 0 51 -17l75 -55q15 -11 21 -16.5t12.5 -15t7.5 -21.5q3 -25 -11.5 -41.5t-32.5 -16.5q-25 0 -38 10l-85 59l-84 -59q-13 -10 -32 -10q-20 0 -35.5 18.5t-14.5 39.5q1 17 10 27.5
t30 25.5l76 55q23 17 50 17z" />
    <glyph glyph-name="uni1EC6" unicode="&#x1ec6;" horiz-adv-x="575" 
d="M288 -50q29 0 48 -17t19 -48q0 -32 -19 -49t-48 -17q-28 0 -47 17.5t-19 48.5t19 48t47 17zM150 673h314q77 0 77 -83t-77 -83h-213v-99h165q38 0 57.5 -14.5t19.5 -52.5t-19.5 -52.5t-57.5 -14.5h-165v-109h220q77 0 77 -82q0 -83 -77 -83h-321q-47 0 -66 18t-19 61v513
q0 43 19.5 62t65.5 19zM292 891q28 0 51 -17l75 -55q15 -11 21 -16.5t12.5 -15t7.5 -21.5q3 -25 -11.5 -41.5t-32.5 -16.5q-25 0 -38 10l-85 59l-84 -59q-13 -10 -32 -10q-20 0 -35.5 18.5t-14.5 39.5q1 17 10 27.5t30 25.5l76 55q23 17 50 17z" />
    <glyph glyph-name="uni1EC7" unicode="&#x1ec7;" horiz-adv-x="516" 
d="M276 -50q29 0 48 -17t19 -48q0 -32 -19 -49t-48 -17q-28 0 -47 17.5t-19 48.5t19 48t47 17zM284 528q97 0 153 -51t56 -126t-52.5 -113.5t-132.5 -38.5t-129 23q0 -41 40 -65t99 -24q77 0 120 41q19 -7 32.5 -28t13.5 -44q0 -35 -30.5 -61t-73 -37.5t-87.5 -11.5
q-123 0 -197 66.5t-74 195.5q0 130 73.5 202t188.5 72zM276 393q-32 0 -57 -22t-28 -59q27 -20 99 -20q62 0 62 49q0 22 -21.5 37t-54.5 15zM282 739q28 0 51 -17l75 -55q15 -11 21 -16.5t12.5 -15t7.5 -21.5q3 -25 -11.5 -41.5t-32.5 -16.5q-25 0 -38 10l-85 59l-84 -59
q-13 -10 -32 -10q-20 0 -35.5 18.5t-14.5 39.5q1 17 10 27.5t30 25.5l76 55q23 17 50 17z" />
    <glyph glyph-name="uni1EC8" unicode="&#x1ec8;" horiz-adv-x="316" 
d="M226 767h-1q-14 -9 -16 -15q2 -22 -10 -29t-38 -6q-21 -1 -29 5.5t-9 27.5q-1 16 6.5 28.5t13.5 17t26 16.5q4 3 6 4h-1q3 3 5 3q10 5 10 26q0 17 -31 11q-21 -3 -30 -39q-26 -1 -46.5 9t-21.5 25q-2 29 23.5 57t69.5 30q57 3 88.5 -23t30.5 -71q-1 -32 -12 -48t-35 -28
h2zM150 673h16q46 0 65.5 -19t19.5 -62v-513q0 -42 -19.5 -60.5t-65.5 -18.5h-16q-47 0 -66 18t-19 61v513q0 43 19.5 62t65.5 19z" />
    <glyph glyph-name="uni1EC9" unicode="&#x1ec9;" horiz-adv-x="275" 
d="M135 522h2q46 0 66 -18.5t20 -61.5v-363q0 -42 -19.5 -60.5t-64.5 -18.5h-4q-46 0 -65 18.5t-19 60.5v363q0 43 19.5 61.5t64.5 18.5zM202 616h-1q-14 -9 -16 -15q2 -22 -10 -29t-38 -6q-21 -1 -29 5.5t-9 27.5q-1 16 6.5 28.5t13.5 17t26 16.5q4 3 6 4h-1q3 3 5 3
q10 5 10 26q0 17 -31 11q-21 -3 -30 -39q-26 -1 -46.5 9t-21.5 25q-2 29 23.5 57t69.5 30q57 3 88.5 -23t30.5 -71q-1 -32 -12 -48t-35 -28h2z" />
    <glyph glyph-name="uni1ECA" unicode="&#x1eca;" horiz-adv-x="316" 
d="M160 -50q29 0 48 -17t19 -48q0 -32 -19 -49t-48 -17q-28 0 -47 17.5t-19 48.5t19 48t47 17zM150 673h16q46 0 65.5 -19t19.5 -62v-513q0 -42 -19.5 -60.5t-65.5 -18.5h-16q-47 0 -66 18t-19 61v513q0 43 19.5 62t65.5 19z" />
    <glyph glyph-name="uni1ECB" unicode="&#x1ecb;" horiz-adv-x="275" 
d="M137 -50q29 0 48 -17t19 -48q0 -32 -19 -49t-48 -17q-28 0 -47 17.5t-19 48.5t19 48t47 17zM135 522h2q46 0 66 -18.5t20 -61.5v-363q0 -42 -19.5 -60.5t-64.5 -18.5h-4q-46 0 -65 18.5t-19 60.5v363q0 43 19.5 61.5t64.5 18.5zM137 753q41 0 67 -22.5t26 -65.5t-26 -65
t-67 -22t-67 22t-26 65t26 65.5t67 22.5z" />
    <glyph glyph-name="uni1ECC" unicode="&#x1ecc;" horiz-adv-x="733" 
d="M366 -50q29 0 48 -17t19 -48q0 -32 -19 -49t-48 -17q-28 0 -47 17.5t-19 48.5t19 48t47 17zM366 682q61 0 117 -18.5t105.5 -57.5t79.5 -109t30 -162t-30 -161t-79.5 -107.5t-105.5 -57t-116 -18.5q-61 0 -117 18.5t-106 57t-80 107.5t-30 161t30 162t79.5 109
t105.5 57.5t117 18.5zM366 508q-59 0 -100.5 -42.5t-41.5 -129.5q0 -88 41.5 -130.5t100.5 -42.5t100.5 42.5t41.5 130.5t-41.5 130t-100.5 42z" />
    <glyph glyph-name="uni1ECD" unicode="&#x1ecd;" 
d="M285 -50q29 0 48 -17t19 -48q0 -32 -19 -49t-48 -17q-28 0 -47 17.5t-19 48.5t19 48t47 17zM285 529q48 0 93 -16t83.5 -48t62 -85t23.5 -121q0 -67 -23.5 -120t-62 -83.5t-83.5 -46t-93 -15.5t-93 15.5t-84 46t-62.5 83.5t-23.5 120t23.5 121t62.5 85t84 47.5t93 16.5z
M284 379q-41 0 -65.5 -29t-24.5 -88t24.5 -88.5t65.5 -29.5t65.5 29t24.5 89q0 59 -24.5 88t-65.5 29z" />
    <glyph glyph-name="uni1ECE" unicode="&#x1ece;" horiz-adv-x="733" 
d="M433 767h-1q-14 -9 -16 -15q2 -22 -10 -29t-38 -6q-21 -1 -29 5.5t-9 27.5q-1 16 6.5 28.5t13.5 17t26 16.5q4 3 6 4h-1q3 3 5 3q10 5 10 26q0 17 -31 11q-21 -3 -30 -39q-26 -1 -46.5 9t-21.5 25q-2 29 23.5 57t69.5 30q57 3 88.5 -23t30.5 -71q-1 -32 -12 -48t-35 -28
h2zM366 682q61 0 117 -18.5t105.5 -57.5t79.5 -109t30 -162t-30 -161t-79.5 -107.5t-105.5 -57t-116 -18.5q-61 0 -117 18.5t-106 57t-80 107.5t-30 161t30 162t79.5 109t105.5 57.5t117 18.5zM366 508q-59 0 -100.5 -42.5t-41.5 -129.5q0 -88 41.5 -130.5t100.5 -42.5
t100.5 42.5t41.5 130.5t-41.5 130t-100.5 42z" />
    <glyph glyph-name="uni1ECF" unicode="&#x1ecf;" 
d="M348 616h-1q-14 -9 -16 -15q2 -22 -10 -29t-38 -6q-21 -1 -29 5.5t-9 27.5q-1 16 6.5 28.5t13.5 17t26 16.5q4 3 6 4h-1q3 3 5 3q10 5 10 26q0 17 -31 11q-21 -3 -30 -39q-26 -1 -46.5 9t-21.5 25q-2 29 23.5 57t69.5 30q57 3 88.5 -23t30.5 -71q-1 -32 -12 -48t-35 -28
h2zM285 529q48 0 93 -16t83.5 -48t62 -85t23.5 -121q0 -67 -23.5 -120t-62 -83.5t-83.5 -46t-93 -15.5t-93 15.5t-84 46t-62.5 83.5t-23.5 120t23.5 121t62.5 85t84 47.5t93 16.5zM284 379q-41 0 -65.5 -29t-24.5 -88t24.5 -88.5t65.5 -29.5t65.5 29t24.5 89q0 59 -24.5 88
t-65.5 29z" />
    <glyph glyph-name="uni1ED0" unicode="&#x1ed0;" horiz-adv-x="733" 
d="M455 961l-157 -43q-11 -4 -24 -4q-41 0 -44 37q-3 36 34 54l151 74q22 11 39 11q35 0 39 -44v-3q5 -67 -38 -82zM366 682q61 0 117 -18.5t105.5 -57.5t79.5 -109t30 -162t-30 -161t-79.5 -107.5t-105.5 -57t-116 -18.5q-61 0 -117 18.5t-106 57t-80 107.5t-30 161t30 162
t79.5 109t105.5 57.5t117 18.5zM366 508q-59 0 -100.5 -42.5t-41.5 -129.5q0 -88 41.5 -130.5t100.5 -42.5t100.5 42.5t41.5 130.5t-41.5 130t-100.5 42zM364 891q28 0 51 -17l75 -55q15 -11 21 -16.5t12.5 -15t7.5 -21.5q3 -25 -11.5 -41.5t-32.5 -16.5q-25 0 -38 10
l-85 59l-84 -59q-13 -10 -32 -10q-20 0 -35.5 18.5t-14.5 39.5q1 17 10 27.5t30 25.5l76 55q23 17 50 17z" />
    <glyph glyph-name="uni1ED1" unicode="&#x1ed1;" 
d="M376 809l-157 -43q-11 -4 -24 -4q-41 0 -44 37q-3 36 34 54l151 74q22 11 39 11q35 0 39 -44v-3q5 -67 -38 -82zM285 529q48 0 93 -16t83.5 -48t62 -85t23.5 -121q0 -67 -23.5 -120t-62 -83.5t-83.5 -46t-93 -15.5t-93 15.5t-84 46t-62.5 83.5t-23.5 120t23.5 121
t62.5 85t84 47.5t93 16.5zM284 379q-41 0 -65.5 -29t-24.5 -88t24.5 -88.5t65.5 -29.5t65.5 29t24.5 89q0 59 -24.5 88t-65.5 29zM284 739q28 0 51 -17l75 -55q15 -11 21 -16.5t12.5 -15t7.5 -21.5q3 -25 -11.5 -41.5t-32.5 -16.5q-25 0 -38 10l-85 59l-84 -59
q-13 -10 -32 -10q-20 0 -35.5 18.5t-14.5 39.5q1 17 10 27.5t30 25.5l76 55q23 17 50 17z" />
    <glyph glyph-name="uni1ED2" unicode="&#x1ed2;" horiz-adv-x="733" 
d="M421 919l-157 43q-43 15 -38 82v3q4 44 39 44q17 0 39 -11l151 -74q37 -18 34 -54q-3 -37 -44 -37q-13 0 -24 4zM366 682q61 0 117 -18.5t105.5 -57.5t79.5 -109t30 -162t-30 -161t-79.5 -107.5t-105.5 -57t-116 -18.5q-61 0 -117 18.5t-106 57t-80 107.5t-30 161t30 162
t79.5 109t105.5 57.5t117 18.5zM366 508q-59 0 -100.5 -42.5t-41.5 -129.5q0 -88 41.5 -130.5t100.5 -42.5t100.5 42.5t41.5 130.5t-41.5 130t-100.5 42zM364 891q28 0 51 -17l75 -55q15 -11 21 -16.5t12.5 -15t7.5 -21.5q3 -25 -11.5 -41.5t-32.5 -16.5q-25 0 -38 10
l-85 59l-84 -59q-13 -10 -32 -10q-20 0 -35.5 18.5t-14.5 39.5q1 17 10 27.5t30 25.5l76 55q23 17 50 17z" />
    <glyph glyph-name="uni1ED3" unicode="&#x1ed3;" 
d="M341 767l-157 43q-43 15 -38 82v3q4 44 39 44q17 0 39 -11l151 -74q37 -18 34 -54q-3 -37 -44 -37q-13 0 -24 4zM285 529q48 0 93 -16t83.5 -48t62 -85t23.5 -121q0 -67 -23.5 -120t-62 -83.5t-83.5 -46t-93 -15.5t-93 15.5t-84 46t-62.5 83.5t-23.5 120t23.5 121
t62.5 85t84 47.5t93 16.5zM284 379q-41 0 -65.5 -29t-24.5 -88t24.5 -88.5t65.5 -29.5t65.5 29t24.5 89q0 59 -24.5 88t-65.5 29zM284 739q28 0 51 -17l75 -55q15 -11 21 -16.5t12.5 -15t7.5 -21.5q3 -25 -11.5 -41.5t-32.5 -16.5q-25 0 -38 10l-85 59l-84 -59
q-13 -10 -32 -10q-20 0 -35.5 18.5t-14.5 39.5q1 17 10 27.5t30 25.5l76 55q23 17 50 17z" />
    <glyph glyph-name="uni1ED4" unicode="&#x1ed4;" horiz-adv-x="733" 
d="M577 905h-1q-14 -9 -16 -15q2 -22 -10 -29t-38 -6q-21 -1 -29 5.5t-9 27.5q-1 16 6.5 28.5t13.5 17t26 16.5q4 3 6 4h-1q3 3 5 3q10 5 10 26q0 17 -31 11q-21 -3 -30 -39q-26 -1 -46.5 9t-21.5 25q-2 29 23.5 57t69.5 30q57 3 88.5 -23t30.5 -71q-1 -32 -12 -48t-35 -28
h2zM366 682q61 0 117 -18.5t105.5 -57.5t79.5 -109t30 -162t-30 -161t-79.5 -107.5t-105.5 -57t-116 -18.5q-61 0 -117 18.5t-106 57t-80 107.5t-30 161t30 162t79.5 109t105.5 57.5t117 18.5zM366 508q-59 0 -100.5 -42.5t-41.5 -129.5q0 -88 41.5 -130.5t100.5 -42.5
t100.5 42.5t41.5 130.5t-41.5 130t-100.5 42zM364 891q28 0 51 -17l75 -55q15 -11 21 -16.5t12.5 -15t7.5 -21.5q3 -25 -11.5 -41.5t-32.5 -16.5q-25 0 -38 10l-85 59l-84 -59q-13 -10 -32 -10q-20 0 -35.5 18.5t-14.5 39.5q1 17 10 27.5t30 25.5l76 55q23 17 50 17z" />
    <glyph glyph-name="uni1ED5" unicode="&#x1ed5;" 
d="M496 753h-1q-14 -9 -16 -15q2 -22 -10 -29t-38 -6q-21 -1 -29 5.5t-9 27.5q-1 16 6.5 28.5t13.5 17t26 16.5q4 3 6 4h-1q3 3 5 3q10 5 10 26q0 17 -31 11q-21 -3 -30 -39q-26 -1 -46.5 9t-21.5 25q-2 29 23.5 57t69.5 30q57 3 88.5 -23t30.5 -71q-1 -32 -12 -48t-35 -28
h2zM285 529q48 0 93 -16t83.5 -48t62 -85t23.5 -121q0 -67 -23.5 -120t-62 -83.5t-83.5 -46t-93 -15.5t-93 15.5t-84 46t-62.5 83.5t-23.5 120t23.5 121t62.5 85t84 47.5t93 16.5zM284 379q-41 0 -65.5 -29t-24.5 -88t24.5 -88.5t65.5 -29.5t65.5 29t24.5 89q0 59 -24.5 88
t-65.5 29zM284 739q28 0 51 -17l75 -55q15 -11 21 -16.5t12.5 -15t7.5 -21.5q3 -25 -11.5 -41.5t-32.5 -16.5q-25 0 -38 10l-85 59l-84 -59q-13 -10 -32 -10q-20 0 -35.5 18.5t-14.5 39.5q1 17 10 27.5t30 25.5l76 55q23 17 50 17z" />
    <glyph glyph-name="uni1ED6" unicode="&#x1ed6;" horiz-adv-x="733" 
d="M294 1052q22 3 83 -15q8 -3 21 -7.5t14.5 -4.5t12.5 -2t14 1q5 0 10.5 4t8 7t8 10.5t6.5 8.5q12 11 30.5 -3.5t20.5 -37.5q4 -36 -12 -59q-19 -27 -68 -34q-17 -2 -80 14q-8 3 -21.5 7.5t-15.5 5t-13.5 2.5t-14.5 -1q-6 0 -11.5 -4.5t-13.5 -13.5t-9 -10q-11 -11 -29 3
t-20 37q-4 36 12 59q17 27 67 33zM366 682q61 0 117 -18.5t105.5 -57.5t79.5 -109t30 -162t-30 -161t-79.5 -107.5t-105.5 -57t-116 -18.5q-61 0 -117 18.5t-106 57t-80 107.5t-30 161t30 162t79.5 109t105.5 57.5t117 18.5zM366 508q-59 0 -100.5 -42.5t-41.5 -129.5
q0 -88 41.5 -130.5t100.5 -42.5t100.5 42.5t41.5 130.5t-41.5 130t-100.5 42zM364 891q28 0 51 -17l75 -55q15 -11 21 -16.5t12.5 -15t7.5 -21.5q3 -25 -11.5 -41.5t-32.5 -16.5q-25 0 -38 10l-85 59l-84 -59q-13 -10 -32 -10q-20 0 -35.5 18.5t-14.5 39.5q1 17 10 27.5
t30 25.5l76 55q23 17 50 17z" />
    <glyph glyph-name="uni1ED7" unicode="&#x1ed7;" 
d="M214 900q22 3 83 -15q8 -3 21 -7.5t14.5 -4.5t12.5 -2t14 1q5 0 10.5 4t8 7t8 10.5t6.5 8.5q12 11 30.5 -3.5t20.5 -37.5q4 -36 -12 -59q-19 -27 -68 -34q-17 -2 -80 14q-8 3 -21.5 7.5t-15.5 5t-13.5 2.5t-14.5 -1q-6 0 -11.5 -4.5t-13.5 -13.5t-9 -10q-11 -11 -29 3
t-20 37q-4 36 12 59q17 27 67 33zM285 529q48 0 93 -16t83.5 -48t62 -85t23.5 -121q0 -67 -23.5 -120t-62 -83.5t-83.5 -46t-93 -15.5t-93 15.5t-84 46t-62.5 83.5t-23.5 120t23.5 121t62.5 85t84 47.5t93 16.5zM284 379q-41 0 -65.5 -29t-24.5 -88t24.5 -88.5t65.5 -29.5
t65.5 29t24.5 89q0 59 -24.5 88t-65.5 29zM284 739q28 0 51 -17l75 -55q15 -11 21 -16.5t12.5 -15t7.5 -21.5q3 -25 -11.5 -41.5t-32.5 -16.5q-25 0 -38 10l-85 59l-84 -59q-13 -10 -32 -10q-20 0 -35.5 18.5t-14.5 39.5q1 17 10 27.5t30 25.5l76 55q23 17 50 17z" />
    <glyph glyph-name="uni1ED8" unicode="&#x1ed8;" horiz-adv-x="733" 
d="M366 -50q29 0 48 -17t19 -48q0 -32 -19 -49t-48 -17q-28 0 -47 17.5t-19 48.5t19 48t47 17zM366 682q61 0 117 -18.5t105.5 -57.5t79.5 -109t30 -162t-30 -161t-79.5 -107.5t-105.5 -57t-116 -18.5q-61 0 -117 18.5t-106 57t-80 107.5t-30 161t30 162t79.5 109
t105.5 57.5t117 18.5zM366 508q-59 0 -100.5 -42.5t-41.5 -129.5q0 -88 41.5 -130.5t100.5 -42.5t100.5 42.5t41.5 130.5t-41.5 130t-100.5 42zM364 891q28 0 51 -17l75 -55q15 -11 21 -16.5t12.5 -15t7.5 -21.5q3 -25 -11.5 -41.5t-32.5 -16.5q-25 0 -38 10l-85 59l-84 -59
q-13 -10 -32 -10q-20 0 -35.5 18.5t-14.5 39.5q1 17 10 27.5t30 25.5l76 55q23 17 50 17z" />
    <glyph glyph-name="uni1ED9" unicode="&#x1ed9;" 
d="M285 -50q29 0 48 -17t19 -48q0 -32 -19 -49t-48 -17q-28 0 -47 17.5t-19 48.5t19 48t47 17zM285 529q48 0 93 -16t83.5 -48t62 -85t23.5 -121q0 -67 -23.5 -120t-62 -83.5t-83.5 -46t-93 -15.5t-93 15.5t-84 46t-62.5 83.5t-23.5 120t23.5 121t62.5 85t84 47.5t93 16.5z
M284 379q-41 0 -65.5 -29t-24.5 -88t24.5 -88.5t65.5 -29.5t65.5 29t24.5 89q0 59 -24.5 88t-65.5 29zM284 739q28 0 51 -17l75 -55q15 -11 21 -16.5t12.5 -15t7.5 -21.5q3 -25 -11.5 -41.5t-32.5 -16.5q-25 0 -38 10l-85 59l-84 -59q-13 -10 -32 -10q-20 0 -35.5 18.5
t-14.5 39.5q1 17 10 27.5t30 25.5l76 55q23 17 50 17z" />
    <glyph glyph-name="uni1EDA" unicode="&#x1eda;" horiz-adv-x="733" 
d="M473 768l-157 -43q-11 -4 -24 -4q-41 0 -44 37q-3 36 34 54l151 74q22 11 39 11q35 0 39 -44v-3q5 -67 -38 -82zM366 682q99 0 178 -46q46 4 51 26h-3q-56 2 -56 60q0 26 25 47t58 19q34 -3 51.5 -26t16.5 -60q-1 -42 -22 -73.5t-52 -46.5q85 -92 85 -247q0 -92 -30 -161
t-79.5 -107.5t-105.5 -57t-116 -18.5q-61 0 -117 18.5t-106 57t-80 107.5t-30 161t30 162t79.5 109t105.5 57.5t117 18.5zM366 508q-59 0 -100.5 -42.5t-41.5 -129.5q0 -88 41.5 -130.5t100.5 -42.5t100.5 42.5t41.5 130.5t-41.5 130t-100.5 42z" />
    <glyph glyph-name="uni1EDB" unicode="&#x1edb;" 
d="M382 609l-157 -43q-11 -4 -24 -4q-41 0 -44 37q-3 36 34 54l151 74q22 11 39 11q35 0 39 -44v-3q5 -67 -38 -82zM285 529q89 0 159 -51q38 5 42 25h-3q-56 2 -56 60q0 26 25 47t58 19q34 -3 51.5 -26t16.5 -60q-1 -43 -23 -75.5t-54 -46.5q46 -67 46 -162
q0 -67 -23.5 -120t-62 -83.5t-83.5 -46t-93 -15.5t-93 15.5t-84 46t-62.5 83.5t-23.5 120t23.5 121t62.5 85t84 47.5t93 16.5zM284 379q-41 0 -65.5 -29t-24.5 -88t24.5 -88.5t65.5 -29.5t65.5 29t24.5 89q0 59 -24.5 88t-65.5 29z" />
    <glyph glyph-name="uni1EDC" unicode="&#x1edc;" horiz-adv-x="733" 
d="M425 724l-157 43q-43 15 -38 82v3q4 44 39 44q17 0 39 -11l151 -74q37 -18 34 -54q-3 -37 -44 -37q-13 0 -24 4zM366 682q99 0 178 -46q46 4 51 26h-3q-56 2 -56 60q0 26 25 47t58 19q34 -3 51.5 -26t16.5 -60q-1 -42 -22 -73.5t-52 -46.5q85 -92 85 -247q0 -92 -30 -161
t-79.5 -107.5t-105.5 -57t-116 -18.5q-61 0 -117 18.5t-106 57t-80 107.5t-30 161t30 162t79.5 109t105.5 57.5t117 18.5zM366 508q-59 0 -100.5 -42.5t-41.5 -129.5q0 -88 41.5 -130.5t100.5 -42.5t100.5 42.5t41.5 130.5t-41.5 130t-100.5 42z" />
    <glyph glyph-name="uni1EDD" unicode="&#x1edd;" 
d="M335 567l-157 43q-43 15 -38 82v3q4 44 39 44q17 0 39 -11l151 -74q37 -18 34 -54q-3 -37 -44 -37q-13 0 -24 4zM285 529q89 0 159 -51q38 5 42 25h-3q-56 2 -56 60q0 26 25 47t58 19q34 -3 51.5 -26t16.5 -60q-1 -43 -23 -75.5t-54 -46.5q46 -67 46 -162
q0 -67 -23.5 -120t-62 -83.5t-83.5 -46t-93 -15.5t-93 15.5t-84 46t-62.5 83.5t-23.5 120t23.5 121t62.5 85t84 47.5t93 16.5zM284 379q-41 0 -65.5 -29t-24.5 -88t24.5 -88.5t65.5 -29.5t65.5 29t24.5 89q0 59 -24.5 88t-65.5 29z" />
    <glyph glyph-name="uni1EDE" unicode="&#x1ede;" horiz-adv-x="733" 
d="M433 767h-1q-14 -9 -16 -15q2 -22 -10 -29t-38 -6q-21 -1 -29 5.5t-9 27.5q-1 16 6.5 28.5t13.5 17t26 16.5q4 3 6 4h-1q3 3 5 3q10 5 10 26q0 17 -31 11q-21 -3 -30 -39q-26 -1 -46.5 9t-21.5 25q-2 29 23.5 57t69.5 30q57 3 88.5 -23t30.5 -71q-1 -32 -12 -48t-35 -28
h2zM366 682q99 0 178 -46q46 4 51 26h-3q-56 2 -56 60q0 26 25 47t58 19q34 -3 51.5 -26t16.5 -60q-1 -42 -22 -73.5t-52 -46.5q85 -92 85 -247q0 -92 -30 -161t-79.5 -107.5t-105.5 -57t-116 -18.5q-61 0 -117 18.5t-106 57t-80 107.5t-30 161t30 162t79.5 109t105.5 57.5
t117 18.5zM366 508q-59 0 -100.5 -42.5t-41.5 -129.5q0 -88 41.5 -130.5t100.5 -42.5t100.5 42.5t41.5 130.5t-41.5 130t-100.5 42z" />
    <glyph glyph-name="uni1EDF" unicode="&#x1edf;" 
d="M348 616h-1q-14 -9 -16 -15q2 -22 -10 -29t-38 -6q-21 -1 -29 5.5t-9 27.5q-1 16 6.5 28.5t13.5 17t26 16.5q4 3 6 4h-1q3 3 5 3q10 5 10 26q0 17 -31 11q-21 -3 -30 -39q-26 -1 -46.5 9t-21.5 25q-2 29 23.5 57t69.5 30q57 3 88.5 -23t30.5 -71q-1 -32 -12 -48t-35 -28
h2zM285 529q89 0 159 -51q38 5 42 25h-3q-56 2 -56 60q0 26 25 47t58 19q34 -3 51.5 -26t16.5 -60q-1 -43 -23 -75.5t-54 -46.5q46 -67 46 -162q0 -67 -23.5 -120t-62 -83.5t-83.5 -46t-93 -15.5t-93 15.5t-84 46t-62.5 83.5t-23.5 120t23.5 121t62.5 85t84 47.5t93 16.5z
M284 379q-41 0 -65.5 -29t-24.5 -88t24.5 -88.5t65.5 -29.5t65.5 29t24.5 89q0 59 -24.5 88t-65.5 29z" />
    <glyph glyph-name="uni1EE0" unicode="&#x1ee0;" horiz-adv-x="733" 
d="M290 860q22 3 83 -15q8 -3 21 -7.5t14.5 -4.5t12.5 -2t14 1q5 0 10.5 4t8 7t8 10.5t6.5 8.5q12 11 30.5 -3.5t20.5 -37.5q4 -36 -12 -59q-19 -27 -68 -34q-17 -2 -80 14q-8 3 -21.5 7.5t-15.5 5t-13.5 2.5t-14.5 -1q-6 0 -11.5 -4.5t-13.5 -13.5t-9 -10q-11 -11 -29 3
t-20 37q-4 36 12 59q17 27 67 33zM366 682q99 0 178 -46q46 4 51 26h-3q-56 2 -56 60q0 26 25 47t58 19q34 -3 51.5 -26t16.5 -60q-1 -42 -22 -73.5t-52 -46.5q85 -92 85 -247q0 -92 -30 -161t-79.5 -107.5t-105.5 -57t-116 -18.5q-61 0 -117 18.5t-106 57t-80 107.5
t-30 161t30 162t79.5 109t105.5 57.5t117 18.5zM366 508q-59 0 -100.5 -42.5t-41.5 -129.5q0 -88 41.5 -130.5t100.5 -42.5t100.5 42.5t41.5 130.5t-41.5 130t-100.5 42z" />
    <glyph glyph-name="uni1EE1" unicode="&#x1ee1;" 
d="M209 700q21 3 78 -15q7 -3 20 -7.5t14 -4.5t11.5 -2t13.5 1q5 0 9.5 4t7.5 7.5t7.5 10t6.5 8.5q11 11 28.5 -3.5t19.5 -37.5q4 -35 -11 -59q-17 -27 -64 -34q-16 -2 -76 14q-7 2 -20.5 7t-15 5t-12.5 2.5t-14 -0.5q-5 0 -10.5 -4.5t-12.5 -13t-9 -10.5q-11 -11 -27.5 3
t-18.5 37q-4 35 11 59q16 26 64 33zM285 529q89 0 159 -51q38 5 42 25h-3q-56 2 -56 60q0 26 25 47t58 19q34 -3 51.5 -26t16.5 -60q-1 -43 -23 -75.5t-54 -46.5q46 -67 46 -162q0 -67 -23.5 -120t-62 -83.5t-83.5 -46t-93 -15.5t-93 15.5t-84 46t-62.5 83.5t-23.5 120
t23.5 121t62.5 85t84 47.5t93 16.5zM284 379q-41 0 -65.5 -29t-24.5 -88t24.5 -88.5t65.5 -29.5t65.5 29t24.5 89q0 59 -24.5 88t-65.5 29z" />
    <glyph glyph-name="uni1EE2" unicode="&#x1ee2;" horiz-adv-x="733" 
d="M366 -50q29 0 48 -17t19 -48q0 -32 -19 -49t-48 -17q-28 0 -47 17.5t-19 48.5t19 48t47 17zM366 682q99 0 178 -46q46 4 51 26h-3q-56 2 -56 60q0 26 25 47t58 19q34 -3 51.5 -26t16.5 -60q-1 -42 -22 -73.5t-52 -46.5q85 -92 85 -247q0 -92 -30 -161t-79.5 -107.5
t-105.5 -57t-116 -18.5q-61 0 -117 18.5t-106 57t-80 107.5t-30 161t30 162t79.5 109t105.5 57.5t117 18.5zM366 508q-59 0 -100.5 -42.5t-41.5 -129.5q0 -88 41.5 -130.5t100.5 -42.5t100.5 42.5t41.5 130.5t-41.5 130t-100.5 42z" />
    <glyph glyph-name="uni1EE3" unicode="&#x1ee3;" 
d="M285 -50q29 0 48 -17t19 -48q0 -32 -19 -49t-48 -17q-28 0 -47 17.5t-19 48.5t19 48t47 17zM285 529q89 0 159 -51q38 5 42 25h-3q-56 2 -56 60q0 26 25 47t58 19q34 -3 51.5 -26t16.5 -60q-1 -43 -23 -75.5t-54 -46.5q46 -67 46 -162q0 -67 -23.5 -120t-62 -83.5
t-83.5 -46t-93 -15.5t-93 15.5t-84 46t-62.5 83.5t-23.5 120t23.5 121t62.5 85t84 47.5t93 16.5zM284 379q-41 0 -65.5 -29t-24.5 -88t24.5 -88.5t65.5 -29.5t65.5 29t24.5 89q0 59 -24.5 88t-65.5 29z" />
    <glyph glyph-name="uni1EE4" unicode="&#x1ee4;" horiz-adv-x="699" 
d="M351 -50q29 0 48 -17t19 -48q0 -32 -19 -49t-48 -17q-28 0 -47 17.5t-19 48.5t19 48t47 17zM140 673h14q46 0 66 -19t20 -63v-318q0 -122 110 -122t110 122v318q0 44 19.5 63t65.5 19h14q87 0 87 -82v-277q0 -48 -5 -86.5t-23 -84.5t-48.5 -76.5t-86.5 -51.5t-133 -21
t-133 21t-86.5 51.5t-48.5 76.5t-23 84.5t-5 86.5v277q0 82 86 82z" />
    <glyph glyph-name="uni1EE5" unicode="&#x1ee5;" horiz-adv-x="567" 
d="M267 -50q29 0 48 -17t19 -48q0 -32 -19 -49t-48 -17q-28 0 -47 17.5t-19 48.5t19 48t47 17zM122 522h8q45 0 63 -26.5t18 -79.5v-164q0 -104 66 -104q41 0 57.5 36.5t16.5 104.5v127q0 53 17.5 79.5t67.5 26.5h4q50 0 67 -20.5t17 -72.5v-335q0 -53 -17.5 -73.5
t-67.5 -20.5t-69 20t-19 67v11q-15 -45 -56 -74t-109 -29q-65 0 -107 48.5t-42 146.5v239q0 50 18.5 71.5t66.5 21.5z" />
    <glyph glyph-name="uni1EE6" unicode="&#x1ee6;" horiz-adv-x="699" 
d="M416 767h-1q-14 -9 -16 -15q2 -22 -10 -29t-38 -6q-21 -1 -29 5.5t-9 27.5q-1 16 6.5 28.5t13.5 17t26 16.5q4 3 6 4h-1q3 3 5 3q10 5 10 26q0 17 -31 11q-21 -3 -30 -39q-26 -1 -46.5 9t-21.5 25q-2 29 23.5 57t69.5 30q57 3 88.5 -23t30.5 -71q-1 -32 -12 -48t-35 -28
h2zM140 673h14q46 0 66 -19t20 -63v-318q0 -122 110 -122t110 122v318q0 44 19.5 63t65.5 19h14q87 0 87 -82v-277q0 -48 -5 -86.5t-23 -84.5t-48.5 -76.5t-86.5 -51.5t-133 -21t-133 21t-86.5 51.5t-48.5 76.5t-23 84.5t-5 86.5v277q0 82 86 82z" />
    <glyph glyph-name="uni1EE7" unicode="&#x1ee7;" horiz-adv-x="567" 
d="M341 616h-1q-14 -9 -16 -15q2 -22 -10 -29t-38 -6q-21 -1 -29 5.5t-9 27.5q-1 16 6.5 28.5t13.5 17t26 16.5q4 3 6 4h-1q3 3 5 3q10 5 10 26q0 17 -31 11q-21 -3 -30 -39q-26 -1 -46.5 9t-21.5 25q-2 29 23.5 57t69.5 30q57 3 88.5 -23t30.5 -71q-1 -32 -12 -48t-35 -28
h2zM122 522h8q45 0 63 -26.5t18 -79.5v-164q0 -104 66 -104q41 0 57.5 36.5t16.5 104.5v127q0 53 17.5 79.5t67.5 26.5h4q50 0 67 -20.5t17 -72.5v-335q0 -53 -17.5 -73.5t-67.5 -20.5t-69 20t-19 67v11q-15 -45 -56 -74t-109 -29q-65 0 -107 48.5t-42 146.5v239
q0 50 18.5 71.5t66.5 21.5z" />
    <glyph glyph-name="uni1EE8" unicode="&#x1ee8;" horiz-adv-x="699" 
d="M469 768l-157 -43q-11 -4 -24 -4q-41 0 -44 37q-3 36 34 54l151 74q22 11 39 11q35 0 39 -44v-3q5 -67 -38 -82zM140 673h14q46 0 66 -19t20 -63v-318q0 -122 110 -122t110 122v318q0 44 19.5 63t65.5 19h14q48 0 68 -23q34 5 38 24h-3q-56 2 -56 60q0 26 25 47t58 19
q34 -3 51.5 -26t16.5 -60q-1 -54 -35 -90.5t-76 -40.5v-269q0 -48 -5 -86.5t-23 -84.5t-48.5 -76.5t-86.5 -51.5t-133 -21t-133 21t-86.5 51.5t-48.5 76.5t-23 84.5t-5 86.5v277q0 82 86 82z" />
    <glyph glyph-name="uni1EE9" unicode="&#x1ee9;" horiz-adv-x="608" 
d="M382 609l-157 -43q-11 -4 -24 -4q-41 0 -44 37q-3 36 34 54l151 74q22 11 39 11q35 0 39 -44v-3q5 -67 -38 -82zM122 522h8q45 0 63 -26.5t18 -79.5v-164q0 -104 66 -104q41 0 57.5 36.5t16.5 104.5v127q0 53 17.5 79.5t67.5 26.5h4q52 0 69 -23q28 5 32 23h-3
q-56 2 -56 60q0 26 25 47t58 19q34 -3 51.5 -26t16.5 -60q-1 -54 -34 -90t-75 -41v-2v-335q0 -53 -17.5 -73.5t-67.5 -20.5t-69 20t-19 67v11q-15 -45 -56 -74t-109 -29q-65 0 -107 48.5t-42 146.5v239q0 50 18.5 71.5t66.5 21.5z" />
    <glyph glyph-name="uni1EEA" unicode="&#x1eea;" horiz-adv-x="699" 
d="M398 724l-157 43q-43 15 -38 82v3q4 44 39 44q17 0 39 -11l151 -74q37 -18 34 -54q-3 -37 -44 -37q-13 0 -24 4zM140 673h14q46 0 66 -19t20 -63v-318q0 -122 110 -122t110 122v318q0 44 19.5 63t65.5 19h14q48 0 68 -23q34 5 38 24h-3q-56 2 -56 60q0 26 25 47t58 19
q34 -3 51.5 -26t16.5 -60q-1 -54 -35 -90.5t-76 -40.5v-269q0 -48 -5 -86.5t-23 -84.5t-48.5 -76.5t-86.5 -51.5t-133 -21t-133 21t-86.5 51.5t-48.5 76.5t-23 84.5t-5 86.5v277q0 82 86 82z" />
    <glyph glyph-name="uni1EEB" unicode="&#x1eeb;" horiz-adv-x="608" 
d="M335 567l-157 43q-43 15 -38 82v3q4 44 39 44q17 0 39 -11l151 -74q37 -18 34 -54q-3 -37 -44 -37q-13 0 -24 4zM122 522h8q45 0 63 -26.5t18 -79.5v-164q0 -104 66 -104q41 0 57.5 36.5t16.5 104.5v127q0 53 17.5 79.5t67.5 26.5h4q52 0 69 -23q28 5 32 23h-3
q-56 2 -56 60q0 26 25 47t58 19q34 -3 51.5 -26t16.5 -60q-1 -54 -34 -90t-75 -41v-2v-335q0 -53 -17.5 -73.5t-67.5 -20.5t-69 20t-19 67v11q-15 -45 -56 -74t-109 -29q-65 0 -107 48.5t-42 146.5v239q0 50 18.5 71.5t66.5 21.5z" />
    <glyph glyph-name="uni1EEC" unicode="&#x1eec;" horiz-adv-x="699" 
d="M416 767h-1q-14 -9 -16 -15q2 -22 -10 -29t-38 -6q-21 -1 -29 5.5t-9 27.5q-1 16 6.5 28.5t13.5 17t26 16.5q4 3 6 4h-1q3 3 5 3q10 5 10 26q0 17 -31 11q-21 -3 -30 -39q-26 -1 -46.5 9t-21.5 25q-2 29 23.5 57t69.5 30q57 3 88.5 -23t30.5 -71q-1 -32 -12 -48t-35 -28
h2zM140 673h14q46 0 66 -19t20 -63v-318q0 -122 110 -122t110 122v318q0 44 19.5 63t65.5 19h14q48 0 68 -23q34 5 38 24h-3q-56 2 -56 60q0 26 25 47t58 19q34 -3 51.5 -26t16.5 -60q-1 -54 -35 -90.5t-76 -40.5v-269q0 -48 -5 -86.5t-23 -84.5t-48.5 -76.5t-86.5 -51.5
t-133 -21t-133 21t-86.5 51.5t-48.5 76.5t-23 84.5t-5 86.5v277q0 82 86 82z" />
    <glyph glyph-name="uni1EED" unicode="&#x1eed;" horiz-adv-x="608" 
d="M341 616h-1q-14 -9 -16 -15q2 -22 -10 -29t-38 -6q-21 -1 -29 5.5t-9 27.5q-1 16 6.5 28.5t13.5 17t26 16.5q4 3 6 4h-1q3 3 5 3q10 5 10 26q0 17 -31 11q-21 -3 -30 -39q-26 -1 -46.5 9t-21.5 25q-2 29 23.5 57t69.5 30q57 3 88.5 -23t30.5 -71q-1 -32 -12 -48t-35 -28
h2zM122 522h8q45 0 63 -26.5t18 -79.5v-164q0 -104 66 -104q41 0 57.5 36.5t16.5 104.5v127q0 53 17.5 79.5t67.5 26.5h4q52 0 69 -23q28 5 32 23h-3q-56 2 -56 60q0 26 25 47t58 19q34 -3 51.5 -26t16.5 -60q-1 -54 -34 -90t-75 -41v-2v-335q0 -53 -17.5 -73.5t-67.5 -20.5
t-69 20t-19 67v11q-15 -45 -56 -74t-109 -29q-65 0 -107 48.5t-42 146.5v239q0 50 18.5 71.5t66.5 21.5z" />
    <glyph glyph-name="uni1EEE" unicode="&#x1eee;" horiz-adv-x="699" 
d="M273 869q34 0 85 -21q39 -16 68 -16q17 0 36 15q12 10 29 -6t17 -39q0 -36 -18 -58q-25 -30 -72 -30q-31 0 -84 21q-39 16 -69 16q-19 0 -36 -14q-12 -10 -28.5 5.5t-16.5 38.5q0 36 18 58q24 30 71 30zM140 673h14q46 0 66 -19t20 -63v-318q0 -122 110 -122t110 122v318
q0 44 19.5 63t65.5 19h14q48 0 68 -23q34 5 38 24h-3q-56 2 -56 60q0 26 25 47t58 19q34 -3 51.5 -26t16.5 -60q-1 -54 -35 -90.5t-76 -40.5v-269q0 -48 -5 -86.5t-23 -84.5t-48.5 -76.5t-86.5 -51.5t-133 -21t-133 21t-86.5 51.5t-48.5 76.5t-23 84.5t-5 86.5v277
q0 82 86 82z" />
    <glyph glyph-name="uni1EEF" unicode="&#x1eef;" horiz-adv-x="608" 
d="M200 700q22 3 83 -15q8 -3 21 -7.5t14.5 -4.5t12.5 -2t14 1q5 0 10.5 4t8 7t8 10.5t6.5 8.5q12 11 30.5 -3.5t20.5 -37.5q4 -36 -12 -59q-19 -27 -68 -34q-17 -2 -80 14q-8 3 -21.5 7.5t-15.5 5t-13.5 2.5t-14.5 -1q-6 0 -11.5 -4.5t-13.5 -13.5t-9 -10q-11 -11 -29 3
t-20 37q-4 36 12 59q17 27 67 33zM122 522h8q45 0 63 -26.5t18 -79.5v-164q0 -104 66 -104q41 0 57.5 36.5t16.5 104.5v127q0 53 17.5 79.5t67.5 26.5h4q52 0 69 -23q28 5 32 23h-3q-56 2 -56 60q0 26 25 47t58 19q34 -3 51.5 -26t16.5 -60q-1 -54 -34 -90t-75 -41v-2v-335
q0 -53 -17.5 -73.5t-67.5 -20.5t-69 20t-19 67v11q-15 -45 -56 -74t-109 -29q-65 0 -107 48.5t-42 146.5v239q0 50 18.5 71.5t66.5 21.5z" />
    <glyph glyph-name="uni1EF0" unicode="&#x1ef0;" horiz-adv-x="699" 
d="M351 -50q29 0 48 -17t19 -48q0 -32 -19 -49t-48 -17q-28 0 -47 17.5t-19 48.5t19 48t47 17zM140 673h14q46 0 66 -19t20 -63v-318q0 -122 110 -122t110 122v318q0 44 19.5 63t65.5 19h14q48 0 68 -23q34 5 38 24h-3q-56 2 -56 60q0 26 25 47t58 19q34 -3 51.5 -26
t16.5 -60q-1 -54 -35 -90.5t-76 -40.5v-269q0 -48 -5 -86.5t-23 -84.5t-48.5 -76.5t-86.5 -51.5t-133 -21t-133 21t-86.5 51.5t-48.5 76.5t-23 84.5t-5 86.5v277q0 82 86 82z" />
    <glyph glyph-name="uni1EF1" unicode="&#x1ef1;" horiz-adv-x="608" 
d="M267 -50q29 0 48 -17t19 -48q0 -32 -19 -49t-48 -17q-28 0 -47 17.5t-19 48.5t19 48t47 17zM122 522h8q45 0 63 -26.5t18 -79.5v-164q0 -104 66 -104q41 0 57.5 36.5t16.5 104.5v127q0 53 17.5 79.5t67.5 26.5h4q52 0 69 -23q28 5 32 23h-3q-56 2 -56 60q0 26 25 47
t58 19q34 -3 51.5 -26t16.5 -60q-1 -54 -34 -90t-75 -41v-2v-335q0 -53 -17.5 -73.5t-67.5 -20.5t-69 20t-19 67v11q-15 -45 -56 -74t-109 -29q-65 0 -107 48.5t-42 146.5v239q0 50 18.5 71.5t66.5 21.5z" />
    <glyph glyph-name="Ygrave" unicode="&#x1ef2;" horiz-adv-x="639" 
d="M100 673h39q64 0 81 -57q53 -170 97 -253h4q39 65 92 243q12 38 33 52.5t60 14.5h42q64 0 64 -54q0 -20 -13 -56q-69 -184 -184 -347v-111q0 -53 -17.5 -79t-67.5 -26h-24q-51 0 -67.5 26t-16.5 79v114q-126 177 -188 357q-8 21 -8 43q0 25 20 39.5t54 14.5zM389 705
l-163 48q-45 16 -45 89v4q0 48 35 48q15 0 41 -12l159 -81q39 -20 39 -59q0 -21 -12 -31t-30 -10q-13 0 -24 4z" />
    <glyph glyph-name="ygrave" unicode="&#x1ef3;" horiz-adv-x="577" 
d="M87 522h33q64 0 78 -56l3 -12q4 -17 20.5 -86t30 -119.5t29.5 -99.5q53 170 81 317q11 56 78 56h32q72 0 72 -48q0 -2 -8 -37q-66 -280 -190 -555q-17 -38 -37 -60.5t-52 -22.5h-46q-29 0 -46 14.5t-17 40.5q0 18 13 46t32.5 62t25.5 46h-1q-44 12 -77 74q-30 57 -54 124
t-36 112.5t-32 131.5q-4 16 -4 24q0 48 72 48zM351 565l-163 48q-45 16 -45 89v4q0 48 35 48q15 0 41 -12l159 -81q39 -20 39 -59q0 -21 -12 -31t-30 -10q-13 0 -24 4z" />
    <glyph glyph-name="uni1EF4" unicode="&#x1ef4;" horiz-adv-x="639" 
d="M314 -50q29 0 48 -17t19 -48q0 -32 -19 -49t-48 -17q-28 0 -47 17.5t-19 48.5t19 48t47 17zM100 673h39q64 0 81 -57q53 -170 97 -253h4q39 65 92 243q12 38 33 52.5t60 14.5h42q64 0 64 -54q0 -20 -13 -56q-69 -184 -184 -347v-111q0 -53 -17.5 -79t-67.5 -26h-24
q-51 0 -67.5 26t-16.5 79v114q-126 177 -188 357q-8 21 -8 43q0 25 20 39.5t54 14.5z" />
    <glyph glyph-name="uni1EF5" unicode="&#x1ef5;" horiz-adv-x="563" 
d="M470 -50q29 0 48 -17t19 -48q0 -32 -19 -49t-48 -17q-28 0 -47 17.5t-19 48.5t19 48t47 17zM87 522h33q64 0 78 -56l3 -12q4 -17 20.5 -86t30 -119.5t29.5 -99.5q53 170 81 317q11 56 78 56h32q72 0 72 -48q0 -2 -8 -37q-66 -280 -190 -555q-17 -38 -37 -60.5t-52 -22.5
h-46q-29 0 -46 14.5t-17 40.5q0 18 13 46t32.5 62t25.5 46h-1q-44 12 -77 74q-30 57 -54 124t-36 112.5t-32 131.5q-4 16 -4 24q0 48 72 48z" />
    <glyph glyph-name="uni1EF6" unicode="&#x1ef6;" horiz-adv-x="639" 
d="M383 767h-1q-14 -9 -16 -15q2 -22 -10 -29t-38 -6q-21 -1 -29 5.5t-9 27.5q-1 16 6.5 28.5t13.5 17t26 16.5q4 3 6 4h-1q3 3 5 3q10 5 10 26q0 17 -31 11q-21 -3 -30 -39q-26 -1 -46.5 9t-21.5 25q-2 29 23.5 57t69.5 30q57 3 88.5 -23t30.5 -71q-1 -32 -12 -48t-35 -28
h2zM100 673h39q64 0 81 -57q53 -170 97 -253h4q39 65 92 243q12 38 33 52.5t60 14.5h42q64 0 64 -54q0 -20 -13 -56q-69 -184 -184 -347v-111q0 -53 -17.5 -79t-67.5 -26h-24q-51 0 -67.5 26t-16.5 79v114q-126 177 -188 357q-8 21 -8 43q0 25 20 39.5t54 14.5z" />
    <glyph glyph-name="uni1EF7" unicode="&#x1ef7;" horiz-adv-x="563" 
d="M341 616h-1q-14 -9 -16 -15q2 -22 -10 -29t-38 -6q-21 -1 -29 5.5t-9 27.5q-1 16 6.5 28.5t13.5 17t26 16.5q4 3 6 4h-1q3 3 5 3q10 5 10 26q0 17 -31 11q-21 -3 -30 -39q-26 -1 -46.5 9t-21.5 25q-2 29 23.5 57t69.5 30q57 3 88.5 -23t30.5 -71q-1 -32 -12 -48t-35 -28
h2zM87 522h33q64 0 78 -56l3 -12q4 -17 20.5 -86t30 -119.5t29.5 -99.5q53 170 81 317q11 56 78 56h32q72 0 72 -48q0 -2 -8 -37q-66 -280 -190 -555q-17 -38 -37 -60.5t-52 -22.5h-46q-29 0 -46 14.5t-17 40.5q0 18 13 46t32.5 62t25.5 46h-1q-44 12 -77 74q-30 57 -54 124
t-36 112.5t-32 131.5q-4 16 -4 24q0 48 72 48z" />
    <glyph glyph-name="uni1EF8" unicode="&#x1ef8;" horiz-adv-x="639" 
d="M246 869q34 0 85 -21q39 -16 68 -16q17 0 36 15q12 10 29 -6t17 -39q0 -36 -18 -58q-25 -30 -72 -30q-31 0 -84 21q-39 16 -69 16q-18 0 -36 -14q-12 -10 -28.5 5.5t-16.5 38.5q0 36 18 58q24 30 71 30zM100 673h39q64 0 81 -57q53 -170 97 -253h4q39 65 92 243
q12 38 33 52.5t60 14.5h42q64 0 64 -54q0 -20 -13 -56q-69 -184 -184 -347v-111q0 -53 -17.5 -79t-67.5 -26h-24q-51 0 -67.5 26t-16.5 79v114q-126 177 -188 357q-8 21 -8 43q0 25 20 39.5t54 14.5z" />
    <glyph glyph-name="uni1EF9" unicode="&#x1ef9;" horiz-adv-x="563" 
d="M199 700q22 3 83 -15q8 -3 21 -7.5t14.5 -4.5t12.5 -2t14 1q5 0 10.5 4t8 7t8 10.5t6.5 8.5q12 11 30.5 -3.5t20.5 -37.5q4 -36 -12 -59q-19 -27 -68 -34q-17 -2 -80 14q-8 3 -21.5 7.5t-15.5 5t-13.5 2.5t-14.5 -1q-6 0 -11.5 -4.5t-13.5 -13.5t-9 -10q-11 -11 -29 3
t-20 37q-4 36 12 59q17 27 67 33zM87 522h33q64 0 78 -56l3 -12q4 -17 20.5 -86t30 -119.5t29.5 -99.5q53 170 81 317q11 56 78 56h32q72 0 72 -48q0 -2 -8 -37q-66 -280 -190 -555q-17 -38 -37 -60.5t-52 -22.5h-46q-29 0 -46 14.5t-17 40.5q0 18 13 46t32.5 62t25.5 46h-1
q-44 12 -77 74q-30 57 -54 124t-36 112.5t-32 131.5q-4 16 -4 24q0 48 72 48z" />
    <glyph glyph-name="uni1EFA" unicode="&#x1efa;" horiz-adv-x="0" 
d="M325 575h-1q-17 -10 -17 -11q2 -21 -6.5 -28t-30.5 -6q-19 -1 -24.5 5t-7.5 26q-1 16 5.5 27t11.5 14.5t25 16.5h-1q3 3 5 3q16 8 16 24q0 15 -29 9q-20 -2 -28 -32q-24 -1 -43 8t-20 23q-2 26 21.5 49t64.5 25q52 3 80 -20t28 -60q0 -29 -13 -44.5t-37 -27.5h2z" />
    <glyph glyph-name="uni1EFB" unicode="&#x1efb;" horiz-adv-x="0" 
d="M605 728q0 23 22.5 42t51.5 17q31 -2 46.5 -23t14.5 -54q-1 -52 -33.5 -84.5t-73.5 -32.5q-12 0 -21.5 21t-9.5 37q51 2 56 23h-3q-50 2 -50 54z" />
    <glyph glyph-name="uni1EFC" unicode="&#x1efc;" horiz-adv-x="0" 
d="M361 625l-157 -43q-11 -4 -24 -4q-41 0 -44 37q-3 36 34 54l151 74q22 11 39 11q35 0 39 -44v-3q5 -67 -38 -82z" />
    <glyph glyph-name="endash" unicode="&#x2013;" horiz-adv-x="627" 
d="M123 377h381q81 0 81 -77t-81 -77h-381q-81 0 -81 77t81 77z" />
    <glyph glyph-name="emdash" unicode="&#x2014;" horiz-adv-x="895" 
d="M123 377h650q81 0 81 -77t-81 -77h-650q-81 0 -81 77t81 77z" />
    <glyph glyph-name="quoteleft" unicode="&#x2018;" horiz-adv-x="275" 
d="M175 700q28 0 41 -12.5t13 -30.5q-40 -13 -64 -38.5t-24 -58.5q33 5 56 -8q37 -21 37 -62q0 -40 -27 -67.5t-69 -27.5q-46 0 -78 34.5t-32 88.5q0 77 44.5 129.5t102.5 52.5z" />
    <glyph glyph-name="quoteright" unicode="&#x2019;" horiz-adv-x="275" 
d="M100 395q-28 0 -41 12.5t-13 30.5q40 13 64 38.5t24 58.5q-33 -5 -57 8q-36 21 -36 62t26.5 68t69.5 27q45 0 77 -34.5t32 -88.5q0 -77 -44 -129.5t-102 -52.5z" />
    <glyph glyph-name="quotedblleft" unicode="&#x201c;" horiz-adv-x="501" 
d="M400 700q28 0 41 -12.5t13 -30.5q-40 -13 -64 -38.5t-24 -58.5q33 5 56 -8q37 -21 37 -62q0 -40 -27 -67.5t-69 -27.5q-46 0 -78 34.5t-32 88.5q0 77 44.5 129.5t102.5 52.5zM176 700q28 0 41 -12.5t13 -30.5q-40 -13 -64 -38.5t-24 -58.5q33 5 56 -8q37 -21 37 -62
q0 -40 -27 -67.5t-69 -27.5q-46 0 -78 34.5t-32 88.5q0 77 44.5 129.5t102.5 52.5z" />
    <glyph glyph-name="quotedblright" unicode="&#x201d;" horiz-adv-x="501" 
d="M101 395q-28 0 -41 12.5t-13 30.5q40 13 64 38.5t24 58.5q-33 -5 -57 8q-36 21 -36 62t26.5 68t69.5 27q45 0 77 -34.5t32 -88.5q0 -77 -44 -129.5t-102 -52.5zM326 395q-28 0 -41 12.5t-13 30.5q40 13 64 38.5t24 58.5q-33 -5 -57 8q-36 21 -36 62t26.5 68t69.5 27
q45 0 77 -34.5t32 -88.5q0 -77 -44 -129.5t-102 -52.5z" />
    <glyph glyph-name="quotedblbase" unicode="&#x201e;" horiz-adv-x="509" 
d="M93 -113q-28 0 -41 13t-13 31q40 13 64 38.5t24 58.5q-33 -6 -56 7q-37 21 -37 63q0 40 26.5 67.5t69.5 27.5q46 0 78 -34.5t32 -88.5q0 -77 -44.5 -130t-102.5 -53zM326 -113q-28 0 -41 13t-13 31q39 13 63.5 38.5t24.5 58.5q-33 -6 -57 7q-36 20 -36 63q0 40 26.5 67.5
t69.5 27.5q45 0 77 -34.5t32 -88.5q0 -77 -44 -130t-102 -53z" />
    <glyph glyph-name="dagger" unicode="&#x2020;" horiz-adv-x="494" 
d="M245 686h1q49 0 64.5 -25.5t15.5 -82.5v-73h61q82 0 82 -77t-82 -77h-61v-244q0 -55 -15 -81t-62 -26h-3q-50 0 -64.5 25t-14.5 82v244h-61q-82 0 -82 77t82 77h61v73q0 55 15 81.5t63 26.5z" />
    <glyph glyph-name="daggerdbl" unicode="&#x2021;" horiz-adv-x="536" 
d="M387 158h-61v-51q0 -55 -15 -81t-62 -26h-3q-50 0 -64.5 25t-14.5 82v51h-61q-82 0 -82 77t82 77h61v39h-61q-82 0 -82 77t82 77h61v73q0 55 15 81.5t63 26.5h1q49 0 64.5 -25.5t15.5 -82.5v-73h61q82 0 82 -77t-82 -77h-61v-39h61q82 0 82 -77t-82 -77z" />
    <glyph glyph-name="bullet" unicode="&#x2022;" horiz-adv-x="422" 
d="M212 478q60 0 98.5 -35t38.5 -100q0 -66 -38.5 -101.5t-98.5 -35.5q-59 0 -98.5 36t-39.5 101t39 100t99 35z" />
    <glyph glyph-name="ellipsis" unicode="&#x2026;" horiz-adv-x="808" 
d="M402 186q42 0 70 -25.5t28 -70.5t-28 -70.5t-70 -25.5q-41 0 -69 25.5t-28 70.5t28 70.5t69 25.5zM660 186q42 0 70 -25.5t28 -70.5t-28 -70.5t-70 -25.5q-41 0 -69 25.5t-28 70.5t28 70.5t69 25.5zM147 186q42 0 70 -25.5t28 -70.5t-28 -70.5t-70 -25.5q-41 0 -69 25.5
t-28 70.5t28 70.5t69 25.5z" />
    <glyph glyph-name="perthousand" unicode="&#x2030;" horiz-adv-x="1101" 
d="M907 310q59 0 107.5 -41t48.5 -118q0 -76 -48 -115t-108 -39t-108.5 39t-48.5 115q0 77 48.5 118t108.5 41zM906 215q-23 0 -39.5 -15t-16.5 -46q0 -32 16.5 -47t39.5 -15t40 15t17 47q0 31 -17 46t-40 15zM558 310q59 0 107.5 -41t48.5 -118q0 -76 -48 -115t-108 -39
t-108.5 39t-48.5 115q0 77 48.5 118t108.5 41zM557 215q-23 0 -39.5 -15t-16.5 -46q0 -32 16.5 -47t39.5 -15t40 15t17 47q0 31 -17 46t-40 15zM186 694q59 0 107.5 -40.5t48.5 -117.5t-48 -116.5t-108 -39.5t-109 40t-49 116q0 77 49 117.5t109 40.5zM185 599
q-23 0 -40 -14.5t-17 -46.5t17 -47t40 -15q22 0 39 15.5t17 46.5t-16.5 46t-39.5 15zM657 687q25 -22 25 -42q0 -18 -38 -65l-463 -555q-25 -30 -47 -30q-18 0 -39 18h-1q-25 22 -25 42q0 18 22 45l15 18l463 556q25 31 48 31q16 0 40 -18z" />
    <glyph glyph-name="guilsinglleft" unicode="&#x2039;" horiz-adv-x="380" 
d="M38 251q0 22 8 36t36 42q7 8 27.5 30t30 32t27.5 28.5t28.5 27.5t23 20t21.5 15.5t15 4.5q28 0 54.5 -24.5t26.5 -58.5q0 -17 -20 -43t-59 -64.5t-45 -45.5q9 -10 29 -31t34 -36t29.5 -32.5t23.5 -31.5t8 -23q0 -29 -27 -56t-54 -27q-8 0 -18.5 5.5t-24.5 17t-26.5 23
t-30.5 31l-30 32.5t-32 35.5t-29 32.5q-26 29 -26 60z" />
    <glyph glyph-name="guilsinglright" unicode="&#x203a;" horiz-adv-x="380" 
d="M119 487q6 0 15 -4.5t21.5 -15.5t23 -20t28.5 -27.5t27.5 -28.5t30 -32t27.5 -30q28 -28 36 -42t8 -36q0 -31 -26 -60q-9 -10 -29 -32.5t-32 -35.5l-30 -32.5t-30.5 -31t-26.5 -23t-24.5 -17t-18.5 -5.5q-27 0 -54 27t-27 56q0 9 8 23t23.5 31.5t29.5 32.5t34 36t29 31
q-6 7 -45 45.5t-59 64.5t-20 43q0 34 26.5 58.5t54.5 24.5z" />
    <glyph glyph-name="Euro" unicode="&#x20ac;" horiz-adv-x="714" 
d="M463 356h-155q-1 -8 -1 -23q0 -4 1 -7v-10h155q21 0 31 -9t10 -30q0 -36 -41 -38h-136q34 -75 116 -75q91 0 120 69q40 -5 72 -35.5t32 -68.5q0 -61 -65 -99.5t-160 -38.5q-117 0 -203.5 62.5t-111.5 185.5h-55q-22 0 -31.5 9t-9.5 30q0 38 38 38h49v40h-46
q-22 0 -31.5 9t-9.5 31q0 37 38 37h59q25 122 109 185.5t201 63.5q104 0 167.5 -42.5t63.5 -106.5q0 -40 -31.5 -65t-75.5 -32q-22 72 -119 72q-37 0 -67 -20t-46 -55h133q41 0 41 -39q0 -36 -41 -38z" />
    <glyph glyph-name="trademark" unicode="&#x2122;" horiz-adv-x="795" 
d="M420 693h24q35 0 49 -20q12 -17 23.5 -48.5t24.5 -77.5t19 -63q5 16 22 67t25 79q10 33 24 48t46 15h23q32 0 41.5 -11t9.5 -42v-246q0 -29 -9 -41.5t-36 -12.5h-5q-28 0 -36.5 12.5t-8.5 41.5q0 26 0.5 54.5t1.5 64t1 54.5h-1q-4 -11 -13.5 -44t-15.5 -51.5t-16 -42
t-21 -34.5t-24 -11h-16q-13 0 -24.5 11t-20.5 33.5t-15.5 42t-15 51t-13.5 45.5h-1q-1 -32 1 -90.5t2 -82.5q0 -29 -9.5 -41.5t-36.5 -12.5h-3q-29 0 -38.5 12.5t-9.5 41.5q0 40 0.5 122.5t0.5 123.5q0 32 9.5 42.5t41.5 10.5zM81 693h207q50 0 50 -47q0 -45 -42 -45h-62
v-217q0 -23 -10.5 -33.5t-35.5 -10.5h-7q-26 0 -36.5 10t-10.5 34v217h-53q-51 0 -51 45q0 47 51 47z" />
    <glyph glyph-name="minus" unicode="&#x2212;" horiz-adv-x="611" 
d="M131 391h351q44 0 62 -17.5t18 -59.5q0 -41 -18 -59.5t-62 -18.5h-351q-44 0 -62 18t-18 60q0 41 18 59t62 18z" />
    <glyph glyph-name="approxequal" unicode="&#x2248;" horiz-adv-x="509" 
d="M153 487q46 0 119 -27q52 -19 99 -19q23 0 46 18q15 11 35 -8.5t20 -46.5q0 -41 -22 -65q-32 -36 -89 -36q-45 0 -119 27q-54 19 -98 19q-22 0 -47 -17q-15 -11 -35 8t-20 46q0 41 22 66q30 35 89 35zM154 291q46 0 119 -27q52 -19 99 -19q23 0 46 18q15 11 35 -8.5
t20 -46.5q0 -41 -22 -65q-32 -36 -89 -36q-45 0 -119 27q-54 19 -98 19q-22 0 -47 -17q-15 -11 -35 8t-20 46q0 41 22 66q30 35 89 35z" />
    <glyph glyph-name="notequal" unicode="&#x2260;" horiz-adv-x="608" 
d="M119 451h287l79 95q18 22 44 13q20 -7 23.5 -21t-8.5 -28l-50 -59q38 -2 55.5 -20.5t17.5 -59.5q0 -75 -81 -75h-121l-53 -63h174q42 0 61.5 -18.5t19.5 -60.5q0 -76 -81 -76h-303l-66 -79q-18 -23 -43 -14q-43 14 -16 49l38 46q-54 9 -54 77q0 76 77 76h105l52 63h-153
q-42 0 -61.5 18t-19.5 61q0 76 77 76z" />
    <glyph glyph-name="lessequal" unicode="&#x2264;" horiz-adv-x="583" 
d="M474 0h-362q-31 0 -45 12t-14 39q0 50 59 50h362q31 0 45 -11.5t14 -38.5q0 -51 -59 -51zM118 476l322 137l9 3q9 4 21 4q27 0 42.5 -23.5t15.5 -60.5v-12q0 -57 -63 -78l-202 -70v-13l212 -74q24 -7 38.5 -26.5t14.5 -47.5v-12q0 -38 -16 -61t-42 -23q-11 0 -30 7
l-322 137q-68 23 -68 94v24q0 38 16 59t52 36z" />
    <glyph glyph-name="greaterequal" unicode="&#x2265;" horiz-adv-x="583" 
d="M474 0h-361q-32 0 -46 12t-14 39q0 50 59 50h362q32 0 45.5 -11.5t13.5 -38.5q0 -51 -59 -51zM131 619l329 -140q36 -18 51.5 -38t15.5 -57v-24q0 -39 -15.5 -59t-51.5 -35l-323 -137q-22 -9 -29 -9q-25 0 -41.5 25t-16.5 63v10q0 56 62 78l203 70v13q-165 57 -212 74
q-24 6 -38.5 26t-14.5 48v10q0 37 16.5 62.5t41.5 25.5q10 0 23 -6z" />
  </font>
</defs>
</svg>
